<svg width="135" height="14" viewBox="0 0 135 14" fill="none" xmlns="http://www.w3.org/2000/svg">
<path d="M4.096 8.48C4.096 9.776 5.04 10.576 6.56 10.576C7.776 10.576 8.768 10.032 9.216 9.12C9.312 10.08 9.968 10.576 11.072 10.576C12.688 10.576 13.84 8.96 13.84 6.704C13.84 2.992 11.088 0.335999 7.264 0.335999C3.536 0.335999 0.672 3.2 0.672 6.928C0.672 10.704 3.52 13.568 7.264 13.568C8.8 13.568 10.192 13.072 11.344 12.16L10.896 11.504C9.872 12.336 8.608 12.768 7.264 12.768C4.016 12.768 1.536 10.24 1.536 6.928C1.536 3.664 4.032 1.136 7.264 1.136C10.592 1.136 12.976 3.456 12.976 6.704C12.976 8.56 12.24 9.824 11.152 9.824C10.496 9.824 10.16 9.488 10.16 8.864V5.808C10.16 4.08 9.088 3.104 7.28 3.104C5.504 3.104 4.336 4.048 4.336 5.456H5.296C5.296 4.512 6.016 3.952 7.232 3.952C8.512 3.952 9.136 4.56 9.136 5.792V6.032L6.784 6.208C5.072 6.352 4.096 7.216 4.096 8.48ZM5.12 8.464C5.12 7.584 5.776 7.088 7.024 6.976L9.136 6.816V7.168C9.136 8.768 8.24 9.728 6.784 9.728C5.712 9.728 5.12 9.28 5.12 8.464ZM17.5324 7.216V12H18.6844V7.216L22.5244 0.544H21.2604L18.4604 5.488C18.2524 5.888 18.2524 5.888 18.1084 6.176C17.9964 5.92 17.9004 5.728 17.7724 5.488L14.9404 0.544H13.6444L17.5324 7.216ZM24.5791 12.192C25.8911 12.192 26.9471 11.616 27.4271 10.64L27.5711 12H28.4991V6.992C28.4991 4.944 27.1871 4.048 25.3951 4.048C23.4911 4.048 22.2111 5.056 22.2111 6.624H23.2191C23.2191 5.584 24.0191 4.976 25.3631 4.976C26.4991 4.976 27.4111 5.456 27.4111 6.976V7.232L24.8511 7.44C23.0431 7.584 21.9551 8.48 21.9551 9.904C21.9551 11.264 22.9311 12.192 24.5791 12.192ZM24.8351 11.296C23.7791 11.296 23.0751 10.816 23.0751 9.872C23.0751 9.008 23.6671 8.368 25.1231 8.24L27.4111 8.064V8.48C27.4111 10.16 26.4671 11.296 24.8351 11.296ZM31.8185 12V7.952C31.8185 6.208 32.7145 5.056 34.2985 5.056C35.5785 5.056 36.3945 5.696 36.3945 7.504V12H37.4985V7.264C37.4985 5.312 36.6185 4.048 34.4905 4.048C33.3705 4.048 32.3465 4.608 31.8345 5.6L31.6745 4.256H30.7145V12H31.8185ZM41.4749 12V5.184H43.0269V4.256H41.4749V1.808H40.3869V4.256H38.8349V5.184H40.3869V12H41.4749ZM48.5125 4.16C48.2405 4.096 48.0325 4.08 47.7925 4.08C46.7045 4.08 45.8885 4.624 45.5845 5.456L45.5045 4.256H44.4645V12H45.5685V7.584C45.5685 6.112 46.4805 5.152 47.9045 5.152H48.5125V4.16ZM51.8916 12.192C53.2036 12.192 54.2596 11.616 54.7396 10.64L54.8836 12H55.8116V6.992C55.8116 4.944 54.4996 4.048 52.7076 4.048C50.8036 4.048 49.5236 5.056 49.5236 6.624H50.5316C50.5316 5.584 51.3316 4.976 52.6756 4.976C53.8116 4.976 54.7236 5.456 54.7236 6.976V7.232L52.1636 7.44C50.3556 7.584 49.2676 8.48 49.2676 9.904C49.2676 11.264 50.2436 12.192 51.8916 12.192ZM52.1476 11.296C51.0916 11.296 50.3876 10.816 50.3876 9.872C50.3876 9.008 50.9796 8.368 52.4356 8.24L54.7236 8.064V8.48C54.7236 10.16 53.7796 11.296 52.1476 11.296ZM59.179 12V9.68L60.683 8.128L63.147 12H64.427L61.435 7.344L64.411 4.256H63.019L59.179 8.256V0.335999H58.075V12H59.179ZM67.8448 12.192C69.1568 12.192 70.2128 11.616 70.6928 10.64L70.8368 12H71.7648V6.992C71.7648 4.944 70.4528 4.048 68.6608 4.048C66.7568 4.048 65.4768 5.056 65.4768 6.624H66.4848C66.4848 5.584 67.2848 4.976 68.6288 4.976C69.7648 4.976 70.6768 5.456 70.6768 6.976V7.232L68.1168 7.44C66.3088 7.584 65.2208 8.48 65.2208 9.904C65.2208 11.264 66.1968 12.192 67.8448 12.192ZM68.1008 11.296C67.0448 11.296 66.3408 10.816 66.3408 9.872C66.3408 9.008 66.9328 8.368 68.3888 8.24L70.6768 8.064V8.48C70.6768 10.16 69.7328 11.296 68.1008 11.296ZM74.9241 12.176C75.4681 12.176 75.9321 11.728 75.9321 11.2C75.9321 10.656 75.4681 10.192 74.9241 10.192C74.3801 10.192 73.9161 10.656 73.9161 11.2C73.9161 11.728 74.3801 12.176 74.9241 12.176ZM80.2354 12.192C81.5474 12.192 82.6034 11.616 83.0834 10.64L83.2274 12H84.1554V6.992C84.1554 4.944 82.8434 4.048 81.0514 4.048C79.1474 4.048 77.8674 5.056 77.8674 6.624H78.8754C78.8754 5.584 79.6754 4.976 81.0194 4.976C82.1554 4.976 83.0674 5.456 83.0674 6.976V7.232L80.5074 7.44C78.6994 7.584 77.6114 8.48 77.6114 9.904C77.6114 11.264 78.5874 12.192 80.2354 12.192ZM80.4914 11.296C79.4354 11.296 78.7314 10.816 78.7314 9.872C78.7314 9.008 79.3234 8.368 80.7794 8.24L83.0674 8.064V8.48C83.0674 10.16 82.1234 11.296 80.4914 11.296ZM86.9148 2.128C87.3628 2.128 87.7468 1.76 87.7468 1.312C87.7468 0.863999 87.3628 0.48 86.9148 0.48C86.4668 0.48 86.0988 0.863999 86.0988 1.312C86.0988 1.76 86.4668 2.128 86.9148 2.128ZM86.3708 12H87.4748V4.256H86.3708V12ZM91.729 11.456C91.729 10.656 91.233 10.192 90.657 10.192C90.097 10.192 89.713 10.592 89.713 11.152C89.713 11.696 90.097 12.016 90.545 12.016C90.737 12.016 90.865 11.968 90.961 11.904C90.961 12.352 90.545 12.768 89.969 12.864V13.456C90.961 13.312 91.729 12.448 91.729 11.456ZM105.522 12V10.928H99.746L102.418 8.592C104.706 6.592 105.458 5.488 105.458 3.824C105.458 1.728 104.018 0.335999 101.858 0.335999C99.602 0.335999 98.082 1.92 98.018 4.32H99.17C99.218 2.544 100.258 1.392 101.842 1.392C103.362 1.392 104.29 2.336 104.29 3.888C104.29 5.248 103.746 6.048 101.634 7.888L97.97 11.088V12H105.522ZM107.114 6.272C107.114 9.84 108.826 12.208 111.706 12.208C114.57 12.208 116.282 9.84 116.282 6.272C116.282 2.72 114.538 0.32 111.706 0.32C108.858 0.32 107.114 2.72 107.114 6.272ZM108.25 6.272C108.25 3.28 109.514 1.376 111.706 1.376C113.898 1.376 115.162 3.28 115.162 6.272C115.162 9.248 113.898 11.168 111.706 11.168C109.514 11.168 108.25 9.248 108.25 6.272ZM125.428 12V10.928H119.652L122.324 8.592C124.612 6.592 125.364 5.488 125.364 3.824C125.364 1.728 123.924 0.335999 121.764 0.335999C119.508 0.335999 117.988 1.92 117.924 4.32H119.076C119.124 2.544 120.164 1.392 121.748 1.392C123.268 1.392 124.196 2.336 124.196 3.888C124.196 5.248 123.652 6.048 121.54 7.888L117.876 11.088V12H125.428ZM134.444 12V10.928H128.668L131.34 8.592C133.628 6.592 134.38 5.488 134.38 3.824C134.38 1.728 132.94 0.335999 130.78 0.335999C128.524 0.335999 127.004 1.92 126.94 4.32H128.092C128.14 2.544 129.18 1.392 130.764 1.392C132.284 1.392 133.212 2.336 133.212 3.888C133.212 5.248 132.668 6.048 130.556 7.888L126.892 11.088V12H134.444Z" fill="black"/>
</svg>
