<svg width="48" height="48" viewBox="0 0 48 48" fill="none" xmlns="http://www.w3.org/2000/svg">
<path d="M44.5706 24.0001C44.5706 18.9945 42.7454 14.1605 39.437 10.404C36.1287 6.64746 31.5641 4.22611 26.5985 3.5936C21.633 2.96109 16.6072 4.16081 12.4627 6.968C8.31824 9.77519 5.33953 13.9972 4.08464 18.843C2.82976 23.6889 3.38481 28.826 5.64581 33.292C7.90681 37.7579 11.7186 41.2463 16.367 43.1034C21.0155 44.9605 26.1816 45.0591 30.8974 43.3805C35.6133 41.7019 39.5553 38.3615 41.9849 33.985L30.2942 27.4948C29.4438 29.0266 28.0641 30.1958 26.4135 30.7833C24.763 31.3708 22.9549 31.3363 21.3279 30.6863C19.701 30.0363 18.3668 28.8154 17.5755 27.2523C16.7841 25.6892 16.5899 23.8912 17.0291 22.1952C17.4683 20.4991 18.5108 19.0214 19.9614 18.0389C21.412 17.0564 23.171 16.6365 24.9089 16.8579C26.6469 17.0792 28.2445 17.9267 29.4024 19.2415C30.5604 20.5563 31.1992 22.2481 31.1992 24.0001H44.5706Z" fill="#6B38FD" fill-opacity="0.15"/>
<mask id="path-2-inside-1_8276_8677" fill="white">
<path d="M24 0C29.9616 7.10915e-08 35.7098 2.2188 40.1253 6.22434C44.5408 10.2299 47.3075 15.7354 47.8865 21.6688C48.4656 27.6023 46.8156 33.5388 43.2579 38.3225C39.7002 43.1062 34.4894 46.3945 28.6403 47.5471L25.3921 31.0641C27.1468 30.7183 28.7101 29.7318 29.7774 28.2967C30.8447 26.8616 31.3397 25.0807 31.166 23.3007C30.9922 21.5206 30.1622 19.869 28.8376 18.6673C27.513 17.4656 25.7885 16.8 24 16.8V0Z"/>
</mask>
<path d="M24 0C29.9616 7.10915e-08 35.7098 2.2188 40.1253 6.22434C44.5408 10.2299 47.3075 15.7354 47.8865 21.6688C48.4656 27.6023 46.8156 33.5388 43.2579 38.3225C39.7002 43.1062 34.4894 46.3945 28.6403 47.5471L25.3921 31.0641C27.1468 30.7183 28.7101 29.7318 29.7774 28.2967C30.8447 26.8616 31.3397 25.0807 31.166 23.3007C30.9922 21.5206 30.1622 19.869 28.8376 18.6673C27.513 17.4656 25.7885 16.8 24 16.8V0Z" fill="#6237DE" stroke="#6237DE" stroke-width="2" mask="url(#path-2-inside-1_8276_8677)"/>
</svg>
