<?xml version="1.0" encoding="utf-8"?>
<!-- Generator: Adobe Illustrator 16.0.0, SVG Export Plug-In . SVG Version: 6.00 Build 0)  -->
<!DOCTYPE svg PUBLIC "-//W3C//DTD SVG 1.1//EN" "http://www.w3.org/Graphics/SVG/1.1/DTD/svg11.dtd">
<svg version="1.1" id="Layer_1" xmlns="http://www.w3.org/2000/svg" xmlns:xlink="http://www.w3.org/1999/xlink" x="0px" y="0px"
	 width="225px" height="225px" viewBox="0 0 225 225" enable-background="new 0 0 225 225" xml:space="preserve">
<g transform="translate(0.000000,225.000000) scale(0.100000,-0.100000)">
	<path fill="#3468D1" d="M1040,2243.999c-153.999-15-295-56.001-430-125c-662.002-340-810-1224.995-297.002-1766.001
		C647.998,0.996,1167.998-95,1607.002,115c118.994,57.002,197.998,110,290,197.998c300,285,420,719.004,307.998,1115
		c-30.996,109.004-119.004,287.002-184.004,373.003C1835,2045,1545,2207.998,1239.004,2240
		C1140.996,2250,1112.998,2250,1040,2243.999z M1172.998,1888.999c14.004-22.998,1.006-66.997-22.998-73.999
		c-46.001-15-82.002,48.999-47.998,82.998C1118.999,1915,1160,1908.999,1172.998,1888.999z M760,1845
		c27.002-32.002-22.998-82.002-55-55c-15,12.998-20,51.001-7.998,62.998C708.999,1865,747.002,1860,760,1845z M1575.996,1835
		c11.006-42.998-33.994-72.998-63.994-42.998c-27.002,26.997-6.006,67.998,35,67.998C1562.998,1860,1570.996,1852.998,1575.996,1835
		z M886.001,1675c21.001-32.002,11.997-67.002-22.002-85c-55-30-111.001,43.999-67.998,91.001
		C821.001,1708.999,866.001,1706.001,886.001,1675z M1472.002,1682.998c10-8.999,17.998-26.997,17.998-40
		c0-27.998-32.998-62.998-60-62.998c-25.996,0-60,33.999-60,62.002C1370,1692.002,1432.998,1717.998,1472.002,1682.998z
		 M1164.004,1648.999c55.996-26.001,52.998-105-3.008-128.999c-74.995-31.001-132.998,57.998-75.996,115
		C1112.002,1662.998,1127.002,1665,1164.004,1648.999z M535,1516.001c17.998-27.002,11.001-52.002-17.002-67.002
		c-41.997-22.998-90,45-55.996,78.999C482.002,1547.998,517.998,1542.002,535,1516.001z M1810,1521.001
		c15.996-31.001,12.002-48.999-15-67.002c-22.998-15-27.002-15-50,0c-14.004,8.999-25,25-25,36.001
		C1720,1535,1789.004,1558.999,1810,1521.001z M1076.001,1436.001c93.999-93.999-15-236.001-133.003-173.999
		c-50,25-67.998,86.997-42.998,147.998c16.001,37.998,52.002,58.999,103.999,60C1033.999,1470,1048.999,1462.998,1076.001,1436.001z
		 M1345.996,1436.001c48.008-48.003,48.008-101.001,1.006-153.003c-27.998-30-40-35.996-75-35.996
		c-97.002,0-150,98.999-96.006,177.998c20,28.999,54.004,43.999,98.008,45C1304.004,1470,1319.004,1462.998,1345.996,1436.001z
		 M763.999,1418.999c56.001-26.001,53.003-105-3.999-128.999c-80-32.998-135,90-56.001,127.998
		C732.002,1432.002,735,1432.002,763.999,1418.999z M1574.004,1408.999c56.992-45,5.996-146.997-61.006-122.998
		c-60.996,21.001-68.994,102.998-12.998,131.001C1534.004,1433.999,1542.998,1432.998,1574.004,1408.999z M927.002,1213.999
		c65.996-41.001,60-153.999-9.004-189.995c-48.999-25-95.996-18.008-133.999,20c-65,65-37.998,159.995,56.001,188.994
		C860,1240,900,1231.001,927.002,1213.999z M1494.004,1188.999c25-27.998,27.998-36.997,22.998-78.003
		c-12.998-112.998-160-141.992-212.002-40.996c-20.996,40-19.004,72.002,7.998,111.001
		C1357.002,1246.001,1439.004,1250,1494.004,1188.999z M580,1170c55-55-23.999-135-82.002-82.998
		c-25,22.998-22.998,67.998,4.004,86.997C532.002,1195,556.001,1193.999,580,1170z M1770,1170c55-55-24.004-135-82.002-82.998
		c-25,22.998-22.998,67.998,4.004,86.997C1722.002,1195,1745.996,1193.999,1770,1170z M353.999,1153.999
		C362.998,1146.001,370,1132.002,370,1125c0-12.998-26.001-45-36.001-45c-38.999,0-58.999,60-26.001,78.999
		C331.001,1172.998,336.001,1172.998,353.999,1153.999z M1960.996,1160c25-13.999,25-55.996-0.996-70
		c-45-24.004-85.996,43.999-42.002,68.999C1939.004,1172.002,1937.998,1172.002,1960.996,1160z M1035,1000
		c7.002,0,27.002-14.004,43.999-30.996C1105,944.004,1110,930,1110,892.998c0-37.998-5-50-33.999-78.994
		c-26.001-26.006-42.002-34.004-70-34.004c-78.999,0-122.002,50-117.002,137.002c2.002,42.998,78.003,97.998,118.999,87.002
		C1016.001,1002.002,1027.998,1000,1035,1000z M1347.998,964.004c46.006-48.008,45-103.008-2.002-150
		c-37.998-38.008-85-45-133.994-20c-83.003,42.998-70,171.992,18.994,202.998C1277.998,1012.998,1309.004,1004.004,1347.998,964.004
		z M763.999,959.004C820,932.998,817.002,854.004,760,830c-80-32.998-135,90-56.001,127.998
		C732.002,972.002,735,972.002,763.999,959.004z M1574.004,949.004C1610,920,1610,869.004,1572.998,840
		c-70-55-150.996,42.002-87.998,105C1515,975,1539.004,975.996,1574.004,949.004z M530,790
		c23.999-24.004,23.999-29.004,3.999-57.998c-16.997-24.004-52.998-29.004-71.997-10c-19.004,18.994-14.004,55,10,72.002
		C501.001,814.004,506.001,814.004,530,790z M1800,792.002c17.998-15,22.002-25,15.996-46.006C1807.998,715,1790,705,1755,714.004
		c-35.996,8.994-45,53.994-15,77.998c12.002,10,25.996,17.998,30,17.998S1787.998,802.002,1800,792.002z M1164.004,729.004
		c12.998-7.002,30-24.004,36.992-40c22.002-53.008-37.998-111.006-93.994-90c-56.001,21.992-60,100.996-7.002,127.998
		C1130.996,742.998,1132.998,742.998,1164.004,729.004z M877.998,650c26.001-24.004,28.003-47.002,6.001-77.998
		c-17.998-26.006-60-29.004-86.001-5C772.998,590,775,635,802.002,654.004C832.002,675,852.002,674.004,877.998,650z M1470,650
		c24.004-24.004,25-47.998,4.004-77.998C1445,530,1370,554.004,1370,607.002C1370,635,1402.998,670,1430,670
		C1440.996,670,1459.004,660.996,1470,650z M753.999,454.004c31.001-30,8.003-69.004-36.001-62.002
		C692.002,395,681.001,432.998,700,455.996C716.001,474.004,735,474.004,753.999,454.004z M1570,455c7.002-7.998,10-25,5.996-40
		C1565,374.004,1500,385.996,1500,430C1500,465.996,1547.002,482.998,1570,455z M1164.004,424.004
		C1195.996,392.998,1177.998,340,1135,340c-62.002,0-60,97.998,2.002,100C1142.998,440,1155.996,432.998,1164.004,424.004z"/>
</g>
</svg>
