<?xml version="1.0" standalone="no"?>
<!DOCTYPE svg PUBLIC "-//W3C//DTD SVG 20010904//EN"
 "http://www.w3.org/TR/2001/REC-SVG-20010904/DTD/svg10.dtd">
<svg version="1.0" xmlns="http://www.w3.org/2000/svg"
 width="225.000000pt" height="225.000000pt" viewBox="0 0 225.000000 225.000000"
 preserveAspectRatio="xMidYMid meet">

<g transform="translate(0.000000,225.000000) scale(0.100000,-0.100000)"
fill="#000000" stroke="none">
<path d="M916 2225 c-396 -82 -710 -350 -842 -720 -52 -146 -67 -252 -61 -425
6 -156 21 -234 76 -375 62 -162 190 -335 330 -447 208 -166 441 -248 706 -248
521 0 951 336 1087 850 28 107 36 334 14 457 -76 436 -392 776 -834 895 -101
27 -372 35 -476 13z m262 -148 c56 -59 109 -237 138 -460 11 -87 22 -136 28
-133 164 68 182 78 193 106 6 16 23 35 38 42 22 10 32 9 59 -6 30 -16 37 -16
92 -3 144 37 230 30 253 -19 10 -22 8 -34 -14 -81 -31 -70 -180 -220 -322
-325 l-102 -76 97 -73 c122 -93 293 -261 321 -316 63 -127 -24 -168 -240 -113
-85 22 -275 92 -346 129 l-40 20 -12 -110 c-15 -129 -52 -299 -83 -383 -22
-61 -83 -136 -110 -136 -44 0 -108 99 -138 215 -8 29 -25 61 -42 77 -31 29
-36 62 -14 94 12 17 12 35 1 123 -8 57 -16 105 -19 108 -3 3 -45 -11 -93 -32
-283 -122 -501 -158 -545 -91 -42 62 101 238 337 416 52 39 95 73 95 74 0 2
-42 34 -92 72 -62 46 -100 68 -115 66 -28 -4 -73 39 -73 69 0 12 -24 48 -59
84 -59 64 -101 135 -101 172 0 35 46 63 102 63 102 0 297 -56 483 -140 l64
-29 5 32 c3 18 10 75 16 127 24 191 86 386 140 440 27 27 71 25 98 -3z"/>
<path d="M1107 2043 c-42 -48 -88 -204 -118 -408 -28 -191 -32 -174 61 -220
l80 -39 73 38 c39 22 76 42 80 46 11 10 -27 264 -58 389 -25 96 -70 201 -91
208 -6 2 -18 -4 -27 -14z"/>
<path d="M320 1584 c0 -25 31 -75 87 -140 42 -49 47 -52 82 -47 33 5 41 1 60
-23 14 -18 21 -38 18 -52 -4 -22 39 -61 178 -163 6 -4 45 15 88 42 l77 50 0
58 c0 32 3 72 6 88 6 29 4 30 -86 72 -153 71 -322 122 -422 128 -81 5 -88 4
-88 -13z"/>
<path d="M1750 1579 c-59 -15 -80 -26 -99 -50 -23 -29 -27 -31 -75 -25 -44 5
-63 1 -141 -32 l-90 -38 -3 -65 c-5 -109 -1 -118 85 -172 l76 -48 93 71 c192
146 356 323 340 365 -8 21 -93 19 -186 -6z"/>
<path d="M1232 1378 l-54 -31 59 -33 58 -33 3 56 c2 31 -1 60 -5 64 -4 4 -32
-6 -61 -23z"/>
<path d="M960 1340 l0 -61 48 27 c26 15 51 31 56 35 7 6 -81 59 -99 59 -3 0
-5 -27 -5 -60z"/>
<path d="M1043 1272 l-83 -47 0 -106 0 -105 84 -48 84 -47 86 48 86 48 0 101
c0 70 -4 105 -12 111 -7 6 -47 29 -88 51 l-75 41 -82 -47z m137 -47 c34 -17
60 -62 60 -100 0 -38 -26 -83 -60 -100 -102 -53 -208 53 -155 155 28 55 98 75
155 45z"/>
<path d="M852 1155 l-54 -33 54 -36 53 -36 3 35 c2 19 2 51 0 69 l-3 35 -53
-34z"/>
<path d="M1350 1120 c0 -54 3 -69 13 -64 6 4 31 21 55 37 48 32 50 27 -30 76
l-38 23 0 -72z"/>
<path d="M675 1038 c-203 -147 -355 -306 -355 -372 0 -17 7 -18 88 -14 97 6
233 47 407 121 85 36 100 46 99 65 0 12 -1 53 -2 90 l-2 69 -74 46 c-40 26
-78 47 -82 46 -5 0 -40 -23 -79 -51z"/>
<path d="M1420 1044 c-36 -24 -68 -52 -72 -62 -3 -9 -7 -51 -7 -93 l-1 -76 69
-31 c107 -48 328 -120 408 -133 76 -12 123 -7 123 14 0 28 -64 109 -153 194
-94 89 -275 233 -293 232 -5 0 -38 -20 -74 -45z"/>
<path d="M1233 930 l-63 -36 55 -27 c31 -15 57 -27 60 -27 7 0 17 65 13 96
l-3 30 -62 -36z"/>
<path d="M960 901 c0 -34 3 -61 8 -61 4 1 31 13 60 28 l53 28 -53 30 c-29 16
-56 31 -60 32 -5 2 -8 -24 -8 -57z"/>
<path d="M1046 829 l-79 -41 7 -66 c15 -151 18 -163 42 -174 31 -14 48 -57 35
-90 -5 -14 -15 -28 -22 -30 -23 -8 49 -197 86 -228 15 -12 19 -11 36 10 49 65
95 236 124 460 8 63 13 115 12 115 -16 10 -159 85 -160 85 -1 -1 -37 -19 -81
-41z"/>
</g>
</svg>
