<svg width="640" height="900" viewBox="0 0 640 900" fill="none" xmlns="http://www.w3.org/2000/svg">
<g clip-path="url(#clip0_3188_35413)">
<rect width="640" height="900" fill="#F0F0F0"/>
<path d="M669 -46L1108.07 542.75L229.925 542.75L669 -46Z" fill="#51D9B8"/>
<path d="M608 580C608 681.977 573.667 780.984 510.534 861.069C447.401 941.153 359.144 997.65 259.984 1021.46C160.825 1045.26 56.5382 1034.99 -36.0715 992.297C-128.681 949.603 -204.22 876.974 -250.517 786.112C-296.814 695.25 -311.171 591.447 -291.277 491.429C-271.382 391.412 -218.393 301.005 -140.849 234.776C-63.3056 168.547 34.2776 130.354 136.176 126.35C238.074 122.346 338.353 152.766 420.854 212.706L154 580H608Z" fill="#6B38FD"/>
<path d="M99.3011 59.9704C97.0887 59.9704 95.2912 60.6617 93.8887 62.0247C92.4863 63.3877 91.7949 65.2247 91.7949 67.5753C91.7949 69.9062 92.4863 71.763 93.8887 73.1259C95.2912 74.4889 97.1085 75.1803 99.3208 75.1803C101.138 75.1803 102.699 74.6864 103.983 73.679C105.267 72.6716 106.057 71.3284 106.333 69.6099L103.133 69.3333C102.738 71.3679 101.276 72.4741 99.2221 72.4741C97.9579 72.4741 96.911 72.0395 96.1011 71.1901C95.2912 70.3408 94.8962 69.1358 94.8962 67.5753C94.8962 66.0938 95.2912 64.9087 96.0616 64.0198C96.8517 63.1309 97.8986 62.6766 99.2023 62.6766C101.257 62.6766 102.718 63.8222 103.133 65.8766L106.313 65.6C106.057 63.8815 105.267 62.4988 103.963 61.4914C102.679 60.484 101.118 59.9704 99.3011 59.9704Z" fill="black"/>
<path d="M114.159 64.6519C112.835 64.6519 111.887 65.0667 111.354 65.9161V64.7506H108.569V74.963H111.453V69.7877C111.453 68.3654 112.5 67.4371 114.159 67.4371V64.6519Z" fill="black"/>
<path d="M125.85 64.7506H122.65L120.319 70.8346L117.969 64.7506H114.789L118.779 74.0543L116.171 80H119.312L125.85 64.7506Z" fill="black"/>
<path d="M133.144 64.5531C131.761 64.5531 130.754 64.9679 130.122 65.8173V64.7506H127.396V80H130.28V74.0938C130.932 74.8247 131.9 75.1803 133.144 75.1803C134.606 75.1803 135.791 74.6864 136.7 73.7185C137.628 72.7506 138.082 71.4667 138.082 69.8667C138.082 68.2667 137.628 66.9827 136.7 66.0148C135.791 65.0469 134.606 64.5531 133.144 64.5531ZM132.69 67.0222C134.171 67.0222 135.159 68.0692 135.159 69.8667C135.159 71.6642 134.171 72.7111 132.69 72.7111C131.248 72.7111 130.28 71.7037 130.28 70.1037V69.6296C130.28 68.0296 131.248 67.0222 132.69 67.0222Z" fill="black"/>
<path d="M146.324 67.2395V64.7506H143.934L143.953 61.3729H141.069L141.05 64.7506H139.173V67.2395H141.03L141.01 71.7235C140.99 74.0148 142.413 75.1605 144.724 75.1605C145.237 75.1605 145.771 75.121 146.324 75.042V72.4741C145.948 72.5333 145.652 72.5729 145.435 72.5729C144.546 72.5729 143.894 72.079 143.894 71.0321L143.914 67.2395H146.324Z" fill="black"/>
<path d="M158.675 69.8667C158.675 68.2667 158.162 66.9827 157.135 66.0148C156.127 65.0469 154.823 64.5531 153.243 64.5531C151.663 64.5531 150.359 65.0469 149.332 66.0148C148.325 66.9827 147.811 68.2667 147.811 69.8667C147.811 71.4469 148.325 72.7309 149.332 73.7185C150.359 74.6864 151.663 75.1803 153.243 75.1803C154.823 75.1803 156.127 74.6864 157.135 73.7185C158.162 72.7309 158.675 71.4469 158.675 69.8667ZM155.061 67.7926C155.515 68.2864 155.752 68.9778 155.752 69.8667C155.752 70.7556 155.515 71.4469 155.061 71.9408C154.606 72.4346 153.994 72.6914 153.243 72.6914C152.493 72.6914 151.88 72.4346 151.426 71.9408C150.972 71.4469 150.735 70.7556 150.735 69.8667C150.735 68.9778 150.972 68.2864 151.426 67.7926C151.88 67.279 152.493 67.0222 153.243 67.0222C153.994 67.0222 154.606 67.279 155.061 67.7926Z" fill="black"/>
<path d="M167.993 66.9037V69.5901H171.706C171.252 71.5457 169.889 72.4741 167.973 72.4741C165.267 72.4741 163.608 70.7951 163.608 67.5753C163.608 64.3556 165.267 62.6766 167.973 62.6766C169.968 62.6766 171.331 63.763 171.746 65.5803L174.906 65.0469C174.511 63.4469 173.701 62.2025 172.457 61.3136C171.213 60.4247 169.731 59.9704 167.993 59.9704C165.8 59.9704 164.003 60.6617 162.6 62.0247C161.198 63.3877 160.506 65.2247 160.506 67.5753C160.506 69.9062 161.198 71.763 162.6 73.1259C164.003 74.4889 165.82 75.1803 168.013 75.1803C170.166 75.1803 171.864 74.5087 173.129 73.1852C174.412 71.8617 175.045 70.084 175.045 67.8914V66.9037H167.993Z" fill="black"/>
<path d="M186.955 69.6296C186.955 68.0494 186.521 66.805 185.632 65.9161C184.743 65.0074 183.558 64.5531 182.076 64.5531C180.536 64.5531 179.291 65.0272 178.323 65.9951C177.355 66.9432 176.881 68.2272 176.881 69.8667C176.881 71.4864 177.355 72.7704 178.323 73.7383C179.291 74.7062 180.575 75.1803 182.155 75.1803C183.36 75.1803 184.387 74.8642 185.257 74.2519C186.146 73.6395 186.679 72.8296 186.857 71.8617L183.953 71.7235C183.736 72.4741 183.104 72.8494 182.076 72.8494C180.792 72.8494 180.002 72.0593 179.943 70.7753H186.955V69.6296ZM182.057 66.805C183.321 66.805 183.992 67.5753 184.052 68.8593H179.943C180.022 67.5753 180.812 66.805 182.057 66.805Z" fill="black"/>
<path d="M194.712 64.5531C193.408 64.5531 192.499 64.9679 191.966 65.7975V64.7506H189.24V74.963H192.124V69.2938C192.124 68.0494 192.894 67.2395 194.02 67.2395C195.126 67.2395 195.818 67.9901 195.818 69.2741V74.963H198.702V68.721C198.702 66.1136 197.102 64.5531 194.712 64.5531Z" fill="black"/>
<path d="M202.893 59.6741C201.451 59.5951 200.562 61.6494 201.668 62.6371C202.32 63.2889 203.465 63.2889 204.117 62.6371C204.453 62.3013 204.631 61.8864 204.631 61.4124C204.631 60.4445 203.86 59.6741 202.893 59.6741ZM204.335 64.7506H201.451V74.963H204.335V64.7506Z" fill="black"/>
<path d="M216.72 69.6296C216.72 68.0494 216.285 66.805 215.397 65.9161C214.508 65.0074 213.323 64.5531 211.841 64.5531C210.3 64.5531 209.056 65.0272 208.088 65.9951C207.12 66.9432 206.646 68.2272 206.646 69.8667C206.646 71.4864 207.12 72.7704 208.088 73.7383C209.056 74.7062 210.34 75.1803 211.92 75.1803C213.125 75.1803 214.152 74.8642 215.021 74.2519C215.91 73.6395 216.444 72.8296 216.621 71.8617L213.718 71.7235C213.5 72.4741 212.868 72.8494 211.841 72.8494C210.557 72.8494 209.767 72.0593 209.708 70.7753H216.72V69.6296ZM211.821 66.805C213.085 66.805 213.757 67.5753 213.816 68.8593H209.708C209.787 67.5753 210.577 66.805 211.821 66.805Z" fill="black"/>
<path d="M81.3934 60.576C79.7259 59.3645 77.6991 58.7496 75.6395 58.8305C73.5799 58.9115 71.6076 59.6834 70.0402 61.0221C68.4729 62.3607 67.4019 64.188 66.9998 66.2095C66.5977 68.2311 66.8879 70.3292 67.8236 72.1657C68.7594 74.0022 70.2862 75.4702 72.158 76.3331C74.0298 77.196 76.1377 77.4036 78.1419 76.9225C80.1461 76.4413 81.93 75.2994 83.206 73.6807C84.188 72.4351 84.8252 70.9631 85.0668 69.4115H82.5552C82.3412 70.4051 81.9028 71.3433 81.2659 72.1512C80.3334 73.3341 79.0298 74.1686 77.5652 74.5202C76.1006 74.8718 74.5602 74.7201 73.1923 74.0895C71.8245 73.4589 70.7087 72.3861 70.0249 71.0441C69.3411 69.702 69.129 68.1688 69.4229 66.6915C69.7167 65.2142 70.4994 63.8789 71.6447 62.9007C72.7901 61.9224 74.2314 61.3583 75.7365 61.2992C77.2416 61.24 78.7227 61.6893 79.9413 62.5747L78.2817 64.8589C77.5762 64.3464 76.7187 64.0862 75.8473 64.1205C74.976 64.1547 74.1415 64.4813 73.4784 65.0476C72.8153 65.614 72.3622 66.3871 72.1921 67.2423C72.022 68.0976 72.1447 68.9853 72.5406 69.7623C72.9365 70.5392 73.5825 71.1603 74.3744 71.5254C75.1663 71.8905 76.0581 71.9783 76.906 71.7747C77.754 71.5712 78.5087 71.0881 79.0486 70.4032C79.2873 70.1004 79.4779 69.7658 79.6162 69.4115H75.9997V66.588H88C88 66.588 87.9993 67.4867 87.9162 69.4115C87.833 71.3362 86.7987 73.684 85.4233 75.4287C83.7547 77.5454 81.4219 79.0387 78.801 79.6679C76.1801 80.2971 73.4237 80.0257 70.9759 78.8972C68.5282 77.7688 66.5316 75.8491 65.3079 73.4475C64.0842 71.0459 63.7047 68.3023 64.2306 65.6587C64.7564 63.0151 66.157 60.6256 68.2065 58.8751C70.2561 57.1246 72.8354 56.1151 75.5286 56.0093C78.2219 55.9034 80.8724 56.7075 83.053 58.2917L81.3934 60.576Z" fill="url(#paint0_linear_3188_35413)"/>
<path d="M72.36 663V652.08H78.64L83.6 663H89.2L83.64 651C87.08 649.6 88.92 646.8 88.92 642.88C88.92 637.12 85.04 633.76 78.4 633.76H67.24V663H72.36ZM72.36 638.32H78.4C81.64 638.32 83.56 639.96 83.56 642.88C83.56 645.84 81.64 647.56 78.4 647.56H72.36V638.32ZM100.751 663.52C105.911 663.52 109.511 660.92 110.351 656.6H105.831C105.271 658.48 103.511 659.52 100.831 659.52C97.5906 659.52 95.7506 657.76 95.3906 654.28L110.271 654.24V652.76C110.271 646.6 106.511 642.64 100.591 642.64C94.7906 642.64 90.7506 646.92 90.7506 653.12C90.7506 659.24 94.8706 663.52 100.751 663.52ZM100.631 646.64C103.551 646.64 105.431 648.44 105.431 651.16H95.5106C95.9906 648.2 97.7506 646.64 100.631 646.64ZM113.056 652.68C113.056 658.4 116.736 662.6 122.336 662.6C125.176 662.6 127.616 661.44 128.856 659.6V662.88C128.856 666.16 126.696 668.28 123.336 668.28C120.336 668.28 118.376 666.76 118.056 664.2H113.176C113.776 669.48 117.656 672.72 123.336 672.72C129.736 672.72 133.696 668.6 133.696 662V643.24H129.176L128.896 645.96C127.736 643.84 125.416 642.6 122.456 642.6C116.816 642.6 113.056 646.92 113.056 652.68ZM117.976 652.56C117.976 649.32 120.056 646.88 123.296 646.88C126.696 646.88 128.736 649.2 128.736 652.56C128.736 656 126.656 658.36 123.296 658.36C120.096 658.36 117.976 655.88 117.976 652.56ZM141.187 639.28C142.787 639.28 144.107 637.96 144.107 636.32C144.107 634.68 142.787 633.4 141.187 633.4C139.507 633.4 138.187 634.68 138.187 636.32C138.187 637.96 139.507 639.28 141.187 639.28ZM138.747 663H143.627V643.24H138.747V663ZM147.148 657C147.148 660.88 150.268 663.52 155.188 663.52C160.068 663.52 163.468 661.04 163.468 657.04C163.468 654 161.788 652.48 158.468 651.72L154.908 650.88C153.228 650.48 152.348 649.76 152.348 648.64C152.348 647.16 153.468 646.28 155.388 646.28C157.268 646.28 158.388 647.36 158.428 649.04H163.068C163.028 645.2 160.028 642.64 155.588 642.64C151.028 642.64 147.748 644.96 147.748 648.84C147.748 652 149.468 653.68 153.028 654.48L156.588 655.32C158.348 655.72 158.868 656.44 158.868 657.44C158.868 658.88 157.628 659.8 155.348 659.8C153.108 659.8 151.828 658.72 151.788 657H147.148ZM173.904 663V647.32H177.744V643.24H173.904V637.08H169.024V643.24H165.224V647.32H169.024V663H173.904ZM189.423 663.52C194.583 663.52 198.183 660.92 199.023 656.6H194.503C193.943 658.48 192.183 659.52 189.503 659.52C186.263 659.52 184.423 657.76 184.063 654.28L198.943 654.24V652.76C198.943 646.6 195.183 642.64 189.263 642.64C183.463 642.64 179.423 646.92 179.423 653.12C179.423 659.24 183.543 663.52 189.423 663.52ZM189.303 646.64C192.223 646.64 194.103 648.44 194.103 651.16H184.183C184.663 648.2 186.423 646.64 189.303 646.64ZM215.248 643.16C214.448 642.96 213.768 642.88 213.088 642.88C210.448 642.88 208.568 644.2 207.728 646.16L207.448 643.28H202.848V663H207.728V653.4C207.728 649.56 209.928 647.68 213.448 647.68H215.248V643.16ZM234.213 663V652.36C234.213 649.16 236.053 647.08 239.053 647.08C241.573 647.08 243.213 648.68 243.213 652V663H248.093V650.84C248.093 645.72 245.533 642.64 240.573 642.64C237.893 642.64 235.493 643.8 234.253 645.8L233.853 643.24H229.333V663H234.213ZM251.727 653.08C251.727 659.24 256.167 663.48 262.287 663.48C268.407 663.48 272.847 659.24 272.847 653.08C272.847 646.92 268.407 642.68 262.287 642.68C256.167 642.68 251.727 646.92 251.727 653.08ZM256.607 653.08C256.607 649.48 258.927 647.04 262.287 647.04C265.647 647.04 267.967 649.48 267.967 653.08C267.967 656.68 265.647 659.12 262.287 659.12C258.927 659.12 256.607 656.68 256.607 653.08ZM280.099 663H284.859L287.579 654.52C288.579 651.28 288.939 649.88 289.139 648.96C289.299 649.96 289.739 651.84 290.539 654.44L293.259 663H297.819L304.659 643.24H299.499L296.859 651.72C296.499 652.96 295.859 655.32 295.539 656.8C295.299 655.48 294.499 652.52 294.259 651.72L291.619 643.24H286.659L283.939 651.72C283.299 653.68 282.939 654.92 282.579 656.84C282.219 655 281.819 653.28 281.379 651.72L278.779 643.24H273.699L280.099 663ZM325.115 663V647.32H328.955V643.24H325.115V637.08H320.235V643.24H316.435V647.32H320.235V663H325.115ZM330.633 653.08C330.633 659.24 335.073 663.48 341.193 663.48C347.313 663.48 351.753 659.24 351.753 653.08C351.753 646.92 347.313 642.68 341.193 642.68C335.073 642.68 330.633 646.92 330.633 653.08ZM335.513 653.08C335.513 649.48 337.833 647.04 341.193 647.04C344.553 647.04 346.873 649.48 346.873 653.08C346.873 656.68 344.553 659.12 341.193 659.12C337.833 659.12 335.513 656.68 335.513 653.08ZM379.803 643.24V653.6C379.803 657.36 378.323 659.16 375.243 659.16C372.523 659.16 371.043 657.64 371.043 653.88V643.24H366.163V655.6C366.163 660.44 368.843 663.52 373.403 663.52C376.043 663.52 378.603 662.24 379.803 660.36L380.163 663H384.683V643.24H379.803ZM394.603 663V652.36C394.603 649.16 396.443 647.08 399.443 647.08C401.963 647.08 403.603 648.68 403.603 652V663H408.483V650.84C408.483 645.72 405.923 642.64 400.963 642.64C398.283 642.64 395.883 643.8 394.643 645.8L394.243 643.24H389.723V663H394.603ZM418.198 663V633.24H413.358V663H418.198ZM422.157 653.08C422.157 659.24 426.597 663.48 432.717 663.48C438.837 663.48 443.277 659.24 443.277 653.08C443.277 646.92 438.837 642.68 432.717 642.68C426.597 642.68 422.157 646.92 422.157 653.08ZM427.037 653.08C427.037 649.48 429.357 647.04 432.717 647.04C436.077 647.04 438.397 649.48 438.397 653.08C438.397 656.68 436.077 659.12 432.717 659.12C429.357 659.12 427.037 656.68 427.037 653.08ZM445.985 653.08C445.985 659.36 449.905 663.52 455.905 663.52C461.065 663.52 464.905 660.36 465.505 655.76H460.585C460.065 657.92 458.345 659.12 455.905 659.12C452.785 659.12 450.865 656.8 450.865 653.08C450.865 649.36 452.945 647 456.065 647C458.385 647 460.025 648.16 460.585 650.4H465.465C464.945 645.64 461.265 642.64 455.865 642.64C450.025 642.64 445.985 646.96 445.985 653.08ZM474.057 663V657.68L476.937 654.68L482.097 663H487.697L480.337 651.08L487.857 643.24H481.737L474.057 651.52V633.24H469.217V663H474.057ZM66.52 728.16H71.4V716.36C72.64 718.36 75.2 719.52 78.16 719.52C84.04 719.52 87.4 715.04 87.4 708.88C87.4 702.68 83.72 698.64 78.16 698.64C75.16 698.64 72.56 699.96 71.36 702.24L71.04 699.24H66.52V728.16ZM71.44 709.12C71.44 705.56 73.64 703.08 77 703.08C80.44 703.08 82.48 705.6 82.48 709.12C82.48 712.64 80.44 715.12 77 715.12C73.64 715.12 71.44 712.68 71.44 709.12ZM90.1256 709.08C90.1256 715.24 94.5656 719.48 100.686 719.48C106.806 719.48 111.246 715.24 111.246 709.08C111.246 702.92 106.806 698.68 100.686 698.68C94.5656 698.68 90.1256 702.92 90.1256 709.08ZM95.0056 709.08C95.0056 705.48 97.3256 703.04 100.686 703.04C104.046 703.04 106.366 705.48 106.366 709.08C106.366 712.68 104.046 715.12 100.686 715.12C97.3256 715.12 95.0056 712.68 95.0056 709.08ZM113.594 713C113.594 716.88 116.714 719.52 121.634 719.52C126.514 719.52 129.914 717.04 129.914 713.04C129.914 710 128.234 708.48 124.914 707.72L121.354 706.88C119.674 706.48 118.794 705.76 118.794 704.64C118.794 703.16 119.914 702.28 121.834 702.28C123.714 702.28 124.834 703.36 124.874 705.04H129.514C129.474 701.2 126.474 698.64 122.034 698.64C117.474 698.64 114.194 700.96 114.194 704.84C114.194 708 115.914 709.68 119.474 710.48L123.034 711.32C124.794 711.72 125.314 712.44 125.314 713.44C125.314 714.88 124.074 715.8 121.794 715.8C119.554 715.8 118.274 714.72 118.234 713H113.594ZM132.109 713C132.109 716.88 135.229 719.52 140.149 719.52C145.029 719.52 148.429 717.04 148.429 713.04C148.429 710 146.749 708.48 143.429 707.72L139.869 706.88C138.189 706.48 137.309 705.76 137.309 704.64C137.309 703.16 138.429 702.28 140.349 702.28C142.229 702.28 143.349 703.36 143.389 705.04H148.029C147.989 701.2 144.989 698.64 140.549 698.64C135.989 698.64 132.709 700.96 132.709 704.84C132.709 708 134.429 709.68 137.989 710.48L141.549 711.32C143.309 711.72 143.829 712.44 143.829 713.44C143.829 714.88 142.589 715.8 140.309 715.8C138.069 715.8 136.789 714.72 136.749 713H132.109ZM154.585 695.28C156.185 695.28 157.505 693.96 157.505 692.32C157.505 690.68 156.185 689.4 154.585 689.4C152.905 689.4 151.585 690.68 151.585 692.32C151.585 693.96 152.905 695.28 154.585 695.28ZM152.145 719H157.025V699.24H152.145V719ZM166.587 719L166.907 715.92C168.067 718.2 170.587 719.52 173.547 719.52C179.227 719.52 182.947 715.32 182.947 709.24C182.947 703 179.507 698.6 173.867 698.6C170.867 698.6 168.227 699.92 166.947 702.12V689.24H162.067V719H166.587ZM166.987 709.04C166.987 705.48 169.187 703 172.547 703C175.987 703 178.027 705.52 178.027 709.04C178.027 712.56 175.987 715.04 172.547 715.04C169.187 715.04 166.987 712.6 166.987 709.04ZM189.273 695.28C190.873 695.28 192.193 693.96 192.193 692.32C192.193 690.68 190.873 689.4 189.273 689.4C187.593 689.4 186.273 690.68 186.273 692.32C186.273 693.96 187.593 695.28 189.273 695.28ZM186.833 719H191.713V699.24H186.833V719ZM201.674 719V689.24H196.834V719H201.674ZM209.233 695.28C210.833 695.28 212.153 693.96 212.153 692.32C212.153 690.68 210.833 689.4 209.233 689.4C207.553 689.4 206.233 690.68 206.233 692.32C206.233 693.96 207.553 695.28 209.233 695.28ZM206.793 719H211.673V699.24H206.793V719ZM223.435 719V703.32H227.275V699.24H223.435V693.08H218.555V699.24H214.755V703.32H218.555V719H223.435ZM232.749 695.28C234.349 695.28 235.669 693.96 235.669 692.32C235.669 690.68 234.349 689.4 232.749 689.4C231.069 689.4 229.749 690.68 229.749 692.32C229.749 693.96 231.069 695.28 232.749 695.28ZM230.309 719H235.189V699.24H230.309V719ZM249.071 719.52C254.231 719.52 257.831 716.92 258.671 712.6H254.151C253.591 714.48 251.831 715.52 249.151 715.52C245.911 715.52 244.071 713.76 243.711 710.28L258.591 710.24V708.76C258.591 702.6 254.831 698.64 248.911 698.64C243.111 698.64 239.071 702.92 239.071 709.12C239.071 715.24 243.191 719.52 249.071 719.52ZM248.951 702.64C251.871 702.64 253.751 704.44 253.751 707.16H243.831C244.311 704.2 246.071 702.64 248.951 702.64ZM260.977 713C260.977 716.88 264.097 719.52 269.017 719.52C273.897 719.52 277.297 717.04 277.297 713.04C277.297 710 275.617 708.48 272.297 707.72L268.737 706.88C267.057 706.48 266.177 705.76 266.177 704.64C266.177 703.16 267.297 702.28 269.217 702.28C271.097 702.28 272.217 703.36 272.257 705.04H276.897C276.857 701.2 273.857 698.64 269.417 698.64C264.857 698.64 261.577 700.96 261.577 704.84C261.577 708 263.297 709.68 266.857 710.48L270.417 711.32C272.177 711.72 272.697 712.44 272.697 713.44C272.697 714.88 271.457 715.8 269.177 715.8C266.937 715.8 265.657 714.72 265.617 713H260.977ZM290.633 709.08C290.633 715.24 295.073 719.48 301.193 719.48C307.313 719.48 311.753 715.24 311.753 709.08C311.753 702.92 307.313 698.68 301.193 698.68C295.073 698.68 290.633 702.92 290.633 709.08ZM295.513 709.08C295.513 705.48 297.833 703.04 301.193 703.04C304.553 703.04 306.873 705.48 306.873 709.08C306.873 712.68 304.553 715.12 301.193 715.12C297.833 715.12 295.513 712.68 295.513 709.08ZM313.583 699.24V703.32H316.423V719H321.263V703.32H325.983V699.24H321.263V696.84C321.263 694.88 321.863 693.6 324.343 693.6H326.063V689.44C325.223 689.28 324.303 689.24 323.543 689.24C319.263 689.24 316.423 691.48 316.423 696.84V699.24H313.583ZM338.719 709.08C338.719 715.36 342.639 719.52 348.639 719.52C353.799 719.52 357.639 716.36 358.239 711.76H353.319C352.799 713.92 351.079 715.12 348.639 715.12C345.519 715.12 343.599 712.8 343.599 709.08C343.599 705.36 345.679 703 348.799 703C351.119 703 352.759 704.16 353.319 706.4H358.199C357.679 701.64 353.999 698.64 348.599 698.64C342.759 698.64 338.719 702.96 338.719 709.08ZM374.272 699.16C373.472 698.96 372.792 698.88 372.112 698.88C369.472 698.88 367.592 700.2 366.752 702.16L366.472 699.28H361.872V719H366.752V709.4C366.752 705.56 368.952 703.68 372.472 703.68H374.272V699.16ZM376.441 728.16C377.521 728.44 378.721 728.6 380.081 728.6C383.321 728.6 385.401 727.08 386.881 723.4L396.561 699.24H391.521L386.161 713.64L381.081 699.24H375.921L383.881 719.84L383.321 721.32C382.481 723.64 381.281 724.08 379.361 724.08H376.441V728.16ZM399.333 728.16H404.213V716.36C405.453 718.36 408.013 719.52 410.973 719.52C416.853 719.52 420.213 715.04 420.213 708.88C420.213 702.68 416.533 698.64 410.973 698.64C407.973 698.64 405.373 699.96 404.173 702.24L403.853 699.24H399.333V728.16ZM404.253 709.12C404.253 705.56 406.453 703.08 409.813 703.08C413.253 703.08 415.293 705.6 415.293 709.12C415.293 712.64 413.253 715.12 409.813 715.12C406.453 715.12 404.253 712.68 404.253 709.12ZM430.623 719V703.32H434.463V699.24H430.623V693.08H425.743V699.24H421.943V703.32H425.743V719H430.623ZM436.141 709.08C436.141 715.24 440.581 719.48 446.701 719.48C452.821 719.48 457.261 715.24 457.261 709.08C457.261 702.92 452.821 698.68 446.701 698.68C440.581 698.68 436.141 702.92 436.141 709.08ZM441.021 709.08C441.021 705.48 443.341 703.04 446.701 703.04C450.061 703.04 452.381 705.48 452.381 709.08C452.381 712.68 450.061 715.12 446.701 715.12C443.341 715.12 441.021 712.68 441.021 709.08ZM66.52 784.16H71.4V772.36C72.64 774.36 75.2 775.52 78.16 775.52C84.04 775.52 87.4 771.04 87.4 764.88C87.4 758.68 83.72 754.64 78.16 754.64C75.16 754.64 72.56 755.96 71.36 758.24L71.04 755.24H66.52V784.16ZM71.44 765.12C71.44 761.56 73.64 759.08 77 759.08C80.44 759.08 82.48 761.6 82.48 765.12C82.48 768.64 80.44 771.12 77 771.12C73.64 771.12 71.44 768.68 71.44 765.12ZM103.686 755.16C102.886 754.96 102.206 754.88 101.526 754.88C98.8856 754.88 97.0056 756.2 96.1656 758.16L95.8856 755.28H91.2856V775H96.1656V765.4C96.1656 761.56 98.3656 759.68 101.886 759.68H103.686V755.16ZM115.165 775.52C120.325 775.52 123.925 772.92 124.765 768.6H120.245C119.685 770.48 117.925 771.52 115.245 771.52C112.005 771.52 110.165 769.76 109.805 766.28L124.685 766.24V764.76C124.685 758.6 120.925 754.64 115.005 754.64C109.205 754.64 105.165 758.92 105.165 765.12C105.165 771.24 109.285 775.52 115.165 775.52ZM115.045 758.64C117.965 758.64 119.845 760.44 119.845 763.16H109.925C110.405 760.2 112.165 758.64 115.045 758.64ZM136.71 775.52C139.71 775.52 142.27 774.2 143.47 771.92L143.79 775H148.27V745.24H143.43V757.76C142.19 755.8 139.75 754.64 136.99 754.64C131.03 754.64 127.43 759.04 127.43 765.2C127.43 771.32 130.99 775.52 136.71 775.52ZM137.79 771.04C134.39 771.04 132.31 768.56 132.31 765.04C132.31 761.52 134.39 759 137.79 759C141.19 759 143.39 761.48 143.39 765.04C143.39 768.6 141.19 771.04 137.79 771.04ZM155.796 751.28C157.396 751.28 158.716 749.96 158.716 748.32C158.716 746.68 157.396 745.4 155.796 745.4C154.116 745.4 152.796 746.68 152.796 748.32C152.796 749.96 154.116 751.28 155.796 751.28ZM153.356 775H158.236V755.24H153.356V775ZM162.118 765.08C162.118 771.36 166.038 775.52 172.038 775.52C177.198 775.52 181.038 772.36 181.638 767.76H176.718C176.198 769.92 174.478 771.12 172.038 771.12C168.918 771.12 166.998 768.8 166.998 765.08C166.998 761.36 169.078 759 172.198 759C174.518 759 176.158 760.16 176.718 762.4H181.598C181.078 757.64 177.398 754.64 171.998 754.64C166.158 754.64 162.118 758.96 162.118 765.08ZM191.99 775V759.32H195.83V755.24H191.99V749.08H187.11V755.24H183.31V759.32H187.11V775H191.99ZM201.304 751.28C202.904 751.28 204.224 749.96 204.224 748.32C204.224 746.68 202.904 745.4 201.304 745.4C199.624 745.4 198.304 746.68 198.304 748.32C198.304 749.96 199.624 751.28 201.304 751.28ZM198.864 775H203.744V755.24H198.864V775ZM207.626 765.08C207.626 771.24 212.066 775.48 218.186 775.48C224.306 775.48 228.746 771.24 228.746 765.08C228.746 758.92 224.306 754.68 218.186 754.68C212.066 754.68 207.626 758.92 207.626 765.08ZM212.506 765.08C212.506 761.48 214.826 759.04 218.186 759.04C221.546 759.04 223.866 761.48 223.866 765.08C223.866 768.68 221.546 771.12 218.186 771.12C214.826 771.12 212.506 768.68 212.506 765.08ZM237.494 775V764.36C237.494 761.16 239.334 759.08 242.334 759.08C244.854 759.08 246.494 760.68 246.494 764V775H251.374V762.84C251.374 757.72 248.814 754.64 243.854 754.64C241.174 754.64 238.774 755.8 237.534 757.8L237.134 755.24H232.614V775H237.494ZM254.414 769C254.414 772.88 257.534 775.52 262.454 775.52C267.334 775.52 270.734 773.04 270.734 769.04C270.734 766 269.054 764.48 265.734 763.72L262.174 762.88C260.494 762.48 259.614 761.76 259.614 760.64C259.614 759.16 260.734 758.28 262.654 758.28C264.534 758.28 265.654 759.36 265.694 761.04H270.334C270.294 757.2 267.294 754.64 262.854 754.64C258.294 754.64 255.014 756.96 255.014 760.84C255.014 764 256.734 765.68 260.294 766.48L263.854 767.32C265.614 767.72 266.134 768.44 266.134 769.44C266.134 770.88 264.894 771.8 262.614 771.8C260.374 771.8 259.094 770.72 259.054 769H254.414Z" fill="white"/>
</g>
<defs>
<linearGradient id="paint0_linear_3188_35413" x1="71.2542" y1="57.3393" x2="78.1373" y2="79.9815" gradientUnits="userSpaceOnUse">
<stop stop-color="#6B38FD"/>
<stop offset="1" stop-color="#1302DE"/>
</linearGradient>
<clipPath id="clip0_3188_35413">
<rect width="640" height="900" fill="white"/>
</clipPath>
</defs>
</svg>
