<?xml version="1.0" encoding="utf-8"?>
<!-- Generator: Adobe Illustrator 16.0.0, SVG Export Plug-In . SVG Version: 6.00 Build 0)  -->
<!DOCTYPE svg PUBLIC "-//W3C//DTD SVG 1.1//EN" "http://www.w3.org/Graphics/SVG/1.1/DTD/svg11.dtd">
<svg version="1.1" id="Layer_1" xmlns="http://www.w3.org/2000/svg" xmlns:xlink="http://www.w3.org/1999/xlink" x="0px" y="0px"
	 width="225px" height="225px" viewBox="0 0 225 225" enable-background="new 0 0 225 225" xml:space="preserve">
<g transform="translate(0.000000,225.000000) scale(0.100000,-0.100000)">
</g>
<path fill="#F3BB26" d="M213.615,98.105c-0.403-0.593-0.684-2.002-0.845-4.254c-0.164-2.287-0.423-3.575-0.805-4.013
	c-0.335-0.384-0.656-1.659-0.792-3.15c-0.158-1.722-0.403-2.602-0.785-2.815c-0.347-0.194-0.646-1.07-0.801-2.345
	c-0.153-1.273-0.495-2.272-0.911-2.669c-0.39-0.372-0.664-1.123-0.664-1.813c0-0.648-0.306-1.568-0.68-2.043
	c-0.375-0.476-0.79-1.444-0.923-2.152s-0.544-1.562-0.916-1.897c-0.37-0.335-0.673-1.039-0.673-1.564
	c0-0.524-0.318-1.242-0.709-1.595c-0.391-0.353-0.709-0.988-0.709-1.411c0-0.424-0.399-1.144-0.887-1.603s-0.886-1.209-0.886-1.668
	s-0.227-0.922-0.504-1.028c-0.278-0.106-0.755-0.82-1.062-1.585c-0.306-0.765-0.717-1.391-0.914-1.391s-0.357-0.217-0.357-0.483
	c0-0.266-0.479-1.084-1.063-1.821c-0.585-0.737-1.063-1.556-1.063-1.822c0-0.266-0.166-0.483-0.367-0.483
	c-0.2,0-0.467-0.279-0.591-0.621c-0.124-0.341-0.997-1.519-1.939-2.618c-0.94-1.099-1.712-2.171-1.712-2.381
	c0-0.211-0.319-0.554-0.709-0.763c-0.391-0.208-0.71-0.606-0.71-0.886c0-0.279-0.318-0.678-0.708-0.886
	c-0.391-0.208-0.709-0.526-0.709-0.707c0-0.427-8.438-8.865-8.865-8.865c-0.181,0-0.498-0.319-0.707-0.709
	c-0.209-0.391-0.606-0.709-0.887-0.709c-0.279,0-0.678-0.319-0.886-0.708c-0.209-0.39-0.552-0.709-0.763-0.709
	c-0.21,0-1.303-0.798-2.429-1.773c-1.125-0.975-2.229-1.772-2.452-1.772s-0.498-0.239-0.61-0.531
	c-0.112-0.292-0.405-0.532-0.649-0.532s-1.047-0.479-1.782-1.063c-0.737-0.584-1.557-1.063-1.821-1.063
	c-0.267,0-0.484-0.158-0.484-0.35s-0.518-0.566-1.151-0.831c-0.634-0.266-1.371-0.746-1.64-1.068
	c-0.267-0.323-0.838-0.587-1.268-0.587c-0.429,0-1.155-0.399-1.613-0.886s-1.179-0.886-1.603-0.886
	c-0.423,0-1.058-0.319-1.411-0.709c-0.353-0.39-1.07-0.709-1.595-0.709c-0.525,0-1.229-0.303-1.564-0.673
	c-0.336-0.372-1.189-0.783-1.897-0.916s-1.675-0.547-2.151-0.922c-0.475-0.374-1.396-0.68-2.043-0.68
	c-0.691,0-1.441-0.274-1.813-0.665c-0.396-0.415-1.396-0.757-2.67-0.911c-1.273-0.155-2.15-0.454-2.346-0.801
	c-0.213-0.381-1.092-0.626-2.814-0.785c-1.487-0.136-2.766-0.458-3.149-0.792c-0.44-0.382-1.708-0.632-3.987-0.786
	c-2.299-0.155-3.628-0.419-4.255-0.846c-0.898-0.611-26.461-1.1-28.549-0.546c-0.382,0.102-1.032,0.405-1.444,0.676
	c-0.42,0.275-2.215,0.589-4.092,0.716c-2.28,0.153-3.547,0.403-3.987,0.786c-0.383,0.333-1.663,0.655-3.15,0.792
	c-1.722,0.158-2.601,0.403-2.814,0.785c-0.194,0.347-1.071,0.646-2.345,0.801c-1.274,0.154-2.272,0.496-2.67,0.911
	c-0.371,0.391-1.122,0.665-1.813,0.665c-0.648,0-1.568,0.306-2.043,0.68c-0.476,0.375-1.443,0.789-2.151,0.922
	s-1.562,0.544-1.898,0.916c-0.335,0.37-1.039,0.673-1.563,0.673c-0.524,0-1.243,0.319-1.595,0.709s-0.988,0.709-1.411,0.709
	c-0.424,0-1.145,0.399-1.603,0.886c-0.458,0.487-1.184,0.886-1.614,0.886c-0.429,0-1,0.264-1.267,0.587
	c-0.268,0.323-1.005,0.803-1.639,1.068c-0.633,0.265-1.152,0.639-1.152,0.831s-0.217,0.35-0.483,0.35
	c-0.266,0-1.084,0.479-1.821,1.063c-0.736,0.585-1.555,1.063-1.821,1.063s-0.483,0.165-0.483,0.366c0,0.201-0.279,0.467-0.62,0.591
	c-0.341,0.125-1.519,0.997-2.618,1.939c-1.099,0.941-2.171,1.712-2.38,1.712c-0.211,0-0.554,0.319-0.763,0.709
	c-0.208,0.39-0.607,0.708-0.886,0.708s-0.678,0.319-0.886,0.709c-0.208,0.39-0.526,0.709-0.708,0.709
	c-0.427,0-8.865,8.438-8.865,8.865c0,0.181-0.319,0.499-0.709,0.707c-0.39,0.208-0.709,0.607-0.709,0.886
	c0,0.28-0.319,0.678-0.709,0.886c-0.39,0.209-0.709,0.552-0.709,0.763c0,0.21-0.771,1.282-1.712,2.381
	c-0.942,1.099-1.814,2.277-1.939,2.618c-0.125,0.341-0.392,0.621-0.591,0.621c-0.201,0-0.366,0.217-0.366,0.483
	c0,0.266-0.479,1.085-1.063,1.822c-0.585,0.736-1.063,1.555-1.063,1.821c0,0.266-0.161,0.483-0.357,0.483s-0.608,0.626-0.914,1.391
	c-0.307,0.765-0.784,1.479-1.061,1.585c-0.278,0.106-0.504,0.569-0.504,1.028s-0.399,1.21-0.886,1.668s-0.886,1.179-0.886,1.603
	c0,0.422-0.319,1.058-0.709,1.411c-0.391,0.353-0.709,1.071-0.709,1.595c0,0.525-0.303,1.229-0.673,1.564
	c-0.371,0.335-0.783,1.189-0.916,1.897s-0.548,1.676-0.922,2.152c-0.374,0.475-0.68,1.395-0.68,2.043
	c0,0.691-0.274,1.442-0.665,1.813c-0.416,0.397-0.757,1.396-0.911,2.669c-0.155,1.275-0.454,2.151-0.801,2.345
	c-0.381,0.213-0.627,1.093-0.785,2.815c-0.136,1.487-0.458,2.767-0.792,3.15c-0.383,0.441-0.633,1.708-0.786,3.988
	c-0.155,2.298-0.419,3.627-0.846,4.254c-0.947,1.395-0.947,28.438,0,29.832c0.426,0.626,0.69,1.956,0.846,4.254
	c0.153,2.279,0.403,3.547,0.786,3.987c0.333,0.384,0.655,1.663,0.792,3.149c0.158,1.723,0.403,2.603,0.785,2.815
	c0.347,0.194,0.646,1.071,0.801,2.346c0.154,1.273,0.496,2.272,0.911,2.669c0.391,0.372,0.665,1.122,0.665,1.814
	c0,0.647,0.306,1.567,0.68,2.042c0.374,0.477,0.789,1.444,0.922,2.152s0.544,1.562,0.916,1.896c0.371,0.336,0.673,1.039,0.673,1.564
	c0,0.524,0.319,1.242,0.709,1.596c0.39,0.353,0.709,0.988,0.709,1.41c0,0.425,0.399,1.145,0.886,1.604
	c0.487,0.458,0.886,1.208,0.886,1.668c0,0.459,0.227,0.922,0.504,1.028c0.277,0.106,0.754,0.82,1.061,1.584
	c0.305,0.766,0.717,1.392,0.914,1.392s0.357,0.217,0.357,0.483c0,0.265,0.479,1.084,1.063,1.821
	c0.585,0.735,1.063,1.555,1.063,1.821c0,0.266,0.165,0.482,0.366,0.482c0.2,0,0.467,0.279,0.591,0.621
	c0.125,0.341,0.997,1.519,1.939,2.618c0.941,1.099,1.712,2.171,1.712,2.38c0,0.211,0.319,0.554,0.709,0.763s0.709,0.606,0.709,0.887
	c0,0.279,0.319,0.678,0.709,0.886c0.39,0.209,0.709,0.526,0.709,0.707c0,0.428,8.438,8.865,8.865,8.865
	c0.181,0,0.499,0.318,0.708,0.709c0.208,0.39,0.557,0.709,0.773,0.709s0.729,0.325,1.14,0.724c1.438,1.392,5.15,4.24,5.528,4.24
	c0.21,0,0.474,0.239,0.585,0.531c0.113,0.292,0.405,0.532,0.65,0.532c0.244,0,1.047,0.478,1.783,1.063
	c0.737,0.585,1.556,1.064,1.821,1.064c0.266,0,0.483,0.16,0.483,0.357c0,0.196,0.625,0.607,1.39,0.914
	c0.765,0.306,1.479,0.783,1.585,1.06c0.106,0.278,0.569,0.505,1.029,0.505c0.459,0,1.21,0.399,1.668,0.887
	c0.458,0.487,1.179,0.886,1.603,0.886c0.422,0,1.058,0.319,1.411,0.709c0.353,0.391,1.071,0.709,1.595,0.709
	c0.525,0,1.229,0.304,1.563,0.674c0.336,0.372,1.19,0.783,1.898,0.915c0.708,0.134,1.676,0.548,2.151,0.922
	c0.476,0.375,1.396,0.681,2.043,0.681c0.691,0,1.442,0.274,1.813,0.664c0.397,0.416,1.396,0.757,2.67,0.911
	c1.274,0.155,2.151,0.454,2.345,0.802c0.211,0.377,1.088,0.628,2.751,0.785c1.343,0.127,2.84,0.486,3.327,0.797
	c0.545,0.347,2.11,0.653,4.063,0.794c2.116,0.15,3.477,0.43,4.077,0.838c1.383,0.942,28.434,0.936,29.819-0.007
	c0.627-0.427,1.956-0.69,4.255-0.846c2.279-0.153,3.547-0.403,3.987-0.785c0.384-0.334,1.662-0.655,3.149-0.792
	c1.723-0.158,2.602-0.403,2.814-0.784c0.195-0.348,1.072-0.646,2.346-0.802c1.274-0.154,2.273-0.495,2.67-0.911
	c0.372-0.39,1.122-0.664,1.813-0.664c0.647,0,1.568-0.306,2.043-0.681c0.477-0.374,1.443-0.788,2.151-0.922
	c0.708-0.132,1.562-0.543,1.897-0.915c0.336-0.37,1.039-0.674,1.564-0.674c0.524,0,1.242-0.318,1.595-0.709
	c0.354-0.39,0.988-0.709,1.411-0.709c0.424,0,1.145-0.398,1.603-0.886s1.185-0.887,1.613-0.887c0.43,0,1.001-0.264,1.268-0.587
	c0.269-0.322,1.006-0.803,1.64-1.068c0.634-0.265,1.151-0.639,1.151-0.83c0-0.192,0.218-0.351,0.484-0.351
	c0.265,0,1.084-0.479,1.821-1.064c0.735-0.585,1.538-1.063,1.782-1.063s0.537-0.24,0.649-0.532s0.387-0.531,0.61-0.531
	s1.327-0.799,2.452-1.773c1.126-0.975,2.219-1.772,2.429-1.772c0.211,0,0.554-0.319,0.763-0.709c0.208-0.39,0.606-0.709,0.886-0.709
	c0.28,0,0.678-0.319,0.887-0.709c0.209-0.391,0.526-0.709,0.707-0.709c0.18,0,2.249-1.921,4.596-4.269
	c2.349-2.348,4.27-4.416,4.27-4.597s0.318-0.498,0.709-0.707c0.39-0.208,0.708-0.557,0.708-0.772c0-0.217,0.326-0.729,0.724-1.141
	c1.258-1.298,4.096-4.976,4.339-5.62c0.129-0.342,0.398-0.621,0.599-0.621c0.201,0,0.367-0.217,0.367-0.482
	c0-0.267,0.478-1.086,1.063-1.821c0.585-0.737,1.063-1.557,1.063-1.821c0-0.267,0.16-0.483,0.357-0.483s0.608-0.626,0.914-1.392
	c0.307-0.764,0.783-1.478,1.062-1.584c0.277-0.106,0.504-0.569,0.504-1.028c0-0.46,0.398-1.21,0.886-1.668
	c0.487-0.459,0.887-1.179,0.887-1.604c0-0.422,0.318-1.058,0.709-1.41c0.391-0.354,0.709-1.071,0.709-1.596
	c0-0.525,0.303-1.229,0.673-1.564c0.372-0.335,0.783-1.188,0.916-1.896s0.548-1.676,0.923-2.152c0.374-0.475,0.68-1.395,0.68-2.042
	c0-0.692,0.274-1.442,0.664-1.814c0.416-0.396,0.758-1.396,0.911-2.669c0.154-1.274,0.454-2.151,0.801-2.346
	c0.382-0.213,0.627-1.093,0.785-2.815c0.136-1.49,0.457-2.766,0.792-3.149c0.382-0.438,0.641-1.727,0.805-4.014
	c0.161-2.252,0.441-3.661,0.845-4.254C214.53,126.535,214.53,99.455,213.615,98.105z M69.748,83.569
	c0.188,0,9.875-9.56,21.531-21.245c11.654-11.684,21.394-21.256,21.645-21.271c0.251-0.014,10.025,9.545,21.72,21.245
	c11.695,11.7,21.417,21.271,21.606,21.271c1.058,0,0.846,3.23-0.242,3.708c-0.427,0.188-0.852,0.626-0.942,0.975
	c-0.091,0.349-0.394,0.634-0.673,0.634c-0.281,0-0.691,0.399-0.913,0.886c-0.222,0.488-0.628,0.886-0.902,0.886
	c-0.273,0-0.581,0.319-0.683,0.709c-0.102,0.39-0.429,0.709-0.727,0.709s-0.64,0.311-0.761,0.691
	c-0.12,0.379-0.513,0.783-0.871,0.897c-0.358,0.113-0.734,0.521-0.835,0.904c-0.102,0.384-0.437,0.697-0.748,0.697
	c-0.311,0-0.564,0.243-0.564,0.54c0,0.296-0.386,0.714-0.856,0.929c-0.471,0.214-0.935,0.69-1.031,1.056
	c-0.096,0.366-0.428,0.666-0.738,0.666c-0.312,0-0.564,0.165-0.564,0.366c0,0.735-2.462,2.825-3.328,2.825
	c-1.096,0-1.99-0.336-1.99-0.748c0-0.173-5.823-6.143-12.94-13.263L113,74.691L100.06,87.64c-7.117,7.12-12.94,13.09-12.94,13.263
	c0,1.113-3.116,0.99-3.545-0.139c-0.186-0.488-0.57-0.886-0.854-0.886c-0.285,0-0.615-0.312-0.737-0.692
	c-0.12-0.379-0.512-0.783-0.871-0.897c-0.359-0.114-0.735-0.521-0.835-0.904c-0.101-0.384-0.426-0.698-0.724-0.698
	c-0.297,0-0.642-0.319-0.766-0.709c-0.125-0.39-0.469-0.709-0.766-0.709c-0.298,0-0.623-0.313-0.725-0.697
	c-0.1-0.383-0.476-0.791-0.835-0.904c-0.358-0.114-0.75-0.519-0.871-0.897c-0.121-0.38-0.463-0.691-0.76-0.691
	c-0.298,0-0.623-0.314-0.724-0.698c-0.1-0.382-0.467-0.787-0.814-0.897s-0.714-0.515-0.814-0.898
	c-0.101-0.384-0.427-0.698-0.724-0.698c-0.297,0-0.63-0.281-0.738-0.624c-0.109-0.343-0.559-0.782-0.999-0.975
	C68.909,86.803,68.675,83.569,69.748,83.569z M130.017,112.995c0,0.403-2.397,2.836-2.795,2.836c-0.218,0-0.396,0.254-0.396,0.564
	s-0.3,0.644-0.665,0.739c-0.367,0.096-0.843,0.561-1.057,1.031c-0.215,0.471-0.615,0.855-0.89,0.855
	c-0.273,0-0.58,0.319-0.683,0.709c-0.102,0.391-0.429,0.71-0.726,0.71c-0.298,0-0.64,0.311-0.762,0.69
	c-0.12,0.379-0.512,0.784-0.871,0.898c-0.358,0.112-0.734,0.521-0.834,0.904c-0.102,0.384-0.438,0.697-0.748,0.697
	s-0.565,0.242-0.565,0.54c0,0.296-0.385,0.714-0.856,0.929c-0.471,0.214-0.935,0.689-1.03,1.057
	c-0.097,0.365-0.429,0.665-0.739,0.665s-0.564,0.178-0.564,0.396c0,0.315-2.395,2.796-2.699,2.796c-0.476,0-1.201-0.524-1.201-0.868
	c0-0.24-0.399-0.618-0.886-0.84c-0.487-0.224-0.887-0.647-0.887-0.943c0-0.297-0.254-0.54-0.564-0.54
	c-0.312,0-0.644-0.3-0.739-0.665c-0.096-0.367-0.561-0.843-1.031-1.057c-0.471-0.215-0.856-0.633-0.856-0.929
	c0-0.298-0.254-0.54-0.564-0.54c-0.311,0-0.647-0.313-0.749-0.697c-0.1-0.383-0.476-0.792-0.834-0.904
	c-0.359-0.114-0.75-0.52-0.871-0.898c-0.122-0.38-0.464-0.69-0.761-0.69c-0.297,0-0.623-0.314-0.724-0.697s-0.476-0.792-0.835-0.905
	c-0.359-0.114-0.745-0.501-0.859-0.859c-0.113-0.359-0.521-0.734-0.904-0.834c-0.384-0.103-0.697-0.438-0.697-0.749
	s-0.243-0.564-0.54-0.564c-0.296,0-0.72-0.398-0.943-0.886c-0.222-0.487-0.618-0.887-0.878-0.887c-0.261,0-0.475-0.066-0.475-0.147
	c0-0.082-0.083-0.366-0.186-0.632c-0.201-0.525,1.982-3.121,2.626-3.121c0.217,0,0.396-0.254,0.396-0.564
	c0-0.311,0.299-0.644,0.666-0.739s0.842-0.56,1.056-1.031c0.215-0.471,0.633-0.856,0.929-0.856c0.297,0,0.54-0.254,0.54-0.565
	c0-0.311,0.314-0.647,0.698-0.748c0.383-0.1,0.791-0.476,0.904-0.835c0.114-0.358,0.518-0.75,0.897-0.871
	c0.38-0.121,0.691-0.463,0.691-0.76c0-0.298,0.319-0.625,0.709-0.727c0.39-0.102,0.709-0.41,0.709-0.684
	c0-0.274,0.399-0.68,0.887-0.902c0.487-0.221,0.886-0.632,0.886-0.912c0-0.279,0.319-0.591,0.709-0.693
	c0.39-0.102,0.708-0.345,0.708-0.54c0-0.368,2.457-2.754,2.836-2.754c0.119,0,0.806,0.54,1.527,1.2c0.72,0.66,1.31,1.36,1.31,1.554
	c0,0.195,0.319,0.438,0.709,0.54c0.39,0.102,0.709,0.414,0.709,0.693c0,0.28,0.398,0.691,0.886,0.912
	c0.487,0.223,0.887,0.647,0.887,0.943c0,0.297,0.255,0.54,0.565,0.54s0.646,0.313,0.748,0.697c0.1,0.383,0.476,0.791,0.834,0.904
	c0.359,0.114,0.751,0.519,0.871,0.897c0.122,0.38,0.464,0.692,0.762,0.692c0.297,0,0.624,0.319,0.726,0.708
	c0.103,0.39,0.409,0.709,0.683,0.709c0.274,0,0.681,0.398,0.903,0.886c0.222,0.487,0.633,0.886,0.912,0.886s0.591,0.319,0.693,0.709
	s0.345,0.709,0.539,0.709C127.631,110.159,130.017,112.616,130.017,112.995z M66.383,121.326c-4.577,4.583-8.482,8.331-8.678,8.331
	c-0.481,0-16.674-16.182-16.674-16.662c0-0.522,16.021-16.593,16.58-16.632c0.248-0.017,4.195,3.718,8.772,8.3l8.322,8.332
	L66.383,121.326z M156.25,142.421c-0.189,0-9.911,9.571-21.606,21.271c-11.695,11.699-21.433,21.271-21.64,21.271
	c-0.207,0-9.946-9.572-21.646-21.271c-11.698-11.7-21.423-21.271-21.61-21.271c-1.071,0-0.84-3.233,0.266-3.719
	c0.439-0.192,0.797-0.565,0.797-0.83s0.3-0.559,0.666-0.655c0.366-0.096,0.842-0.56,1.057-1.03c0.215-0.472,0.633-0.856,0.929-0.856
	c0.297,0,0.54-0.254,0.54-0.565c0-0.311,0.314-0.646,0.698-0.747c0.382-0.101,0.791-0.477,0.904-0.835
	c0.114-0.359,0.519-0.751,0.897-0.871c0.381-0.121,0.692-0.464,0.692-0.761c0-0.298,0.319-0.625,0.709-0.727
	c0.39-0.103,0.709-0.409,0.709-0.683c0-0.274,0.399-0.681,0.886-0.903c0.487-0.222,0.887-0.622,0.887-0.89s0.279-0.589,0.62-0.714
	c0.341-0.127,0.729-0.393,0.861-0.591c1.582-2.369,3.019-3.131,4.693-2.489c0.308,0.118,0.561,0.357,0.561,0.532
	c0,0.174,5.823,6.144,12.94,13.263L113,151.299l12.94-12.949c7.117-7.119,12.94-13.089,12.94-13.263c0-0.411,0.895-0.747,1.99-0.747
	c0.841,0,3.328,2.08,3.328,2.782c0,0.181,0.319,0.409,0.709,0.511c0.389,0.103,0.708,0.414,0.708,0.693
	c0,0.28,0.399,0.69,0.887,0.912c0.487,0.223,0.887,0.629,0.887,0.903c0,0.273,0.319,0.58,0.709,0.683
	c0.39,0.102,0.709,0.429,0.709,0.727c0,0.297,0.311,0.64,0.691,0.761c0.379,0.12,0.789,0.53,0.909,0.909
	c0.121,0.38,0.463,0.69,0.761,0.69s0.625,0.319,0.727,0.71c0.102,0.39,0.409,0.709,0.683,0.709c0.274,0,0.681,0.399,0.902,0.887
	s0.632,0.886,0.913,0.886c0.279,0,0.582,0.285,0.673,0.635c0.091,0.348,0.516,0.788,0.942,0.975
	C157.096,139.189,157.308,142.421,156.25,142.421z M168.294,129.657c-0.196,0-4.102-3.748-8.678-8.331l-8.322-8.331l8.239-8.304
	c4.532-4.567,8.437-8.316,8.678-8.331c0.242-0.015,4.111,3.636,8.598,8.114c4.487,4.478,8.159,8.316,8.159,8.528
	C184.968,113.488,168.78,129.657,168.294,129.657z"/>
</svg>
