<svg width="160" height="32" viewBox="0 0 160 32" fill="none" xmlns="http://www.w3.org/2000/svg">
<path d="M160 0H23.0676L0 32L137.194 32L160 0Z" fill="#51D9B8"/>
<path d="M46.4493 22C49.8413 22 52.1773 19.616 52.1773 16.176C52.1773 12.688 49.7933 10.304 46.3373 10.304H42.2413V22H46.4493ZM46.1453 12.192C48.5613 12.192 50.0173 13.696 50.0173 16.176C50.0173 18.608 48.5933 20.112 46.2573 20.112H44.2893V12.192H46.1453ZM54.7731 12.512C55.4131 12.512 55.9411 11.984 55.9411 11.328C55.9411 10.672 55.4131 10.16 54.7731 10.16C54.1011 10.16 53.5731 10.672 53.5731 11.328C53.5731 11.984 54.1011 12.512 54.7731 12.512ZM53.7971 22H55.7491V14.096H53.7971V22ZM57.1578 19.6C57.1578 21.152 58.4058 22.208 60.3738 22.208C62.3258 22.208 63.6858 21.216 63.6858 19.616C63.6858 18.4 63.0138 17.792 61.6858 17.488L60.2618 17.152C59.5898 16.992 59.2378 16.704 59.2378 16.256C59.2378 15.664 59.6858 15.312 60.4538 15.312C61.2058 15.312 61.6538 15.744 61.6698 16.416H63.5258C63.5098 14.88 62.3098 13.856 60.5338 13.856C58.7098 13.856 57.3978 14.784 57.3978 16.336C57.3978 17.6 58.0858 18.272 59.5098 18.592L60.9338 18.928C61.6378 19.088 61.8458 19.376 61.8458 19.776C61.8458 20.352 61.3498 20.72 60.4378 20.72C59.5418 20.72 59.0298 20.288 59.0138 19.6H57.1578ZM64.7081 18.032C64.7081 20.544 66.2761 22.208 68.6761 22.208C70.7401 22.208 72.2761 20.944 72.5161 19.104H70.5481C70.3401 19.968 69.6521 20.448 68.6761 20.448C67.4281 20.448 66.6601 19.52 66.6601 18.032C66.6601 16.544 67.4921 15.6 68.7401 15.6C69.6681 15.6 70.3241 16.064 70.5481 16.96H72.5001C72.2921 15.056 70.8201 13.856 68.6601 13.856C66.3241 13.856 64.7081 15.584 64.7081 18.032ZM75.9369 22V10.096H74.0009V22H75.9369ZM80.3366 22.208C81.5686 22.208 82.6406 21.648 82.9766 20.832L83.1206 22H84.8326V17.2C84.8326 15.008 83.5206 13.856 81.3926 13.856C79.2486 13.856 77.8406 14.976 77.8406 16.688H79.5046C79.5046 15.856 80.1446 15.376 81.2966 15.376C82.2886 15.376 82.9286 15.808 82.9286 16.88V17.056L80.5606 17.232C78.6886 17.376 77.6326 18.288 77.6326 19.744C77.6326 21.232 78.6566 22.208 80.3366 22.208ZM80.9766 20.736C80.0966 20.736 79.6166 20.384 79.6166 19.664C79.6166 19.024 80.0806 18.624 81.2966 18.512L82.9446 18.384V18.8C82.9446 20.016 82.1766 20.736 80.9766 20.736ZM87.7262 12.512C88.3662 12.512 88.8942 11.984 88.8942 11.328C88.8942 10.672 88.3662 10.16 87.7262 10.16C87.0542 10.16 86.5262 10.672 86.5262 11.328C86.5262 11.984 87.0542 12.512 87.7262 12.512ZM86.7502 22H88.7022V14.096H86.7502V22ZM92.6709 22V17.52C92.6709 16.24 93.4229 15.632 94.3509 15.632C95.2789 15.632 95.8709 16.224 95.8709 17.328V22H97.8229V17.52C97.8229 16.224 98.5429 15.616 99.4869 15.616C100.415 15.616 101.023 16.208 101.023 17.344V22H102.959V16.832C102.959 15.008 101.903 13.856 99.9829 13.856C98.7829 13.856 97.8549 14.448 97.4549 15.36C97.0389 14.448 96.2069 13.856 95.0069 13.856C93.8709 13.856 93.0709 14.368 92.6709 15.024L92.5109 14.096H90.7189V22H92.6709ZM108.411 22.208C110.475 22.208 111.915 21.168 112.251 19.44H110.443C110.219 20.192 109.515 20.608 108.443 20.608C107.147 20.608 106.411 19.904 106.267 18.512L112.219 18.496V17.904C112.219 15.44 110.715 13.856 108.347 13.856C106.027 13.856 104.411 15.568 104.411 18.048C104.411 20.496 106.059 22.208 108.411 22.208ZM108.363 15.456C109.531 15.456 110.283 16.176 110.283 17.264H106.315C106.507 16.08 107.211 15.456 108.363 15.456ZM118.741 14.064C118.421 13.984 118.149 13.952 117.877 13.952C116.821 13.952 116.069 14.48 115.733 15.264L115.621 14.112H113.781V22H115.733V18.16C115.733 16.624 116.613 15.872 118.021 15.872H118.741V14.064Z" fill="black"/>
</svg>
