<?xml version="1.0" encoding="utf-8"?>
<!-- Generator: Adobe Illustrator 16.0.0, SVG Export Plug-In . SVG Version: 6.00 Build 0)  -->
<!DOCTYPE svg PUBLIC "-//W3C//DTD SVG 1.1//EN" "http://www.w3.org/Graphics/SVG/1.1/DTD/svg11.dtd">
<svg version="1.1" xmlns="http://www.w3.org/2000/svg" xmlns:xlink="http://www.w3.org/1999/xlink" x="0px" y="0px" width="300px"
	 height="300px" viewBox="0 0 300 300" enable-background="new 0 0 300 300" xml:space="preserve">
<g id="Layer_1">
	<g id="svgg">
		<path id="path0" fill="#2E2E2E" d="M147.592,63.454c0,30.4-0.116,51.464-0.284,51.779c-0.156,0.293-1.168,0.933-2.251,1.425
			c-1.082,0.493-2.805,1.273-3.829,1.735c-1.025,0.463-2.771,1.271-3.881,1.793c-1.11,0.524-3.136,1.436-4.502,2.022
			c-2.849,1.226-4.895,2.157-9.418,4.289c-1.765,0.833-3.267,1.513-3.336,1.513c-0.14,0-2.23,0.953-8.202,3.739
			c-2.135,0.996-5.017,2.296-6.406,2.89c-1.389,0.593-3.275,1.428-4.192,1.856c-0.916,0.426-2.294,1.055-3.063,1.395
			c-0.768,0.34-2.724,1.249-4.347,2.02c-1.622,0.77-4.835,2.233-7.14,3.252c-2.306,1.018-5.31,2.369-6.675,3.003
			c-1.366,0.633-3.183,1.474-4.037,1.871c-0.854,0.396-2.879,1.302-4.501,2.016c-1.623,0.712-3.439,1.557-4.036,1.877
			c-0.598,0.32-1.995,0.948-3.105,1.396c-2.722,1.097-3.094,1.606-1.78,2.436c1.975,1.248,2.255,1.412,2.979,1.737
			c0.404,0.181,1.312,0.715,2.019,1.188c1.805,1.206,2.416,1.566,3.297,1.944c0.423,0.181,0.842,0.443,0.932,0.584
			c0.088,0.141,1.069,0.745,2.179,1.343c1.11,0.599,2.784,1.594,3.719,2.21c0.936,0.615,1.802,1.12,1.925,1.12
			c0.123,0,0.838,0.415,1.588,0.921c0.75,0.507,1.7,1.067,2.11,1.246c0.412,0.18,1.167,0.602,1.679,0.94
			c0.513,0.336,1.281,0.785,1.708,0.997c0.426,0.211,0.846,0.467,0.931,0.566c0.085,0.101,0.993,0.663,2.018,1.248
			c1.025,0.588,2.098,1.206,2.384,1.377c0.288,0.171,3.291,1.958,6.675,3.972c3.384,2.013,6.364,3.788,6.62,3.944
			s3.026,1.792,6.156,3.635c3.13,1.844,6.203,3.66,6.831,4.034c0.625,0.377,1.418,0.831,1.76,1.008
			c0.342,0.18,0.831,0.459,1.086,0.617c0.256,0.161,1.375,0.823,2.484,1.473c1.11,0.651,2.091,1.279,2.179,1.398
			c0.089,0.12,0.509,0.367,0.933,0.551c0.423,0.184,1.188,0.61,1.701,0.947c0.512,0.338,1.281,0.783,1.708,0.994
			c0.426,0.209,1.334,0.731,2.017,1.161c2.075,1.304,2.454,1.528,3.261,1.938c0.427,0.217,0.846,0.481,0.931,0.585
			c0.167,0.206,1.573,0.984,2.728,1.51c0.391,0.179,1.676,0.953,2.855,1.724s2.216,1.4,2.302,1.4c0.085,0,0.776,0.421,1.536,0.933
			c1.757,1.185,1.775,1.184,4.55-0.415c4.817-2.774,30.521-17.956,31.767-18.762c0.714-0.464,1.648-1.016,2.074-1.228
			c0.428-0.212,0.986-0.522,1.243-0.69c0.256-0.166,2.325-1.392,4.598-2.722s4.46-2.628,4.862-2.884
			c0.986-0.63,4.039-2.407,5.753-3.35c0.769-0.422,1.606-0.95,1.863-1.172c0.255-0.222,0.815-0.556,1.241-0.74
			c0.426-0.186,1.143-0.579,1.589-0.875c0.448-0.298,1.774-1.098,2.948-1.78s2.365-1.383,2.646-1.554
			c0.28-0.17,1.469-0.869,2.639-1.552c2.682-1.564,2.071-1.202,9.42-5.589c6.917-4.128,6.599-3.939,9.089-5.378
			c2.033-1.175,2.107-1.43,0.938-3.243c-0.464-0.724-0.999-1.594-1.186-1.934c-0.82-1.494-1.24-2.184-1.417-2.33
			c-0.104-0.085-0.526-0.784-0.94-1.552c-0.414-0.769-1.14-1.998-1.609-2.732c-0.473-0.733-0.993-1.642-1.159-2.018
			c-0.164-0.376-0.855-1.522-1.535-2.547c-0.679-1.024-1.378-2.142-1.555-2.483c-0.173-0.342-0.593-1.04-0.93-1.552
			c-0.337-0.512-0.787-1.281-0.999-1.708c-0.211-0.427-0.466-0.846-0.563-0.931c-0.149-0.13-1.189-1.834-3.503-5.744
			c-0.201-0.341-0.738-1.201-1.19-1.911c-0.453-0.71-0.917-1.583-1.029-1.94c-0.114-0.358-0.324-0.651-0.467-0.651
			s-0.413-0.384-0.6-0.854c-0.188-0.469-0.587-1.226-0.885-1.683c-0.65-0.994-4.3-6.943-5.26-8.571
			c-0.374-0.636-0.892-1.504-1.149-1.932c-0.256-0.427-0.646-1.125-0.865-1.552c-0.218-0.427-0.469-0.846-0.558-0.931
			c-0.44-0.422-1.559-2.187-1.559-2.457c0-0.169-0.396-0.908-0.88-1.642c-1.306-1.985-2.483-3.9-5.854-9.514
			c-1.676-2.792-3.354-5.585-3.731-6.209c-0.375-0.625-0.783-1.345-0.906-1.601c-0.122-0.256-0.806-1.374-1.52-2.484
			c-0.714-1.11-1.983-3.184-2.819-4.609c-0.837-1.425-1.731-2.914-1.987-3.309c-0.857-1.324-6.67-11.041-7.111-11.89
			c-0.24-0.462-0.536-0.909-0.658-0.994c-0.123-0.085-0.601-0.854-1.061-1.708s-1.072-1.922-1.358-2.375
			c-0.289-0.452-1.473-2.407-2.632-4.346c-1.161-1.938-2.278-3.799-2.484-4.134c-0.205-0.335-0.721-1.174-1.144-1.863
			c-0.423-0.689-0.913-1.487-1.087-1.771c-0.174-0.284-0.794-1.332-1.38-2.329c-0.585-0.996-1.677-2.761-2.426-3.92
			c-0.748-1.16-1.709-2.767-2.133-3.57c-0.425-0.804-1.01-1.832-1.3-2.285c-0.292-0.453-1.717-2.802-3.169-5.221
			c-1.451-2.419-2.849-4.729-3.104-5.131c-1.643-2.584-3.105-5.123-3.105-5.386c0-0.169-0.109-0.354-0.243-0.411
			c-0.136-0.057-0.905-1.221-1.712-2.587c-1.607-2.724-2.2-3.57-2.503-3.57C147.681,12.206,147.592,35.268,147.592,63.454
			 M231.091,169.777c-0.417,0.238-0.969,0.537-1.225,0.663c-0.256,0.125-1.513,0.899-2.794,1.721
			c-1.281,0.819-2.503,1.489-2.717,1.489s-0.389,0.126-0.389,0.281c0,0.153-0.384,0.438-0.853,0.63
			c-1.224,0.502-4.329,2.279-4.785,2.737c-0.212,0.213-0.489,0.388-0.617,0.388s-0.834,0.401-1.568,0.892
			c-0.733,0.49-1.963,1.228-2.731,1.641c-0.769,0.41-1.998,1.135-2.731,1.604c-0.734,0.473-1.643,0.993-2.019,1.159
			c-0.377,0.166-1.06,0.545-1.52,0.841c-1.363,0.88-11.689,7.055-14.314,8.561c-0.547,0.314-2.881,1.687-5.186,3.051
			c-5.178,3.064-5.135,3.039-6.663,3.982c-0.689,0.424-1.604,0.947-2.03,1.162c-0.955,0.481-3.061,1.716-5.123,3.002
			c-0.854,0.533-1.831,1.144-2.174,1.354c-0.341,0.212-0.956,0.53-1.368,0.706c-0.41,0.176-1.36,0.735-2.11,1.24
			c-0.751,0.506-1.43,0.921-1.51,0.921s-0.737,0.38-1.46,0.842c-1.272,0.816-2.513,1.549-3.796,2.245
			c-0.343,0.186-1.04,0.613-1.553,0.95c-0.513,0.338-1.281,0.783-1.708,0.994c-0.426,0.21-1.195,0.68-1.708,1.045
			c-0.512,0.365-1.734,1.063-2.716,1.551c-0.982,0.486-1.786,0.982-1.786,1.101s-0.384,0.373-0.853,0.565
			c-1.173,0.482-2.131,1.058-2.871,1.727c-0.659,0.598-1.022,69.081-0.366,69.081c0.488,0,2.468-2.468,4.047-5.045
			c0.394-0.64,0.844-1.164,1.001-1.164c0.156,0,0.285-0.153,0.285-0.342c0-0.189,0.351-0.782,0.781-1.32
			c0.428-0.537,0.89-1.117,1.023-1.287s0.338-0.555,0.451-0.854c0.115-0.299,0.353-0.543,0.527-0.543c0.176,0,0.32-0.188,0.32-0.419
			c0-0.229,0.28-0.67,0.621-0.979c0.342-0.31,0.621-0.685,0.621-0.836c0-0.15,0.664-1.159,1.475-2.241
			c0.813-1.083,2.203-2.998,3.095-4.258c0.893-1.259,3.498-4.945,5.793-8.188c5.815-8.221,7.133-10.07,7.49-10.505
			c0.379-0.462,1.07-1.445,3.427-4.863c0.999-1.451,1.929-2.687,2.066-2.743c0.137-0.057,0.25-0.246,0.25-0.421
			s0.314-0.701,0.699-1.174c0.385-0.469,0.907-1.168,1.164-1.55c0.256-0.382,1.165-1.654,2.018-2.825
			c0.854-1.172,2.041-2.845,2.64-3.717s1.227-1.751,1.396-1.952c0.172-0.201,0.933-1.273,1.691-2.385
			c0.76-1.109,1.458-2.087,1.554-2.172c0.094-0.085,0.311-0.391,0.48-0.679c0.822-1.386,3.357-4.91,3.531-4.91
			c0.109,0,0.377-0.404,0.596-0.898s0.743-1.27,1.163-1.724c0.421-0.454,0.765-0.891,0.765-0.968c0-0.172,2.19-3.33,2.462-3.552
			c0.188-0.151,0.959-1.247,1.885-2.672c0.471-0.725,4.743-6.726,7.606-10.683c0.854-1.18,2.041-2.856,2.64-3.727
			c0.597-0.869,1.749-2.487,2.561-3.596s1.475-2.084,1.475-2.166c0-0.081,0.524-0.843,1.164-1.691
			c0.641-0.847,1.863-2.534,2.717-3.743c0.854-1.213,1.702-2.365,1.885-2.563c0.508-0.552,2.617-3.593,2.617-3.773
			c0-0.087,0.219-0.403,0.485-0.701c1.604-1.793,6.057-8.409,5.776-8.583C231.959,169.409,231.508,169.538,231.091,169.777"/>
		<path id="path1" fill="#8C8C8C" d="M145.877,14.461c-0.508,1.048-1.243,2.38-1.635,2.961c-0.391,0.58-1.213,1.983-1.827,3.119
			c-0.616,1.136-1.311,2.286-1.542,2.556c-0.232,0.27-0.423,0.577-0.423,0.683c0,0.106-0.453,0.863-1.008,1.683
			c-0.554,0.82-1.317,2.154-1.693,2.965c-0.377,0.811-0.831,1.475-1.011,1.475c-0.177,0-0.324,0.182-0.324,0.404
			c0,0.224-0.364,0.887-0.808,1.475c-0.446,0.588-1.007,1.489-1.247,2.001c-0.482,1.024-0.748,1.463-2.155,3.555
			c-0.523,0.777-1.048,1.622-1.167,1.878c-0.12,0.256-0.496,0.884-0.835,1.396c-0.34,0.513-0.831,1.39-1.09,1.948
			c-0.502,1.076-2.927,4.84-3.679,5.706c-0.244,0.282-0.546,0.833-0.669,1.223c-0.124,0.391-0.768,1.557-1.431,2.592
			c-0.662,1.035-1.416,2.371-1.675,2.968c-0.259,0.598-0.572,1.241-0.696,1.428c-0.124,0.188-0.642,0.956-1.15,1.708
			c-1.361,2.01-1.631,2.465-2.375,4.005c-0.371,0.769-1.121,1.957-1.667,2.64s-1.08,1.488-1.186,1.789
			c-0.108,0.302-0.829,1.516-1.601,2.7c-0.773,1.184-1.406,2.247-1.406,2.363c0,0.183-2.061,3.463-2.717,4.325
			c-0.13,0.17-0.417,0.66-0.637,1.086c-1.012,1.959-1.357,2.484-1.63,2.484c-0.161,0-0.293,0.269-0.293,0.598
			c0,0.33-0.209,0.809-0.466,1.065c-0.256,0.256-0.465,0.599-0.465,0.76c0,0.162-0.224,0.481-0.499,0.708
			c-0.274,0.227-0.622,0.699-0.775,1.047c-0.152,0.349-0.407,0.843-0.566,1.1c-0.159,0.256-0.809,1.374-1.443,2.483
			c-0.635,1.11-1.308,2.162-1.497,2.336c-0.188,0.175-0.604,0.804-0.926,1.397c-0.321,0.594-0.887,1.638-1.258,2.321
			c-0.37,0.683-0.934,1.636-1.251,2.117c-0.806,1.222-1.62,2.697-2.043,3.704c-0.197,0.469-0.488,0.854-0.646,0.854
			c-0.158,0-0.43,0.314-0.604,0.699c-0.477,1.055-1.108,2.107-1.496,2.495c-0.19,0.19-0.346,0.578-0.346,0.86
			c0,0.283-0.454,1.133-1.008,1.887c-1.384,1.883-1.741,2.46-2.131,3.451c-0.185,0.47-0.466,0.854-0.625,0.854
			c-0.159,0-0.423,0.314-0.59,0.698c-0.166,0.384-0.475,0.978-0.687,1.319c-0.211,0.341-0.823,1.32-1.357,2.174
			c-0.534,0.854-1.069,1.867-1.188,2.25c-0.12,0.385-0.324,0.699-0.457,0.699c-0.131,0-0.627,0.769-1.103,1.708
			c-0.475,0.939-0.987,1.708-1.138,1.708c-0.149,0-0.273,0.284-0.273,0.631c0,0.346-0.209,0.711-0.465,0.809
			c-0.256,0.099-0.466,0.342-0.466,0.541c0,0.198-0.464,1.067-1.032,1.929c-0.567,0.861-1.128,1.766-1.245,2.01
			c-0.117,0.245-0.489,0.864-0.826,1.376c-0.337,0.512-0.739,1.21-0.893,1.552c-0.313,0.694-2.247,3.708-2.979,4.643
			c-0.262,0.333-0.476,0.843-0.476,1.131c0,0.288-0.209,0.604-0.465,0.703c-0.257,0.099-0.466,0.377-0.466,0.619
			c0,0.644-0.771,2.023-1.521,2.721c-0.359,0.334-0.653,0.875-0.653,1.202c0,0.326-0.174,0.705-0.388,0.841
			c-0.43,0.276-1.013,1.139-1.456,2.159c-0.16,0.368-0.439,0.76-0.621,0.872c-0.181,0.113-0.33,0.475-0.33,0.803
			c0,0.332-0.279,0.775-0.621,0.989c-0.342,0.213-0.621,0.568-0.621,0.788c0,0.221-0.21,0.482-0.466,0.579
			c-0.255,0.099-0.465,0.385-0.465,0.637c0,0.641-2.056,4.08-2.885,4.829c-0.429,0.386-0.28,0.336,0.4-0.135
			c0.598-0.413,1.646-0.996,2.329-1.295c0.683-0.297,1.613-0.744,2.066-0.989c0.453-0.248,1.03-0.449,1.281-0.449
			s0.625-0.201,0.828-0.446c0.204-0.246,0.814-0.542,1.357-0.661c0.543-0.117,1.058-0.311,1.143-0.429
			c0.196-0.271,2.697-1.438,3.726-1.738c0.427-0.124,1.052-0.416,1.389-0.649c0.337-0.233,0.916-0.424,1.286-0.424
			c0.371,0,0.754-0.209,0.853-0.465c0.098-0.256,0.335-0.466,0.527-0.466c0.193,0,0.713-0.286,1.156-0.635
			c0.445-0.35,1.095-0.6,1.446-0.556c0.352,0.044,2.119-0.646,3.928-1.538c1.809-0.89,3.451-1.618,3.647-1.618
			c0.198,0,0.359-0.124,0.359-0.276c0-0.151,0.489-0.368,1.087-0.48c0.598-0.111,1.086-0.33,1.086-0.485
			c0-0.156,0.524-0.377,1.165-0.491c0.641-0.115,1.374-0.384,1.63-0.598c0.256-0.215,0.78-0.486,1.164-0.603
			c0.384-0.116,0.699-0.342,0.699-0.499c0-0.158,0.559-0.375,1.242-0.484c0.749-0.12,1.242-0.367,1.242-0.625
			c0-0.239,0.318-0.426,0.729-0.426c0.4,0,0.98-0.279,1.289-0.621c0.31-0.342,0.893-0.621,1.296-0.621
			c0.404,0,1.288-0.349,1.964-0.776s1.378-0.776,1.56-0.776c0.181,0,1.196-0.402,2.257-0.892c1.061-0.489,2.44-1.055,3.067-1.256
			c0.626-0.202,1.307-0.57,1.512-0.817c0.207-0.247,0.707-0.45,1.112-0.45c0.405,0,1.018-0.279,1.358-0.621
			c0.341-0.342,0.866-0.625,1.165-0.631c0.299-0.004,0.814-0.214,1.146-0.465c0.333-0.25,0.856-0.456,1.164-0.456
			c0.309,0,0.562-0.13,0.562-0.29c0-0.159,0.314-0.378,0.698-0.488c0.689-0.194,1.522-0.535,3.648-1.491
			c0.598-0.268,1.785-0.784,2.639-1.144c0.853-0.361,2.061-0.929,2.683-1.262c2.559-1.372,2.936-1.532,3.604-1.534
			c0.384-0.001,0.699-0.132,0.699-0.292c0-0.158,0.314-0.384,0.698-0.5c0.385-0.116,1.375-0.621,2.2-1.12
			c0.824-0.501,1.91-0.992,2.412-1.092c0.502-0.101,0.989-0.304,1.08-0.453c0.092-0.148,0.438-0.27,0.768-0.27
			s0.774-0.279,0.988-0.621c0.274-0.441,0.723-0.621,1.543-0.621c0.838,0,1.248-0.171,1.488-0.622
			c0.188-0.352,0.651-0.621,1.064-0.621c1.028,0,0.969,3.388,0.799-45.019c-0.123-35.16-0.075-44.313,0.232-44.586
			c0.464-0.411,0.519-2.177,0.078-2.449c-0.171-0.106-0.311-0.734-0.311-1.397s0.14-1.292,0.311-1.397
			c0.477-0.294,0.372-1.152-0.311-2.566C145.625,16.059,145.548,15,146.16,15c0.337,0,0.92-2.042,0.682-2.388
			C146.82,12.581,146.385,13.412,145.877,14.461 M137.031,35.879c0.005,0.664-0.568,0.719-0.814,0.078
			c-0.286-0.744,0.155-1.656,0.52-1.078C136.896,35.13,137.029,35.581,137.031,35.879 M128.699,45.582
			c0,0.162-0.15,0.344-0.333,0.406c-0.183,0.062-0.333-0.121-0.333-0.406s0.15-0.468,0.333-0.406
			C128.549,45.237,128.699,45.419,128.699,45.582 M128.494,50.09c-0.173,0.281-0.289,0.273-0.48-0.036
			c-0.327-0.53-0.005-1.05,0.399-0.646C128.583,49.579,128.62,49.886,128.494,50.09 M126.48,52.101c0,0.427-0.139,0.776-0.311,0.776
			c-0.347,0-0.425-1.023-0.103-1.345C126.408,51.19,126.48,51.289,126.48,52.101 M122.444,56.138c0,0.236-0.14,0.516-0.311,0.621
			c-0.177,0.109-0.31-0.158-0.31-0.621c0-0.463,0.133-0.73,0.31-0.621C122.304,55.622,122.444,55.901,122.444,56.138
			 M103.815,91.395c0,0.332-0.14,0.603-0.311,0.603c-0.17,0-0.311-0.358-0.311-0.795c0-0.45,0.135-0.711,0.311-0.603
			C103.675,90.706,103.815,91.063,103.815,91.395 M97.606,97.741c0,0.753-0.458,1.292-0.727,0.857
			c-0.081-0.132-0.075-0.621,0.015-1.088C97.084,96.507,97.606,96.676,97.606,97.741 M127.256,122.113
			c-0.106,0.171-0.542,0.311-0.969,0.311c-0.438,0-0.692-0.135-0.583-0.311c0.105-0.171,0.541-0.311,0.967-0.311
			C127.109,121.802,127.365,121.937,127.256,122.113 M63.945,170.504c-0.082,0.134,0.124,0.476,0.456,0.761
			c0.333,0.284,0.606,0.711,0.606,0.948c0,0.236,0.217,0.611,0.485,0.833c0.266,0.222,0.993,1.182,1.614,2.134
			c0.621,0.951,1.939,2.791,2.93,4.087c0.99,1.296,1.8,2.514,1.8,2.706s0.28,0.5,0.621,0.683c0.342,0.182,0.621,0.515,0.621,0.739
			c0,0.224,0.279,0.729,0.621,1.123c0.341,0.394,0.622,0.825,0.622,0.958c0,0.134,0.279,0.331,0.621,0.438
			c0.341,0.109,0.621,0.442,0.621,0.741s0.419,1.014,0.932,1.588c0.513,0.573,0.932,1.21,0.932,1.415
			c0,0.618,0.836,1.169,1.053,0.693c0.101-0.221,0.104-0.086,0.009,0.299c-0.116,0.468-0.012,0.762,0.313,0.888
			c0.269,0.102,0.487,0.359,0.487,0.571c0,0.211,0.28,0.637,0.621,0.946c0.342,0.308,0.621,0.787,0.621,1.063
			s0.384,0.739,0.854,1.031c0.469,0.291,0.679,0.532,0.465,0.537c-0.257,0.005-0.206,0.204,0.155,0.591
			c0.299,0.32,1.311,1.683,2.248,3.027s1.811,2.49,1.941,2.546c0.129,0.059,0.235,0.236,0.235,0.396c0,0.159,0.699,1.18,1.552,2.267
			c0.854,1.087,1.553,2.108,1.553,2.273c0,0.164,0.279,0.551,0.621,0.86c0.342,0.309,0.623,0.715,0.627,0.901
			c0.003,0.188,0.333,0.651,0.735,1.032c0.401,0.381,1.831,2.336,3.177,4.347c1.346,2.01,2.691,3.837,2.991,4.062
			c0.299,0.222,0.543,0.661,0.543,0.975s0.21,0.65,0.466,0.75c0.256,0.098,0.466,0.376,0.466,0.62c0,0.243,0.21,0.522,0.465,0.622
			c0.256,0.097,0.466,0.334,0.466,0.527c0,0.192,0.907,1.526,2.018,2.964s2.018,2.69,2.018,2.783s0.489,0.81,1.087,1.593
			c0.597,0.782,1.086,1.612,1.086,1.845c0,0.23,0.125,0.42,0.28,0.42c0.154,0,0.768,0.733,1.363,1.63
			c0.596,0.897,1.377,1.896,1.738,2.222c0.361,0.325,0.655,0.7,0.655,0.833c0,0.535,3.62,5.686,4.735,6.739
			c0.298,0.281,0.543,0.754,0.543,1.049c0,0.294,0.193,0.647,0.429,0.785c0.235,0.136,0.87,0.905,1.408,1.708
			c0.704,1.049,1.131,1.413,1.512,1.29c0.416-0.133,0.438-0.104,0.102,0.136c-0.428,0.306-0.336,0.466,2.265,3.944
			c0.455,0.607,0.465,0.604,0.483-0.155c0.014-0.578,0.089-0.664,0.296-0.339c0.167,0.266,0.151,0.641-0.043,0.952
			c-0.252,0.403-0.083,0.769,0.804,1.733c0.618,0.674,1.124,1.364,1.125,1.538c0.001,0.172,0.335,0.674,0.744,1.113
			c0.408,0.44,0.955,1.207,1.215,1.704c0.261,0.498,0.732,1.184,1.049,1.525s1.4,1.878,2.408,3.416
			c1.007,1.536,2.022,3.003,2.252,3.258c0.914,1.015,2.578,3.396,2.578,3.693c0,0.172,0.182,0.425,0.405,0.562
			c0.223,0.136,0.737,0.808,1.143,1.49c0.404,0.683,1.41,2.1,2.233,3.148s1.497,2.047,1.497,2.218s0.21,0.392,0.465,0.49
			c0.257,0.098,0.466,0.339,0.466,0.536c0,0.195,0.385,0.808,0.854,1.36s1.117,1.478,1.438,2.059
			c0.333,0.599,0.646,0.887,0.726,0.666c0.077-0.216,0.282-0.303,0.457-0.195c0.201,0.125,0.166,0.289-0.096,0.451
			c-0.327,0.202-0.277,0.404,0.238,0.971c0.666,0.729,2.267,3.133,2.647,3.975c0.116,0.257,0.221-0.38,0.233-1.413
			c0.012-1.033-0.132-2.033-0.322-2.223c-0.251-0.25-0.238-0.934,0.049-2.545c0.311-1.732,0.314-2.45,0.02-3.366
			c-0.742-2.314-0.336-58.211,0.43-59.106c0.342-0.399,0.401-0.557,0.132-0.35c-0.525,0.404-1.261,0.119-3.856-1.496
			c-0.684-0.425-1.521-0.934-1.863-1.13c-4.032-2.317-7.782-4.612-7.865-4.811c-0.058-0.136-0.28-0.246-0.497-0.246
			c-0.215,0-0.714-0.281-1.108-0.622c-0.394-0.342-0.963-0.621-1.263-0.621c-0.301,0-0.594-0.104-0.652-0.232
			c-0.151-0.343-2.046-1.63-2.396-1.63c-0.165,0-0.487-0.176-0.713-0.388c-0.227-0.214-1.459-0.936-2.738-1.604
			c-1.279-0.668-2.815-1.591-3.413-2.05c-1.079-0.828-2.243-1.507-3.72-2.17c-0.423-0.191-0.842-0.452-0.932-0.582
			c-0.088-0.129-0.837-0.558-1.661-0.951c-0.826-0.395-1.574-0.908-1.664-1.143c-0.09-0.235-0.4-0.427-0.691-0.427
			c-0.292,0-0.792-0.192-1.114-0.429c-0.377-0.274-1.024-0.368-1.814-0.263c-0.793,0.106-1.16,0.053-1.034-0.15
			c0.108-0.174,0.547-0.249,0.978-0.167c1.147,0.22,0.959-0.131-0.458-0.854c-0.682-0.348-1.241-0.76-1.241-0.912
			c0-0.153-0.419-0.371-0.932-0.484c-0.512-0.112-0.931-0.317-0.931-0.454c0-0.138-0.245-0.339-0.543-0.448s-1.103-0.537-1.785-0.95
			c-0.683-0.414-1.94-1.121-2.794-1.57s-1.773-1.017-2.042-1.26c-0.27-0.242-0.601-0.44-0.736-0.44
			c-0.283,0-3.975-2.189-4.208-2.494c-0.162-0.214-1.519-0.972-2.716-1.518c-0.384-0.176-0.699-0.463-0.699-0.638
			c0-0.176-0.27-0.318-0.598-0.318c-0.33,0-0.829-0.229-1.11-0.51c-0.281-0.281-0.955-0.745-1.497-1.031
			c-3.914-2.063-7.108-4.005-7.299-4.435c-0.057-0.129-0.27-0.232-0.473-0.232s-1.112-0.489-2.02-1.087
			c-0.907-0.6-1.757-1.087-1.886-1.087c-0.13,0-0.558-0.279-0.951-0.622c-0.394-0.34-0.916-0.621-1.159-0.621
			c-0.466,0-3.686-2.031-3.982-2.514c-0.096-0.154-0.434-0.279-0.752-0.279s-1.184-0.462-1.921-1.025
			C64.98,170.533,64.162,170.152,63.945,170.504 M70.618,174.978c-0.038,0.372-0.464,0.3-0.598-0.101
			c-0.069-0.205,0.043-0.316,0.248-0.248S70.631,174.854,70.618,174.978 M79.909,180.171c0,0.171-0.271,0.311-0.602,0.311
			s-0.689-0.14-0.795-0.311c-0.108-0.176,0.152-0.311,0.603-0.311C79.551,179.86,79.909,180,79.909,180.171 M101.332,192.589
			c0,0.171-0.201,0.312-0.448,0.312c-0.246,0-0.534-0.141-0.639-0.312c-0.105-0.17,0.095-0.309,0.447-0.309
			C101.043,192.28,101.332,192.419,101.332,192.589 M105.762,226.142c-0.112,0.428-0.271,0.537-0.478,0.33
			c-0.37-0.37-0.045-1.398,0.363-1.147C105.803,225.421,105.855,225.789,105.762,226.142 M110.025,233.746
			c0,0.513-0.491,0.598-0.776,0.137c-0.253-0.41,0.118-0.992,0.487-0.764C109.894,233.218,110.025,233.499,110.025,233.746
			 M126.569,257.167c0.09,0.343,0.052,0.621-0.083,0.621c-0.136,0-0.318-0.278-0.408-0.621c-0.089-0.341-0.052-0.62,0.083-0.62
			C126.297,256.547,126.48,256.826,126.569,257.167 M137.652,269.354c-0.004,0.563-0.062,0.608-0.306,0.232
			c-0.39-0.604-0.39-0.933,0-0.933C137.517,268.654,137.654,268.969,137.652,269.354"/>
		<path id="path3" fill="#848484" d="M147.291,12.039c-0.208,0.25-0.452,1.018-0.544,1.707c-0.104,0.772-0.332,1.254-0.594,1.254
			c-0.606,0-0.525,1.065,0.196,2.557c0.683,1.414,0.787,2.272,0.311,2.566c-0.171,0.105-0.311,0.734-0.311,1.397
			s0.14,1.292,0.311,1.397c0.44,0.272,0.386,2.038-0.078,2.449c-0.308,0.274-0.355,9.427-0.232,44.586
			c0.17,48.407,0.229,45.019-0.799,45.019c-0.413,0-0.877,0.269-1.064,0.621c-0.24,0.451-0.65,0.622-1.488,0.622
			c-0.82,0-1.269,0.18-1.543,0.621c-0.214,0.342-0.658,0.621-0.988,0.621s-0.676,0.122-0.768,0.27
			c-0.091,0.149-0.578,0.352-1.08,0.453c-0.501,0.1-1.587,0.591-2.412,1.092c-0.825,0.5-1.815,1.004-2.2,1.12
			c-0.384,0.116-0.698,0.342-0.698,0.5c0,0.159-0.314,0.291-0.699,0.292c-0.668,0.002-1.044,0.162-3.604,1.534
			c-0.622,0.333-1.83,0.901-2.683,1.262c-0.854,0.36-2.007,0.857-2.562,1.103s-1.462,0.647-2.019,0.891
			c-0.555,0.244-1.322,0.534-1.708,0.641c-0.384,0.109-0.698,0.329-0.698,0.488c0,0.159-0.253,0.29-0.562,0.29
			c-0.308,0-0.832,0.206-1.164,0.456c-0.332,0.251-0.847,0.461-1.146,0.465c-0.298,0.006-0.823,0.29-1.165,0.631
			c-0.341,0.342-0.954,0.621-1.358,0.621c-0.406,0-0.906,0.203-1.112,0.45c-0.205,0.247-0.886,0.616-1.512,0.817
			c-0.627,0.202-2.006,0.767-3.067,1.256c-1.061,0.49-2.076,0.892-2.257,0.892c-0.182,0-0.883,0.349-1.56,0.776
			s-1.56,0.776-1.964,0.776c-0.403,0-0.987,0.279-1.296,0.621c-0.309,0.342-0.889,0.621-1.289,0.621
			c-0.41,0-0.729,0.187-0.729,0.426c0,0.258-0.493,0.505-1.242,0.625c-0.683,0.109-1.242,0.327-1.242,0.484
			c0,0.156-0.314,0.382-0.699,0.499c-0.384,0.117-0.908,0.388-1.164,0.603c-0.256,0.214-0.989,0.483-1.63,0.598
			c-0.641,0.114-1.165,0.335-1.165,0.491c0,0.155-0.489,0.374-1.086,0.485c-0.598,0.113-1.087,0.329-1.087,0.48
			c0,0.152-0.161,0.276-0.359,0.276c-0.197,0-1.839,0.728-3.647,1.618c-1.809,0.891-3.576,1.582-3.928,1.538
			c-0.351-0.044-1.001,0.206-1.446,0.556c-0.443,0.349-0.963,0.635-1.156,0.635c-0.192,0-0.43,0.209-0.527,0.466
			c-0.098,0.256-0.481,0.465-0.853,0.465c-0.371,0-0.949,0.191-1.286,0.424c-0.337,0.233-0.961,0.526-1.389,0.649
			c-1.029,0.299-3.529,1.466-3.726,1.738c-0.085,0.119-0.6,0.312-1.143,0.429c-0.543,0.119-1.153,0.415-1.357,0.661
			c-0.203,0.245-0.576,0.446-0.828,0.446s-0.828,0.203-1.281,0.453c-0.453,0.248-1.476,0.735-2.272,1.081
			c-1.503,0.653-3.675,2.473-3.675,3.076c0,0.301,3.591,2.579,7.846,4.978c0.722,0.407,2.151,1.261,3.176,1.897
			c1.024,0.637,3.888,2.346,6.364,3.801c14.374,8.444,20.08,11.844,20.516,12.225c0.27,0.237,0.586,0.432,0.702,0.432
			c0.203,0,14.247,8.199,22.031,12.862c4.816,2.886,5.064,3.032,9.155,5.424c1.929,1.127,3.884,2.292,4.347,2.59
			c0.462,0.296,1.035,0.632,1.273,0.747c0.236,0.115,2.727,1.583,5.535,3.264c2.807,1.681,5.368,3.055,5.691,3.055
			c0.779,0-0.556,0.764,21.945-12.558c6.62-3.92,14.69-8.686,17.935-10.591c5.835-3.427,17.779-10.513,19.976-11.85
			c0.625-0.381,2.255-1.333,3.621-2.114c2.683-1.535,4.002-2.313,15.528-9.147c6.01-3.564,7.593-4.637,7.596-5.146
			c0.003-0.354-2.177-4.267-4.846-8.692c-2.668-4.428-6.235-10.354-7.928-13.172s-6.426-10.642-10.52-17.387
			c-4.095-6.745-7.537-12.473-7.652-12.729c-0.114-0.256-0.858-1.513-1.654-2.794c-0.796-1.28-2.53-4.145-3.856-6.364
			c-1.325-2.22-2.729-4.525-3.118-5.123c-0.389-0.598-2.199-3.602-4.022-6.675c-4.564-7.693-11.204-18.744-11.939-19.87
			c-0.703-1.078-20.906-34.624-25.709-42.689C148.158,11.279,148.043,11.132,147.291,12.039 M148.409,12.749
			c0.229,0.299,1.077,1.661,1.884,3.027c0.807,1.367,1.576,2.531,1.712,2.587c0.134,0.058,0.243,0.242,0.243,0.411
			c0,0.264,1.463,2.802,3.105,5.386c0.256,0.402,1.653,2.712,3.104,5.131c1.452,2.418,2.877,4.768,3.169,5.221
			c0.29,0.453,0.875,1.481,1.3,2.285c0.424,0.804,1.385,2.41,2.133,3.57c0.749,1.16,1.841,2.924,2.426,3.92
			c0.586,0.997,1.206,2.045,1.38,2.329c0.174,0.284,0.664,1.081,1.087,1.771c0.423,0.689,0.938,1.527,1.144,1.863
			c0.206,0.335,1.323,2.195,2.484,4.134c1.159,1.939,2.343,3.895,2.632,4.346c0.286,0.453,0.898,1.521,1.358,2.375
			s0.938,1.623,1.061,1.708c0.122,0.085,0.418,0.532,0.658,0.994c0.441,0.849,6.254,10.566,7.111,11.89
			c0.256,0.395,1.15,1.883,1.987,3.309c0.836,1.425,2.105,3.499,2.819,4.609c0.714,1.11,1.397,2.228,1.52,2.484
			c0.123,0.256,0.531,0.976,0.906,1.601c0.378,0.624,2.056,3.418,3.731,6.209c3.37,5.614,4.548,7.528,5.854,9.514
			c0.484,0.734,0.88,1.473,0.88,1.642c0,0.27,1.118,2.034,1.559,2.457c0.089,0.085,0.34,0.504,0.558,0.931
			c0.219,0.427,0.609,1.125,0.865,1.552c0.258,0.427,0.775,1.296,1.149,1.932c0.96,1.628,4.609,7.577,5.26,8.571
			c0.298,0.457,0.696,1.214,0.885,1.683c0.187,0.47,0.457,0.854,0.6,0.854s0.353,0.293,0.467,0.651
			c0.112,0.357,0.576,1.23,1.029,1.94c0.452,0.71,0.989,1.57,1.19,1.911c2.313,3.91,3.354,5.614,3.503,5.744
			c0.098,0.085,0.353,0.504,0.563,0.931c0.212,0.427,0.662,1.196,0.999,1.708c0.337,0.512,0.757,1.21,0.93,1.552
			c0.177,0.342,0.876,1.459,1.555,2.483c0.68,1.025,1.371,2.17,1.535,2.547c0.166,0.376,0.687,1.285,1.159,2.018
			c0.47,0.734,1.195,1.963,1.609,2.732c0.414,0.768,0.837,1.467,0.94,1.552c0.177,0.146,0.597,0.835,1.417,2.33
			c0.187,0.34,0.722,1.21,1.186,1.934c1.169,1.813,1.095,2.068-0.938,3.243c-2.49,1.438-2.172,1.25-9.089,5.378
			c-7.349,4.387-6.738,4.024-9.42,5.589c-1.17,0.683-2.358,1.382-2.639,1.552c-0.28,0.171-1.472,0.871-2.646,1.554
			s-2.5,1.482-2.948,1.78c-0.446,0.296-1.163,0.689-1.589,0.875c-0.426,0.185-0.986,0.519-1.241,0.74
			c-0.257,0.222-1.095,0.75-1.863,1.172c-1.714,0.942-4.767,2.72-5.753,3.35c-0.402,0.256-2.59,1.554-4.862,2.884
			s-4.342,2.556-4.598,2.722c-0.257,0.168-0.815,0.479-1.243,0.69c-0.426,0.212-1.36,0.764-2.074,1.228
			c-1.246,0.806-26.949,15.987-31.767,18.762c-2.774,1.599-2.793,1.6-4.55,0.415c-0.76-0.512-1.451-0.933-1.536-0.933
			c-0.086,0-1.122-0.63-2.302-1.4s-2.465-1.545-2.855-1.724c-1.155-0.525-2.562-1.304-2.728-1.51
			c-0.085-0.104-0.504-0.368-0.931-0.585c-0.807-0.41-1.186-0.635-3.261-1.938c-0.683-0.43-1.591-0.952-2.017-1.161
			c-0.427-0.211-1.195-0.656-1.708-0.994c-0.513-0.337-1.278-0.764-1.701-0.947c-0.423-0.184-0.843-0.431-0.933-0.551
			c-0.087-0.119-1.069-0.747-2.179-1.398c-1.11-0.649-2.229-1.312-2.484-1.473c-0.256-0.158-0.745-0.438-1.086-0.617
			c-0.342-0.177-1.135-0.631-1.76-1.008c-0.628-0.374-3.701-2.19-6.831-4.034c-3.129-1.843-5.9-3.479-6.156-3.635
			s-3.235-1.932-6.62-3.944c-3.384-2.014-6.388-3.801-6.675-3.972c-0.287-0.171-1.359-0.789-2.384-1.377
			c-1.024-0.585-1.933-1.147-2.018-1.248c-0.085-0.1-0.505-0.355-0.931-0.566c-0.427-0.212-1.196-0.661-1.708-0.997
			c-0.512-0.339-1.267-0.761-1.679-0.94c-0.411-0.179-1.36-0.739-2.11-1.246c-0.75-0.506-1.465-0.921-1.588-0.921
			c-0.124,0-0.99-0.505-1.925-1.12c-0.935-0.616-2.608-1.611-3.719-2.21c-1.11-0.598-2.091-1.202-2.179-1.343
			c-0.089-0.141-0.508-0.403-0.932-0.584c-0.881-0.378-1.492-0.738-3.297-1.944c-0.707-0.474-1.615-1.008-2.019-1.188
			c-0.723-0.325-1.004-0.489-2.979-1.737c-1.313-0.829-0.942-1.339,1.78-2.436c1.11-0.447,2.507-1.075,3.105-1.396
			c0.597-0.32,2.414-1.165,4.036-1.877c1.622-0.714,3.647-1.62,4.501-2.016c0.854-0.396,2.67-1.238,4.037-1.871
			c1.366-0.634,4.37-1.985,6.675-3.003c2.305-1.02,5.519-2.482,7.14-3.252c1.623-0.771,3.579-1.68,4.347-2.02
			c0.769-0.34,2.147-0.969,3.063-1.395c0.917-0.428,2.803-1.263,4.192-1.856c1.389-0.594,4.271-1.895,6.406-2.89
			c5.972-2.786,8.062-3.739,8.202-3.739c0.069,0,1.571-0.681,3.336-1.513c4.523-2.131,6.569-3.063,9.418-4.289
			c1.366-0.587,3.393-1.498,4.502-2.022c1.11-0.523,2.856-1.331,3.881-1.793c1.024-0.462,2.747-1.243,3.829-1.735
			c1.083-0.492,2.095-1.132,2.251-1.425c0.168-0.315,0.284-21.379,0.284-51.779c0-28.186,0.089-51.248,0.198-51.248
			S148.179,12.45,148.409,12.749 M136.243,34.957c-0.245,0.637,0.022,1.466,0.472,1.466c0.398,0,0.411-0.929,0.022-1.544
			C136.489,34.487,136.418,34.499,136.243,34.957 M128.032,45.582c0,0.285,0.15,0.467,0.333,0.406
			c0.184-0.062,0.333-0.244,0.333-0.406s-0.15-0.344-0.333-0.406C128.183,45.114,128.032,45.297,128.032,45.582 M127.933,49.373
			c-0.095,0.151-0.057,0.458,0.081,0.682c0.191,0.309,0.307,0.317,0.48,0.036c0.126-0.204,0.089-0.511-0.081-0.682
			C128.239,49.235,128.028,49.219,127.933,49.373 M126.066,51.532c-0.322,0.322-0.244,1.345,0.103,1.345
			c0.172,0,0.311-0.349,0.311-0.776C126.48,51.289,126.408,51.19,126.066,51.532 M121.823,56.138c0,0.462,0.133,0.73,0.31,0.621
			c0.171-0.105,0.311-0.385,0.311-0.621c0-0.236-0.14-0.516-0.311-0.621C121.956,55.407,121.823,55.675,121.823,56.138
			 M103.194,91.202c0,0.437,0.14,0.795,0.311,0.795c0.171,0,0.311-0.271,0.311-0.603c0-0.331-0.14-0.689-0.311-0.795
			C103.329,90.491,103.194,90.752,103.194,91.202 M96.894,97.509c-0.183,0.952-0.011,1.417,0.423,1.149
			c0.367-0.227,0.378-1.603,0.014-1.828C97.179,96.738,96.982,97.043,96.894,97.509 M125.704,122.113
			c-0.109,0.176,0.146,0.311,0.583,0.311c0.428,0,0.863-0.139,0.969-0.311c0.108-0.176-0.147-0.311-0.585-0.311
			C126.245,121.802,125.809,121.941,125.704,122.113 M219.931,175.85c-19.899,11.762-21.661,12.801-25.769,15.195
			c-2.135,1.244-4.09,2.433-4.347,2.64c-0.256,0.208-1.164,0.769-2.018,1.248c-1.42,0.798-4.087,2.325-5.394,3.09
			c-0.461,0.27-2.122,1.277-4.231,2.564c-0.341,0.209-1.319,0.749-2.173,1.201c-0.854,0.451-2.142,1.225-2.86,1.718
			c-0.72,0.492-1.977,1.253-2.794,1.688c-5.71,3.045-23.273,13.783-23.604,14.432c-0.544,1.065-0.568,57.308-0.024,58.501
			c0.286,0.629,0.28,1.332-0.026,3.155c-0.283,1.687-0.3,2.441-0.057,2.684c0.186,0.185,0.336,1.2,0.336,2.255
			c0,2.609,0.624,3.187,1.81,1.673c0.925-1.181,5.343-7.334,9.367-13.043c1.452-2.062,3.338-4.713,4.19-5.895
			c2.507-3.47,4.39-6.114,7.177-10.081c1.44-2.049,3.376-4.773,4.299-6.054c0.923-1.281,3.008-4.215,4.633-6.521
			c1.623-2.305,4.531-6.402,6.462-9.106c1.931-2.702,4.277-6,5.218-7.326c4.402-6.218,7.458-10.518,9.236-12.996
			c1.065-1.488,2.719-3.855,3.673-5.263s2.317-3.323,3.028-4.259c0.712-0.934,1.783-2.408,2.38-3.274
			c0.598-0.867,1.786-2.541,2.641-3.722c0.853-1.181,2.365-3.306,3.359-4.724c0.992-1.416,3.495-4.951,5.557-7.854
			c4.354-6.127,5.269-7.417,8.004-11.309c1.109-1.578,2.662-3.734,3.449-4.79C234.926,167.019,234.783,167.07,219.931,175.85
			 M230.585,172.189c-2.159,3.143-3.631,5.173-4.27,5.886c-0.267,0.298-0.485,0.614-0.485,0.701c0,0.181-2.109,3.222-2.617,3.773
			c-0.183,0.198-1.03,1.351-1.885,2.563c-0.854,1.209-2.076,2.896-2.717,3.743c-0.64,0.849-1.164,1.61-1.164,1.691
			c0,0.082-0.663,1.058-1.475,2.166s-1.964,2.727-2.561,3.596c-0.599,0.87-1.786,2.547-2.64,3.727
			c-2.863,3.957-7.136,9.958-7.606,10.683c-0.926,1.425-1.697,2.521-1.885,2.672c-0.271,0.222-2.462,3.38-2.462,3.552
			c0,0.077-0.344,0.514-0.765,0.968c-0.42,0.454-0.944,1.229-1.163,1.724s-0.486,0.898-0.596,0.898c-0.174,0-2.709,3.524-3.531,4.91
			c-0.17,0.288-0.387,0.594-0.48,0.679c-0.096,0.085-0.794,1.063-1.554,2.172c-0.759,1.111-1.52,2.184-1.691,2.385
			c-0.17,0.201-0.798,1.08-1.396,1.952s-1.785,2.545-2.64,3.717c-0.853,1.171-1.762,2.443-2.018,2.825
			c-0.257,0.382-0.779,1.081-1.164,1.55c-0.385,0.473-0.699,0.999-0.699,1.174s-0.113,0.364-0.25,0.421
			c-0.138,0.057-1.067,1.292-2.066,2.743c-2.356,3.418-3.048,4.401-3.427,4.863c-0.357,0.435-1.675,2.284-7.49,10.505
			c-2.295,3.243-4.9,6.93-5.793,8.188c-0.892,1.26-2.282,3.175-3.095,4.258c-0.811,1.082-1.475,2.091-1.475,2.241
			c0,0.151-0.279,0.526-0.621,0.836c-0.341,0.309-0.621,0.749-0.621,0.979c0,0.23-0.145,0.419-0.32,0.419
			c-0.175,0-0.412,0.244-0.527,0.543c-0.113,0.299-0.317,0.684-0.451,0.854s-0.596,0.75-1.023,1.287
			c-0.431,0.538-0.781,1.131-0.781,1.32c0,0.188-0.129,0.342-0.285,0.342c-0.157,0-0.607,0.524-1.001,1.164
			c-1.579,2.577-3.559,5.045-4.047,5.045c-0.656,0-0.293-68.483,0.366-69.081c0.74-0.669,1.698-1.244,2.871-1.727
			c0.469-0.192,0.853-0.447,0.853-0.565s0.804-0.614,1.786-1.101c0.981-0.488,2.204-1.186,2.716-1.551
			c0.513-0.365,1.282-0.835,1.708-1.045c0.427-0.211,1.195-0.656,1.708-0.994c0.513-0.337,1.21-0.765,1.553-0.95
			c1.283-0.696,2.523-1.429,3.796-2.245c0.723-0.462,1.38-0.842,1.46-0.842s0.759-0.415,1.51-0.921c0.75-0.505,1.7-1.064,2.11-1.24
			c0.412-0.176,1.027-0.494,1.368-0.706c0.343-0.211,1.32-0.821,2.174-1.354c2.063-1.286,4.168-2.521,5.123-3.002
			c0.426-0.215,1.341-0.738,2.03-1.162c1.528-0.943,1.485-0.918,6.663-3.982c2.305-1.364,4.639-2.736,5.186-3.051
			c2.625-1.506,12.951-7.681,14.314-8.561c0.46-0.296,1.143-0.675,1.52-0.841c0.376-0.166,1.284-0.687,2.019-1.159
			c0.733-0.47,1.963-1.194,2.731-1.604c0.769-0.413,1.998-1.15,2.731-1.641c0.734-0.49,1.44-0.892,1.568-0.892
			s0.405-0.175,0.617-0.388c0.456-0.458,3.562-2.235,4.785-2.737c0.469-0.192,0.853-0.477,0.853-0.63
			c0-0.155,0.175-0.281,0.389-0.281s1.436-0.67,2.717-1.489c1.281-0.821,2.538-1.596,2.794-1.721
			c0.256-0.126,0.808-0.425,1.225-0.663C232.484,168.979,232.35,169.62,230.585,172.189 M70.021,174.877
			c0.133,0.4,0.56,0.473,0.598,0.101c0.013-0.123-0.145-0.28-0.35-0.349S69.952,174.672,70.021,174.877 M78.512,180.171
			c0.105,0.171,0.463,0.311,0.795,0.311s0.602-0.14,0.602-0.311s-0.357-0.311-0.794-0.311
			C78.664,179.86,78.403,179.995,78.512,180.171 M100.245,192.589c0.105,0.171,0.394,0.312,0.639,0.312
			c0.247,0,0.448-0.141,0.448-0.312c0-0.17-0.289-0.309-0.64-0.309C100.34,192.28,100.139,192.419,100.245,192.589 M108.292,197.6
			c-0.091,0.146,0.26,0.269,0.783,0.269c0.522,0,0.95-0.055,0.95-0.119C110.025,197.485,108.446,197.349,108.292,197.6
			 M105.168,225.656c-0.107,0.278-0.054,0.646,0.116,0.815c0.207,0.207,0.366,0.098,0.478-0.33
			C105.965,225.365,105.443,224.939,105.168,225.656 M109.251,233.256c-0.229,0.371,0.062,0.937,0.481,0.937
			c0.377,0,0.379-0.84,0.003-1.073C109.577,233.021,109.358,233.083,109.251,233.256 M126.079,257.167
			c0.089,0.343,0.272,0.621,0.408,0.621c0.135,0,0.172-0.278,0.083-0.621c-0.089-0.341-0.272-0.62-0.407-0.62
			C126.027,256.547,125.99,256.826,126.079,257.167 M137.041,268.887c0.013,0.681,0.606,1.133,0.611,0.468
			c0.002-0.386-0.135-0.7-0.306-0.7S137.038,268.759,137.041,268.887"/>
		<path id="path4" fill="#9C9C9C" d="M146.915,11.092c-0.226,0.242-1.736,2.697-3.359,5.455c-3.369,5.732-3.448,5.863-6.327,10.611
			c-1.174,1.937-2.376,3.871-2.672,4.298c-0.295,0.427-0.889,1.404-1.319,2.173c-0.703,1.258-7.175,12.058-11.683,19.497
			c-2.312,3.814-2.865,4.735-7.923,13.192c-2.369,3.964-4.63,7.695-5.023,8.293c-0.393,0.598-1.541,2.484-2.552,4.192
			c-1.01,1.707-2.529,4.223-3.376,5.589c-0.846,1.367-1.758,2.904-2.026,3.415c-0.268,0.512-1.481,2.537-2.695,4.501
			c-2.296,3.71-4.107,6.706-5.364,8.871c-0.403,0.695-1.823,3.071-3.153,5.278c-1.331,2.207-4.011,6.668-5.956,9.912
			c-1.944,3.244-4.019,6.667-4.61,7.607c-0.591,0.938-2.329,3.803-3.862,6.364c-1.534,2.563-4.434,7.381-6.446,10.712
			c-2.01,3.329-3.849,6.404-4.084,6.83c-0.235,0.427-1.257,2.076-2.271,3.663c-2.463,3.855-2.489,3.63,0.619,5.545
			c3.613,2.227,4.076,2.502,4.968,2.952c0.427,0.215,1.334,0.743,2.018,1.173c2.146,1.349,2.465,1.534,3.231,1.878
			c0.411,0.184,1.361,0.748,2.111,1.255c0.75,0.507,1.486,0.92,1.636,0.92c0.15,0,0.458,0.177,0.683,0.393
			c0.226,0.215,0.759,0.569,1.187,0.789c0.84,0.429,1.355,0.737,3.26,1.952c0.683,0.437,1.452,0.894,1.708,1.018
			s0.979,0.533,1.606,0.909c3.816,2.289,7.689,4.593,8.546,5.083c1.555,0.889,29.24,17.229,33.109,19.541
			c0.826,0.494,1.873,1.14,2.328,1.436c0.455,0.298,1.134,0.675,1.51,0.841c0.375,0.166,1.284,0.688,2.018,1.16
			c0.734,0.471,1.963,1.214,2.732,1.649c2.096,1.189,3.287,1.904,5.227,3.144c0.967,0.616,2.499,1.524,3.405,2.017
			c0.905,0.493,1.952,1.075,2.328,1.292c1.12,0.651,2.11,0.247,7.988-3.258c3.088-1.841,6.339-3.751,7.226-4.246
			c0.888-0.493,2.194-1.283,2.902-1.754c0.711-0.472,1.584-0.949,1.941-1.063c0.357-0.113,0.649-0.336,0.649-0.495
			s0.123-0.29,0.272-0.29c0.258,0,2.239-1.097,4.027-2.229c0.453-0.287,1.468-0.871,2.258-1.301c0.789-0.429,1.976-1.15,2.639-1.604
			c0.662-0.454,1.524-0.95,1.916-1.102c0.391-0.152,1.662-0.898,2.827-1.658c1.165-0.762,2.7-1.706,3.412-2.1
			c1.61-0.892,2.81-1.597,5.578-3.278c1.195-0.726,2.242-1.319,2.323-1.319c0.083,0,0.895-0.488,1.803-1.087
			c0.907-0.599,1.763-1.087,1.902-1.087c0.315,0,2.208-1.313,2.349-1.63c0.058-0.128,0.238-0.232,0.399-0.232
			c0.164,0,2.284-1.167,4.71-2.594c3.858-2.268,18.507-10.921,19.78-11.685c3.18-1.907,6.71-3.973,7.383-4.321
			c0.464-0.239,0.891-0.553,0.948-0.698c0.057-0.145,0.269-0.262,0.471-0.262c1.922,0,3.262-2.554,2.137-4.072
			c-0.3-0.407-0.88-1.37-1.288-2.138c-0.407-0.769-0.909-1.606-1.118-1.863c-0.208-0.256-1.41-2.185-2.67-4.288
			c-1.261-2.103-2.604-4.337-2.983-4.968c-0.38-0.629-0.834-1.424-1.009-1.766c-0.372-0.729-0.739-1.309-2.103-3.318
			c-0.556-0.819-1.01-1.569-1.01-1.669c0-0.159-1.771-3.159-3.104-5.259c-0.257-0.403-1.652-2.712-3.104-5.131
			c-1.451-2.419-2.881-4.768-3.178-5.221c-0.297-0.453-0.689-1.167-0.872-1.586c-0.183-0.419-0.854-1.538-1.492-2.484
			c-0.639-0.946-1.845-2.908-2.678-4.359c-0.835-1.452-1.806-3.05-2.159-3.552s-1.063-1.647-1.575-2.545
			c-0.769-1.347-4.203-7.105-6.8-11.398c-0.325-0.538-0.748-1.258-0.939-1.599c-0.307-0.546-0.953-1.616-2.26-3.737
			c-0.206-0.336-1.242-2.077-2.304-3.87c-1.06-1.792-2.011-3.33-2.113-3.415c-0.103-0.085-0.361-0.504-0.572-0.931
			c-0.212-0.427-0.662-1.195-1.001-1.708c-0.337-0.513-0.787-1.281-0.999-1.708c-0.211-0.427-0.463-0.846-0.559-0.931
			c-0.095-0.085-1.076-1.668-2.179-3.518c-2.407-4.032-2.022-3.393-7.122-11.851c-2.267-3.756-4.321-7.18-4.567-7.606
			c-0.247-0.427-1.893-3.151-3.658-6.054c-1.765-2.903-5.074-8.395-7.354-12.203c-2.279-3.809-4.354-7.254-4.609-7.658
			c-0.256-0.401-1.157-1.896-2.002-3.32c-0.847-1.423-1.618-2.658-1.715-2.744c-0.097-0.085-0.351-0.504-0.561-0.931
			c-0.213-0.427-0.654-1.195-0.982-1.708s-0.898-1.49-1.268-2.173C148.786,10.97,147.788,10.159,146.915,11.092 M148.551,11.983
			c0.452,0.632,8.988,14.684,10.226,16.833c0.295,0.512,2.106,3.516,4.025,6.675s5.202,8.608,7.293,12.108
			c3.126,5.231,5.407,9.012,9.178,15.213c0.369,0.607,3.156,5.274,3.558,5.958c0.171,0.291,3.523,5.848,7.451,12.347
			c3.928,6.5,8.835,14.646,10.904,18.101c2.07,3.456,5.754,9.566,8.188,13.579c2.434,4.013,5.508,9.113,6.834,11.332
			c1.327,2.22,4.236,7.04,6.465,10.712c9.051,14.905,11.696,19.433,11.696,20.025c0,0.483-2.234,1.938-10.249,6.675
			c-5.636,3.329-14.146,8.36-18.91,11.178c-4.764,2.817-9.232,5.449-9.931,5.848c-0.7,0.399-1.62,0.954-2.047,1.231
			c-0.428,0.277-1.196,0.731-1.708,1.012c-0.512,0.278-2.092,1.191-3.509,2.03c-1.419,0.835-2.815,1.66-3.105,1.831
			c-0.29,0.172-1.713,1.03-3.166,1.909c-1.45,0.879-3.083,1.857-3.626,2.174c-1.438,0.836-9.264,5.462-13.76,8.132
			c-12.994,7.715-16.469,9.65-16.992,9.462c-0.303-0.107-5.929-3.37-12.502-7.247c-6.575-3.879-18.66-10.997-26.856-15.821
			c-8.196-4.824-15.251-9.011-15.679-9.306c-0.427-0.293-0.986-0.625-1.242-0.737s-0.675-0.34-0.932-0.507
			c-0.801-0.52-5.836-3.523-11.332-6.756c-2.903-1.707-8.177-4.824-11.721-6.927l-6.443-3.821l0.499-0.801
			c0.273-0.44,0.756-1.028,1.074-1.306c0.735-0.644,2.776-4.109,2.776-4.714c0-0.251,0.209-0.538,0.465-0.637
			c0.256-0.097,0.466-0.358,0.466-0.579c0-0.22,0.279-0.575,0.621-0.788c0.341-0.214,0.621-0.658,0.621-0.989
			c0-0.328,0.148-0.69,0.33-0.803c0.181-0.112,0.46-0.504,0.621-0.872c0.443-1.02,1.026-1.882,1.456-2.159
			c0.213-0.137,0.388-0.515,0.388-0.841c0-0.327,0.293-0.867,0.653-1.202c0.75-0.698,1.521-2.077,1.521-2.721
			c0-0.242,0.209-0.52,0.466-0.619c0.256-0.098,0.465-0.415,0.465-0.703c0-0.289,0.214-0.798,0.476-1.131
			c0.733-0.936,2.667-3.949,2.979-4.643c0.154-0.342,0.556-1.04,0.893-1.552c0.337-0.512,0.709-1.131,0.826-1.376
			c0.117-0.244,0.678-1.149,1.245-2.01c0.568-0.862,1.032-1.731,1.032-1.929c0-0.199,0.209-0.442,0.466-0.541
			c0.256-0.098,0.465-0.463,0.465-0.809c0-0.347,0.124-0.631,0.273-0.631c0.15,0,0.663-0.768,1.138-1.708
			c0.475-0.939,0.972-1.708,1.103-1.708c0.132,0,0.337-0.314,0.457-0.699c0.119-0.383,0.654-1.396,1.188-2.25
			c0.535-0.854,1.146-1.833,1.357-2.174c0.212-0.341,0.521-0.935,0.687-1.319c0.167-0.384,0.431-0.698,0.59-0.698
			c0.158,0,0.439-0.384,0.625-0.854c0.39-0.991,0.747-1.568,2.131-3.451c0.555-0.754,1.008-1.604,1.008-1.887
			c0-0.283,0.156-0.67,0.346-0.86c0.387-0.387,1.019-1.439,1.496-2.495c0.174-0.384,0.446-0.699,0.604-0.699
			c0.159,0,0.449-0.384,0.646-0.854c0.423-1.006,1.237-2.482,2.043-3.704c0.317-0.481,0.881-1.435,1.251-2.117
			c0.371-0.684,0.937-1.728,1.258-2.321c0.321-0.593,0.737-1.222,0.926-1.397c0.189-0.175,0.862-1.227,1.497-2.336
			c0.634-1.11,1.284-2.228,1.443-2.483c0.159-0.257,0.414-0.751,0.566-1.1c0.153-0.348,0.501-0.82,0.775-1.047
			c0.274-0.228,0.499-0.546,0.499-0.708c0-0.161,0.209-0.504,0.465-0.76c0.256-0.256,0.466-0.735,0.466-1.065
			c0-0.329,0.132-0.598,0.293-0.598c0.273,0,0.618-0.525,1.63-2.484c0.22-0.427,0.507-0.916,0.637-1.086
			c0.656-0.862,2.717-4.142,2.717-4.325c0-0.116,0.633-1.179,1.406-2.363c0.772-1.184,1.492-2.398,1.601-2.7
			c0.106-0.301,0.64-1.105,1.186-1.789s1.296-1.871,1.667-2.64c0.744-1.54,1.014-1.995,2.375-4.005
			c0.508-0.751,1.026-1.52,1.15-1.708c0.124-0.188,0.437-0.831,0.696-1.428c0.26-0.597,1.014-1.933,1.675-2.968
			c0.663-1.035,1.307-2.202,1.431-2.592c0.123-0.39,0.425-0.94,0.669-1.223c0.752-0.866,3.177-4.63,3.679-5.706
			c0.259-0.559,0.75-1.436,1.09-1.948c0.34-0.512,0.716-1.141,0.835-1.396c0.12-0.257,0.645-1.102,1.167-1.878
			c1.408-2.092,1.673-2.531,2.155-3.555c0.24-0.512,0.801-1.413,1.247-2.001c0.444-0.588,0.808-1.251,0.808-1.475
			c0-0.222,0.147-0.404,0.324-0.404c0.18,0,0.633-0.665,1.011-1.475c0.376-0.812,1.139-2.146,1.693-2.965
			c0.555-0.82,1.008-1.577,1.008-1.683c0-0.106,0.19-0.413,0.423-0.683c0.231-0.27,0.947-1.468,1.589-2.663
			c0.643-1.195,1.345-2.383,1.563-2.639s0.99-1.654,1.717-3.104C147.634,10.91,147.721,10.825,148.551,11.983 M227.072,170.997
			c-3.5,2.102-6.993,4.164-7.762,4.581s-2.025,1.162-2.794,1.656c-0.77,0.494-2.026,1.239-2.795,1.654
			c-0.768,0.416-1.956,1.115-2.638,1.556c-1.67,1.076-2.027,1.287-3.94,2.33c-0.905,0.493-2.554,1.453-3.665,2.134
			c-1.111,0.682-2.649,1.589-3.417,2.018c-0.769,0.427-1.618,0.968-1.888,1.202c-0.271,0.234-0.622,0.425-0.784,0.425
			c-0.16,0-1.057,0.506-1.992,1.121c-0.935,0.617-2.572,1.591-3.639,2.168c-1.064,0.576-2.531,1.428-3.26,1.896
			c-1.546,0.992-2.656,1.655-4.581,2.731c-0.77,0.43-2.377,1.404-3.571,2.163c-1.195,0.76-2.32,1.388-2.499,1.395
			c-0.18,0.008-0.501,0.188-0.713,0.402c-0.211,0.213-1.144,0.807-2.07,1.318c-2.018,1.115-21.509,12.641-23.281,13.768
			c-2.165,1.374-3.894,2.222-4.536,2.222c-0.738,0-1.819-0.596-10.916-6.021c-3.973-2.369-10.674-6.328-21.339-12.608
			c-7.918-4.664-18.827-11.099-21.578-12.731c-1.366-0.811-4.929-2.908-7.917-4.662c-2.989-1.755-6.132-3.639-6.986-4.188
			c-0.854-0.551-3.02-1.833-4.813-2.849c-1.793-1.017-3.85-2.223-4.573-2.679c-0.722-0.458-1.376-0.831-1.453-0.831
			s-0.996-0.57-2.044-1.266c-2.942-1.955-4.324-2.3-3.904-0.976c0.164,0.518,7.541,11.156,9.949,14.349
			c0.916,1.212,2.559,3.522,4.199,5.899c0.597,0.867,1.995,2.824,3.104,4.351c1.11,1.527,2.684,3.721,3.495,4.877
			c0.813,1.158,2.965,4.2,4.784,6.761c1.818,2.563,3.94,5.565,4.715,6.675c1.718,2.465,3.678,5.226,5.176,7.297
			c0.619,0.854,2.85,3.998,4.959,6.986c2.109,2.987,4.58,6.47,5.488,7.739c0.909,1.269,2.292,3.225,3.075,4.347
			c1.859,2.668,11.407,16.13,15.65,22.065c1.853,2.593,9.512,13.398,14.814,20.897c5.574,7.886,6.115,8.597,6.551,8.597
			c0.52,0,1.741-1.37,3.179-3.57c0.67-1.024,1.328-2.002,1.462-2.173c0.614-0.787,2.41-3.257,3.441-4.735
			c2.373-3.399,6.406-9.091,8.486-11.978c0.882-1.225,2.412-3.414,3.4-4.865c0.989-1.452,2.223-3.216,2.743-3.923
			c0.52-0.706,1.155-1.599,1.411-1.983s0.779-1.084,1.164-1.555c0.384-0.471,0.699-0.95,0.699-1.065
			c0-0.116,0.174-0.394,0.387-0.617c0.214-0.223,0.6-0.711,0.854-1.084c0.256-0.374,1.164-1.638,2.019-2.81
			c1.857-2.549,3.768-5.238,6.84-9.628c2.1-3,3.274-4.662,6.424-9.088c0.635-0.892,1.294-1.787,1.465-1.987
			c0.172-0.202,0.909-1.249,1.64-2.329c0.73-1.081,1.436-2.103,1.566-2.273c1.266-1.658,2.4-3.251,2.4-3.373
			c0-0.082,0.874-1.321,1.94-2.755c1.067-1.432,3.687-5.094,5.821-8.136c2.134-3.041,4.718-6.665,5.74-8.053s2.001-2.76,2.174-3.051
			c0.368-0.622,2.591-3.785,4.971-7.077c0.926-1.28,2.325-3.236,3.107-4.347c0.784-1.109,3.367-4.741,5.741-8.073
			c6.997-9.815,7.852-11.114,7.654-11.629C234.115,166.823,233.703,167.013,227.072,170.997 M233.592,168.542
			c0,0.187-2.774,4.218-5.439,7.903c-0.926,1.28-2.17,3.027-2.764,3.88c-0.593,0.854-1.68,2.405-2.415,3.445
			c-0.734,1.041-2.243,3.183-3.353,4.757c-1.109,1.577-2.717,3.83-3.57,5.009c-2.179,3.007-3.892,5.41-9.109,12.78
			c-2.504,3.536-5.461,7.712-6.57,9.28c-3.532,4.99-3.831,5.409-6.515,9.166c-1.449,2.027-2.975,4.176-3.391,4.773
			c-1.381,1.983-2.479,3.533-5.277,7.451c-1.524,2.134-3.215,4.509-3.756,5.277s-2.233,3.144-3.762,5.277
			c-1.528,2.135-3.709,5.209-4.847,6.832c-1.139,1.621-4.457,6.301-7.376,10.4c-2.918,4.098-6.127,8.639-7.13,10.09
			c-1.002,1.451-2.463,3.506-3.248,4.563c-0.783,1.06-1.914,2.639-2.512,3.511c-4.212,6.146-4.783,6.667-5.597,5.103
			c-0.665-1.279-4.171-6.461-5.644-8.341c-0.392-0.501-0.813-1.163-0.936-1.475c-0.123-0.313-0.367-0.567-0.543-0.567
			s-0.32-0.154-0.32-0.344c0-0.188-0.674-1.202-1.497-2.251s-1.829-2.466-2.233-3.148c-0.406-0.683-0.92-1.354-1.143-1.49
			c-0.223-0.137-0.405-0.39-0.405-0.562c0-0.297-1.664-2.679-2.578-3.693c-0.23-0.255-1.245-1.722-2.252-3.258
			c-1.008-1.538-2.091-3.074-2.408-3.416s-0.788-1.027-1.049-1.525c-0.261-0.497-0.808-1.264-1.215-1.704
			c-0.409-0.439-0.743-0.941-0.744-1.113c0-0.174-0.49-0.846-1.087-1.496c-0.596-0.65-1.094-1.278-1.105-1.397
			c-0.012-0.117-0.637-1.053-1.389-2.078c-0.752-1.024-1.879-2.614-2.505-3.531c-0.626-0.921-1.398-1.895-1.716-2.165
			c-0.318-0.273-0.578-0.713-0.578-0.979s-0.245-0.714-0.543-0.995c-1.115-1.054-4.735-6.204-4.735-6.739
			c0-0.133-0.294-0.508-0.655-0.833c-0.36-0.325-1.142-1.324-1.738-2.222c-0.596-0.896-1.209-1.63-1.363-1.63
			c-0.155,0-0.28-0.189-0.28-0.42c0-0.232-0.489-1.063-1.086-1.845c-0.598-0.783-1.087-1.5-1.087-1.593s-0.908-1.346-2.018-2.783
			s-2.018-2.771-2.018-2.964c0-0.193-0.21-0.431-0.466-0.527c-0.255-0.1-0.465-0.379-0.465-0.622c0-0.244-0.209-0.522-0.466-0.62
			c-0.256-0.1-0.466-0.437-0.466-0.75s-0.244-0.753-0.543-0.975c-0.299-0.225-1.645-2.052-2.991-4.062
			c-1.346-2.011-2.775-3.966-3.177-4.347c-0.402-0.381-0.732-0.844-0.735-1.032c-0.004-0.187-0.285-0.593-0.627-0.901
			c-0.341-0.31-0.621-0.696-0.621-0.86c0-0.165-0.699-1.187-1.553-2.273c-0.854-1.087-1.552-2.107-1.552-2.267
			c0-0.16-0.106-0.338-0.235-0.396c-0.13-0.056-1.003-1.201-1.941-2.546s-1.949-2.707-2.248-3.027s-0.543-0.727-0.543-0.903
			c0-0.176-0.209-0.4-0.465-0.498c-0.256-0.099-0.466-0.422-0.466-0.72c0-0.296-0.279-0.793-0.621-1.101
			c-0.341-0.31-0.621-0.672-0.621-0.805c0-0.135-0.419-0.703-0.931-1.264c-0.512-0.561-0.931-1.173-0.931-1.361
			c0-0.186-0.419-0.81-0.932-1.383c-0.512-0.574-0.932-1.289-0.932-1.588s-0.279-0.632-0.621-0.741
			c-0.341-0.107-0.621-0.305-0.621-0.438c0-0.133-0.28-0.564-0.622-0.958c-0.341-0.395-0.621-0.899-0.621-1.123
			c0-0.225-0.279-0.558-0.621-0.739c-0.341-0.183-0.621-0.49-0.621-0.683s-0.81-1.41-1.8-2.706c-0.991-1.296-2.31-3.136-2.93-4.087
			c-0.622-0.952-1.348-1.912-1.614-2.134c-0.268-0.222-0.485-0.597-0.485-0.833c0-0.237-0.272-0.664-0.606-0.948
			c-1.689-1.447,0.131-1.074,2.104,0.43c0.738,0.563,1.603,1.025,1.921,1.025s0.657,0.125,0.752,0.279
			c0.297,0.482,3.517,2.514,3.982,2.514c0.244,0,0.765,0.281,1.159,0.621c0.393,0.343,0.821,0.622,0.951,0.622
			c0.129,0,0.979,0.487,1.886,1.087c0.907,0.598,1.816,1.087,2.02,1.087s0.416,0.104,0.473,0.232
			c0.191,0.43,3.385,2.371,7.299,4.435c0.542,0.286,1.216,0.75,1.497,1.031c0.281,0.28,0.78,0.51,1.11,0.51
			c0.329,0,0.598,0.143,0.598,0.318c0,0.175,0.314,0.462,0.699,0.638c1.198,0.546,2.554,1.304,2.716,1.518
			c0.233,0.305,3.925,2.494,4.208,2.494c0.135,0,0.466,0.198,0.736,0.44c0.269,0.243,1.188,0.811,2.042,1.26s2.111,1.156,2.794,1.57
			c0.683,0.413,1.486,0.841,1.785,0.95s0.543,0.311,0.543,0.448c0,0.137,0.419,0.342,0.931,0.454
			c0.512,0.113,0.932,0.312,0.932,0.442c0,0.324,4.221,2.817,4.769,2.817c0.243,0,0.515,0.191,0.605,0.427
			c0.09,0.234,0.838,0.748,1.664,1.143c0.824,0.394,1.572,0.822,1.661,0.951c0.09,0.13,0.508,0.391,0.932,0.582
			c1.477,0.663,2.641,1.342,3.72,2.17c0.598,0.459,2.134,1.382,3.413,2.05c1.279,0.669,2.512,1.391,2.738,1.604
			c0.227,0.212,0.548,0.388,0.713,0.388c0.351,0,2.245,1.287,2.396,1.63c0.058,0.128,0.351,0.232,0.652,0.232
			c0.3,0,0.87,0.279,1.263,0.621c0.394,0.341,0.893,0.622,1.108,0.622c0.217,0,0.439,0.11,0.497,0.246
			c0.083,0.198,3.833,2.493,7.865,4.811c0.342,0.196,1.18,0.705,1.863,1.13c0.683,0.425,1.708,1.015,2.279,1.31l1.036,0.538
			l6.415-3.766c3.527-2.071,9.418-5.53,13.089-7.688c3.672-2.158,10.308-6.057,14.748-8.666c4.439-2.607,8.561-5.053,9.158-5.433
			c1.541-0.979,6.089-3.679,7.87-4.673c0.829-0.461,2.155-1.236,2.949-1.723c0.795-0.485,3.051-1.819,5.015-2.963
			c1.964-1.146,4.059-2.396,4.656-2.778c0.6-0.384,3.532-2.131,6.521-3.885c2.987-1.754,7.598-4.483,10.246-6.065
			C231.543,168.814,233.592,167.904,233.592,168.542"/>
	</g>
</g>
<g id="Layer_2">
</g>
</svg>
