<svg width="48" height="48" viewBox="0 0 48 48" fill="none" xmlns="http://www.w3.org/2000/svg">
<path d="M44.5706 24.0001C44.5706 28.7594 42.9204 33.3715 39.9011 37.0505C36.8818 40.7295 32.6803 43.2478 28.0124 44.1763C23.3446 45.1048 18.4992 44.386 14.3019 42.1425C10.1045 39.899 6.81495 36.2695 4.99364 31.8725C3.17233 27.4755 2.93198 22.5829 4.31353 18.0286C5.69509 13.4742 8.61307 9.53975 12.5703 6.89562C16.5275 4.25149 21.2791 3.06127 26.0155 3.52777C30.7519 3.99426 35.18 6.0886 38.5454 9.45394L29.0903 18.909C27.9125 17.7311 26.3626 16.9981 24.7049 16.8348C23.0471 16.6715 21.3841 17.0881 19.9991 18.0136C18.614 18.939 17.5927 20.3161 17.1092 21.9101C16.6256 23.5041 16.7098 25.2165 17.3472 26.7555C17.9847 28.2944 19.136 29.5647 20.6051 30.35C22.0742 31.1352 23.7701 31.3868 25.4038 31.0618C27.0376 30.7368 28.5081 29.8554 29.5648 28.5678C30.6216 27.2801 31.1992 25.6659 31.1992 24.0001H44.5706Z" fill="#6B38FD" fill-opacity="0.15"/>
<mask id="path-2-inside-1_8276_8685" fill="white">
<path d="M24 0C27.2782 3.90916e-08 30.5216 0.671571 33.5302 1.9733C36.5388 3.27502 39.2489 5.1793 41.4932 7.56869C43.7375 9.95808 45.4686 12.7819 46.5796 15.8661C47.6906 18.9502 48.158 22.2293 47.953 25.501C47.748 28.7727 46.8749 31.9678 45.3876 34.8891C43.9002 37.8104 41.8302 40.3961 39.3051 42.4866C36.78 44.5771 33.8534 46.1282 30.7058 47.0441C27.5582 47.9601 24.2564 48.2215 21.0039 47.8122L23.1012 31.1437C24.0769 31.2664 25.0675 31.188 26.0118 30.9132C26.956 30.6385 27.834 30.1731 28.5915 29.546C29.3491 28.9188 29.9701 28.1431 30.4163 27.2667C30.8625 26.3903 31.1244 25.4318 31.1859 24.4503C31.2474 23.4688 31.1072 22.4851 30.7739 21.5598C30.4406 20.6346 29.9213 19.7874 29.248 19.0706C28.5747 18.3538 27.7616 17.7825 26.8591 17.392C25.9565 17.0015 24.9834 16.8 24 16.8V0Z"/>
</mask>
<path d="M24 0C27.2782 3.90916e-08 30.5216 0.671571 33.5302 1.9733C36.5388 3.27502 39.2489 5.1793 41.4932 7.56869C43.7375 9.95808 45.4686 12.7819 46.5796 15.8661C47.6906 18.9502 48.158 22.2293 47.953 25.501C47.748 28.7727 46.8749 31.9678 45.3876 34.8891C43.9002 37.8104 41.8302 40.3961 39.3051 42.4866C36.78 44.5771 33.8534 46.1282 30.7058 47.0441C27.5582 47.9601 24.2564 48.2215 21.0039 47.8122L23.1012 31.1437C24.0769 31.2664 25.0675 31.188 26.0118 30.9132C26.956 30.6385 27.834 30.1731 28.5915 29.546C29.3491 28.9188 29.9701 28.1431 30.4163 27.2667C30.8625 26.3903 31.1244 25.4318 31.1859 24.4503C31.2474 23.4688 31.1072 22.4851 30.7739 21.5598C30.4406 20.6346 29.9213 19.7874 29.248 19.0706C28.5747 18.3538 27.7616 17.7825 26.8591 17.392C25.9565 17.0015 24.9834 16.8 24 16.8V0Z" fill="#6237DE" stroke="#6237DE" stroke-width="2" mask="url(#path-2-inside-1_8276_8685)"/>
</svg>
