<svg width="40" height="40" viewBox="0 0 40 40" fill="none" xmlns="http://www.w3.org/2000/svg">
<path d="M39.3968 24.8382C36.7256 35.5525 25.8738 42.0731 15.1583 39.4012C4.44712 36.73 -2.07344 25.8776 0.599032 15.164C3.26901 4.44845 14.1208 -2.07273 24.8332 0.598491C35.5481 3.26971 42.068 14.1234 39.3968 24.8382Z" fill="url(#paint0_linear_8276_8718)"/>
<path d="M28.8121 17.1505C29.2102 14.4893 27.184 13.0587 24.4134 12.1043L25.3121 8.49936L23.1178 7.95249L22.2428 11.4625C21.6659 11.3187 21.0734 11.1831 20.4847 11.0487L21.3659 7.51562L19.1728 6.96875L18.2734 10.5725C17.7959 10.4637 17.3272 10.3562 16.8722 10.2431L16.8747 10.2318L13.8485 9.47622L13.2647 11.82C13.2647 11.82 14.8928 12.1931 14.8585 12.2162C15.7472 12.4381 15.9078 13.0262 15.881 13.4924L14.8572 17.5993C14.9185 17.6149 14.9978 17.6374 15.0853 17.6724C15.0122 17.6543 14.9341 17.6343 14.8535 17.6149L13.4185 23.368C13.3097 23.638 13.0341 24.043 12.4129 23.8892C12.4347 23.9211 10.8179 23.4911 10.8179 23.4911L9.72852 26.0029L12.5841 26.7148C13.1154 26.8479 13.636 26.9873 14.1485 27.1185L13.2404 30.7648L15.4322 31.3116L16.3316 27.7042C16.9303 27.8667 17.5116 28.0167 18.0803 28.1579L17.1841 31.7485L19.3784 32.2954L20.2865 28.656C24.0284 29.3641 26.8421 29.0785 28.0265 25.6942C28.9808 22.9692 27.979 21.3974 26.0102 20.3724C27.444 20.0417 28.524 19.0986 28.8121 17.1505ZM23.7984 24.1811C23.1203 26.906 18.5322 25.4329 17.0447 25.0636L18.2497 20.233C19.7372 20.6042 24.5071 21.3392 23.7984 24.1811ZM24.4771 17.1111C23.8584 19.5899 20.0397 18.3305 18.8009 18.0218L19.8934 13.6406C21.1322 13.9493 25.1215 14.5255 24.4771 17.1111Z" fill="white"/>
<defs>
<linearGradient id="paint0_linear_8276_8718" x1="0" y1="0" x2="0" y2="40" gradientUnits="userSpaceOnUse">
<stop stop-color="#F9AA4B"/>
<stop offset="1" stop-color="#F7931A"/>
</linearGradient>
</defs>
</svg>
