<svg width="24" height="24" viewBox="0 0 24 24" fill="none" xmlns="http://www.w3.org/2000/svg">
<path d="M20.8249 10.2373H20.1H12V13.8H17.0864C16.3443 15.8956 14.3503 17.4 12 17.4C9.01785 17.4 6.6 14.9822 6.6 12C6.6 9.01785 9.01785 6.6 12 6.6C13.3765 6.6 14.6289 7.1193 15.5824 7.96755L18.1281 5.4219C16.5207 3.92385 14.3706 3 12 3C7.02975 3 3 7.02975 3 12C3 16.9703 7.02975 21 12 21C16.9703 21 21 16.9703 21 12C21 11.3966 20.9379 10.8075 20.8249 10.2373Z" fill="#FBBC05"/>
<path d="M4.03711 7.81095L6.99406 9.9795C7.79416 7.9986 9.73186 6.6 11.9994 6.6C13.376 6.6 14.6283 7.1193 15.5819 7.96755L18.1275 5.4219C16.5201 3.92385 14.37 3 11.9994 3C8.54251 3 5.54461 4.95165 4.03711 7.81095Z" fill="#EA4335"/>
<path d="M12.0005 20.9999C14.3252 20.9999 16.4375 20.1103 18.0346 18.6635L15.2491 16.3064C14.3455 16.9909 13.2223 17.3999 12.0005 17.3999C9.65963 17.3999 7.67198 15.9073 6.92318 13.8242L3.98828 16.0855C5.47778 19.0001 8.50268 20.9999 12.0005 20.9999Z" fill="#34A853"/>
<path d="M20.825 10.2373H20.1L12 10.2373V13.8H17.0864C16.73 14.8066 16.0824 15.6747 15.2472 16.3069L15.2485 16.306L18.034 18.6631C17.8369 18.8422 21 16.5 21 12C21 11.3965 20.9379 10.8075 20.825 10.2373Z" fill="#4285F4"/>
</svg>
