<svg width="78" height="70" viewBox="0 0 78 70" fill="none" xmlns="http://www.w3.org/2000/svg">
<ellipse cx="57.1077" cy="58.7996" rx="11.1429" ry="11.2" fill="#6237DE"/>
<rect x="5.57129" y="5.59961" width="52.9286" height="53.2" rx="4" stroke="black" stroke-width="2.5"/>
<path d="M11.1426 13.6348H21.3165" stroke="black" stroke-width="2.5"/>
<path d="M11.1426 18.748L34.8817 18.748" stroke="black" stroke-width="2.5"/>
<path d="M11.1426 47.3567L23.703 34.6959L33.9083 44.9828L53.5339 25.2002" stroke="black" stroke-width="2.5"/>
<ellipse cx="5.57144" cy="5.6" rx="5.57144" ry="5.6" fill="black"/>
<path d="M38.7366 27.4635C38.4069 27.1361 38.1254 26.8445 37.8959 26.6004C38.1254 26.3563 38.4069 26.0647 38.7366 25.7373C39.7618 24.7191 41.2459 23.3611 43.0772 22.0049C46.7674 19.2721 51.7271 16.6504 57.1068 16.6504C62.4864 16.6504 67.4461 19.2721 71.1363 22.0049C72.9676 23.3611 74.4517 24.7191 75.4769 25.7373C75.8066 26.0647 76.0881 26.3563 76.3176 26.6004C76.0881 26.8445 75.8066 27.1361 75.4769 27.4635C74.4517 28.4817 72.9676 29.8397 71.1363 31.1959C67.4461 33.9287 62.4864 36.5504 57.1068 36.5504C51.7271 36.5504 46.7674 33.9287 43.0772 31.1959C41.2459 29.8397 39.7618 28.4817 38.7366 27.4635Z" fill="white" stroke="black" stroke-width="2.5"/>
<path d="M67.0006 26.6004C67.0006 32.1017 62.5654 36.5504 57.1077 36.5504C51.6501 36.5504 47.2148 32.1017 47.2148 26.6004C47.2148 21.0991 51.6501 16.6504 57.1077 16.6504C62.5654 16.6504 67.0006 21.0991 67.0006 26.6004Z" fill="#51D9B8" stroke="black" stroke-width="2.5"/>
</svg>
