<svg width="76" height="74" viewBox="0 0 76 74" fill="none" xmlns="http://www.w3.org/2000/svg">
<rect x="5.21541e-07" y="-1.7684" width="29.6255" height="29.6255" rx="1.75" transform="matrix(-0.706851 -0.707362 0.706852 -0.707362 39.4902 56.6975)" stroke="black" stroke-width="2.5"/>
<mask id="path-2-inside-1_8214_7200" fill="white">
<rect width="16.0627" height="16.0627" rx="2" transform="matrix(-0.706851 -0.707362 0.706852 -0.707362 38.2393 48.3535)"/>
</mask>
<rect width="16.0627" height="16.0627" rx="2" transform="matrix(-0.706851 -0.707362 0.706852 -0.707362 38.2393 48.3535)" fill="#51D9B8" stroke="black" stroke-width="5" mask="url(#path-2-inside-1_8214_7200)"/>
<path d="M30.2246 51.2705L24.6881 55.593C23.9599 56.1615 23.5342 57.0338 23.5342 57.9577L23.5342 66" stroke="black" stroke-width="2.5"/>
<path fill-rule="evenodd" clip-rule="evenodd" d="M18.325 68.7877C18.325 65.909 20.657 63.5753 23.5336 63.5753C26.4102 63.5753 28.7422 65.909 28.7422 68.7877C28.7422 71.6664 26.4102 74 23.5336 74C20.657 74 18.325 71.6664 18.325 68.7877ZM23.5336 66.1096C22.0556 66.1096 20.8575 67.3086 20.8575 68.7877C20.8575 70.2667 22.0556 71.4658 23.5336 71.4658C25.0116 71.4658 26.2098 70.2667 26.2098 68.7877C26.2098 67.3086 25.0116 66.1096 23.5336 66.1096Z" fill="black"/>
<path d="M30.2246 23.3174L24.6881 18.9949C23.9599 18.4264 23.5342 17.5541 23.5342 16.6302L23.5342 8.58789" stroke="black" stroke-width="2.5"/>
<path fill-rule="evenodd" clip-rule="evenodd" d="M18.325 5.90876C18.325 3.03007 20.657 0.696434 23.5336 0.696434C26.4102 0.696434 28.7422 3.03007 28.7422 5.90876C28.7422 8.78745 26.4102 11.1211 23.5336 11.1211C20.657 11.1211 18.325 8.78745 18.325 5.90876ZM23.5336 3.23068C22.0556 3.23068 20.8575 4.4297 20.8575 5.90876C20.8575 7.38783 22.0556 8.58685 23.5336 8.58685C25.0116 8.58685 26.2098 7.38783 26.2098 5.90876C26.2098 4.4297 25.0116 3.23068 23.5336 3.23068Z" fill="#6237DE"/>
<path d="M46.6152 23.3174L52.1518 18.9949C52.88 18.4264 53.3056 17.5541 53.3056 16.6302L53.3056 8.58789" stroke="black" stroke-width="2.5"/>
<path fill-rule="evenodd" clip-rule="evenodd" d="M48.0965 5.2115C48.0965 2.33281 50.4285 -0.000831811 53.3051 -0.00083156C56.1817 -0.000831308 58.5137 2.33281 58.5137 5.2115C58.5137 8.09019 56.1817 10.4238 53.3051 10.4238C50.4285 10.4238 48.0965 8.09019 48.0965 5.2115ZM53.3051 2.53341C51.8271 2.53341 50.6289 3.73243 50.6289 5.2115C50.6289 6.69057 51.8271 7.88959 53.3051 7.88959C54.7831 7.88959 55.9813 6.69057 55.9813 5.2115C55.9813 3.73243 54.7831 2.53341 53.3051 2.53341Z" fill="black"/>
<path d="M46.6152 51.0322L52.1518 55.3547C52.88 55.9232 53.3056 56.7955 53.3056 57.7194L53.3056 65.7617" stroke="black" stroke-width="2.5"/>
<path fill-rule="evenodd" clip-rule="evenodd" d="M48.0965 68.7877C48.0965 65.909 50.4285 63.5753 53.3051 63.5753C56.1817 63.5753 58.5137 65.909 58.5137 68.7877C58.5137 71.6664 56.1817 74 53.3051 74C50.4285 74 48.0965 71.6664 48.0965 68.7877ZM53.3051 66.1096C51.8271 66.1096 50.6289 67.3086 50.6289 68.7877C50.6289 70.2667 51.8271 71.4658 53.3051 71.4658C54.7831 71.4658 55.9813 70.2667 55.9813 68.7877C55.9813 67.3086 54.7831 66.1096 53.3051 66.1096Z" fill="#6237DE"/>
<path d="M53.7584 41.3135L56.9376 47.578C57.3561 48.4026 58.1313 48.9882 59.0388 49.1653L66.9245 50.7042" stroke="black" stroke-width="2.5"/>
<path fill-rule="evenodd" clip-rule="evenodd" d="M70.8885 46.1669C68.0651 45.6159 65.3299 47.4597 64.7793 50.2852C64.2287 53.1106 66.0711 55.8478 68.8946 56.3988C71.718 56.9498 74.4532 55.106 75.0038 52.2805C75.5544 49.4551 73.7119 46.7179 70.8885 46.1669ZM67.2649 50.7702C67.5478 49.3185 68.9531 48.3712 70.4038 48.6543C71.8544 48.9374 72.8011 50.3437 72.5182 51.7955C72.2353 53.2472 70.83 54.1945 69.3793 53.9114C67.9286 53.6283 66.982 52.222 67.2649 50.7702Z" fill="black"/>
<path d="M53.7584 32.9971L56.9376 26.7325C57.3561 25.908 58.1313 25.3223 59.0388 25.1452L66.9245 23.6063" stroke="black" stroke-width="2.5"/>
<path fill-rule="evenodd" clip-rule="evenodd" d="M70.8885 28.1437C68.0651 28.6947 65.3299 26.8509 64.7793 24.0254C64.2287 21.1999 66.0711 18.4628 68.8946 17.9117C71.718 17.3607 74.4532 19.2046 75.0038 22.03C75.5544 24.8555 73.7119 27.5927 70.8885 28.1437Z" fill="#51D9B8"/>
<path d="M22.2426 41.3135L19.0633 47.578C18.6449 48.4026 17.8697 48.9882 16.9622 49.1653L9.0765 50.7042" stroke="black" stroke-width="2.5"/>
<path fill-rule="evenodd" clip-rule="evenodd" d="M5.11247 46.1669C7.9359 45.6159 10.6711 47.4597 11.2217 50.2852C11.7723 53.1106 9.92983 55.8478 7.10641 56.3988C4.28298 56.9498 1.54778 55.106 0.997175 52.2805C0.446565 49.4551 2.28905 46.7179 5.11247 46.1669Z" fill="#6237DE"/>
<path d="M22.2426 32.9971L19.0633 26.7325C18.6449 25.908 17.8697 25.3223 16.9622 25.1452L9.0765 23.6063" stroke="black" stroke-width="2.5"/>
<path fill-rule="evenodd" clip-rule="evenodd" d="M5.11247 28.1437C7.9359 28.6947 10.6711 26.8509 11.2217 24.0254C11.7723 21.1999 9.92983 18.4628 7.10641 17.9117C4.28298 17.3607 1.54778 19.2046 0.997174 22.03C0.446565 24.8555 2.28905 27.5927 5.11247 28.1437ZM8.73612 23.5403C8.45321 24.992 7.04787 25.9394 5.5972 25.6563C4.14653 25.3732 3.19986 23.9668 3.48276 22.5151C3.76567 21.0634 5.17101 20.116 6.62168 20.3991C8.07235 20.6822 9.01902 22.0886 8.73612 23.5403Z" fill="black"/>
</svg>
