<svg width="438" height="400" viewBox="0 0 438 400" fill="none" xmlns="http://www.w3.org/2000/svg">
<path d="M11.25 12.25H388.75V302.75H11.25V12.25Z" fill="black" stroke="black" stroke-width="2.5"/>
<rect x="1.25" y="22.25" width="377.5" height="290.5" fill="white" stroke="black" stroke-width="2.5"/>
<circle cx="39.5" cy="62.5" r="13.25" fill="black" stroke="black" stroke-width="2.5"/>
<circle cx="112.5" cy="62.5" r="13.25" fill="black" stroke="black" stroke-width="2.5"/>
<path d="M26 294H350.5" stroke="black" stroke-width="2.5"/>
<path d="M356.077 0H428L401.574 37H328L356.077 0Z" fill="#51D9B8"/>
<path opacity="0.3" d="M383.393 11.576C381.726 10.3645 379.699 9.74963 377.639 9.83055C375.58 9.91147 373.608 10.6834 372.04 12.0221C370.473 13.3607 369.402 15.188 369 17.2095C368.598 19.2311 368.888 21.3292 369.824 23.1657C370.759 25.0022 372.286 26.4702 374.158 27.3331C376.03 28.196 378.138 28.4036 380.142 27.9225C382.146 27.4413 383.93 26.2994 385.206 24.6807C386.188 23.4351 386.825 21.9631 387.067 20.4115H384.555C384.341 21.4051 383.903 22.3433 383.266 23.1512C382.333 24.3341 381.03 25.1686 379.565 25.5202C378.101 25.8718 376.56 25.7201 375.192 25.0895C373.824 24.4589 372.709 23.3861 372.025 22.0441C371.341 20.702 371.129 19.1688 371.423 17.6915C371.717 16.2142 372.499 14.8789 373.645 13.9007C374.79 12.9224 376.231 12.3583 377.736 12.2992C379.242 12.24 380.723 12.6893 381.941 13.5747L380.282 15.8589C379.576 15.3464 378.719 15.0862 377.847 15.1205C376.976 15.1547 376.142 15.4813 375.478 16.0476C374.815 16.614 374.362 17.3871 374.192 18.2423C374.022 19.0976 374.145 19.9853 374.541 20.7623C374.937 21.5392 375.582 22.1603 376.374 22.5254C377.166 22.8905 378.058 22.9783 378.906 22.7747C379.754 22.5712 380.509 22.0881 381.049 21.4032C381.287 21.1004 381.478 20.7658 381.616 20.4115H378V17.588H390C390 17.588 389.999 18.4867 389.916 20.4115C389.833 22.3362 388.799 24.684 387.423 26.4287C385.755 28.5454 383.422 30.0387 380.801 30.6679C378.18 31.2971 375.424 31.0257 372.976 29.8972C370.528 28.7688 368.532 26.8491 367.308 24.4475C366.084 22.0459 365.705 19.3023 366.231 16.6587C366.756 14.0151 368.157 11.6256 370.207 9.87507C372.256 8.12457 374.835 7.11508 377.529 7.00926C380.222 6.90344 382.872 7.70745 385.053 9.29175L383.393 11.576Z" fill="url(#paint0_linear_6220_39352)"/>
<rect x="182.25" y="107.25" width="171.5" height="148.5" stroke="black" stroke-width="2.5"/>
<rect x="26.25" y="107.25" width="129.5" height="148.5" stroke="black" stroke-width="2.5"/>
<path d="M192 127H240" stroke="black" stroke-width="2.5"/>
<path d="M192 137H240" stroke="black" stroke-width="2.5"/>
<path d="M36 127H84" stroke="black" stroke-width="2.5"/>
<path d="M36 137H84" stroke="black" stroke-width="2.5"/>
<path d="M36 146H63" stroke="black" stroke-width="2.5"/>
<circle cx="91.5" cy="192.5" r="34.5" fill="#AE91FF"/>
<path d="M126 192.5C126 200.249 123.391 207.773 118.593 213.859C113.796 219.944 107.089 224.238 99.5539 226.047C92.0186 227.856 84.0938 227.075 77.0562 223.831C70.0187 220.587 64.2784 215.067 60.7603 208.163C57.2421 201.258 56.1511 193.37 57.6629 185.769C59.1747 178.169 63.2014 171.299 69.094 166.266C74.9867 161.233 82.4022 158.331 90.1455 158.027C97.8889 157.722 105.509 160.034 111.779 164.589L91.5 192.5H126Z" fill="#6237DE"/>
<circle cx="91" cy="193" r="19" fill="#EBEBEB"/>
<path d="M140 58H169.5" stroke="black" stroke-width="2.5"/>
<path d="M76 48L76 77" stroke="black" stroke-width="2.5"/>
<path d="M140 68H232" stroke="black" stroke-width="2.5"/>
<rect x="218" y="169" width="9" height="47" fill="#51D9B8"/>
<rect x="277" y="169" width="9" height="47" fill="#51D9B8"/>
<rect x="233" y="195" width="9" height="21" fill="#51D9B8"/>
<rect x="292" y="195" width="9" height="21" fill="#51D9B8"/>
<rect x="248" y="182" width="9" height="34" fill="#51D9B8"/>
<rect x="307" y="182" width="10" height="34" fill="#51D9B8"/>
<rect x="262" y="189" width="9" height="27" fill="#51D9B8"/>
<rect x="281.25" y="205.25" width="155.5" height="183.5" fill="black" stroke="black" stroke-width="2.5"/>
<rect x="271.25" y="215.25" width="155.5" height="183.5" fill="white" stroke="black" stroke-width="2.5"/>
<path d="M298.443 358H412L397.466 378H283L298.443 358Z" fill="black"/>
<path d="M324.102 315.13L323.232 316.028L325.028 317.768L325.898 316.87L324.102 315.13ZM338.8 301.75L339.698 300.88L338.8 299.953L337.902 300.88L338.8 301.75ZM352.6 316L351.702 316.87L352.6 317.797L353.498 316.87L352.6 316ZM371 297H372.25V295.75H371V297ZM361.8 295.75H360.55V298.25H361.8V295.75ZM369.75 306.5V307.75H372.25V306.5H369.75ZM325.898 316.87L339.698 302.62L337.902 300.88L324.102 315.13L325.898 316.87ZM337.902 302.62L351.702 316.87L353.498 315.13L339.698 300.88L337.902 302.62ZM353.498 316.87L371.898 297.87L370.102 296.13L351.702 315.13L353.498 316.87ZM371 295.75H361.8V298.25H371V295.75ZM369.75 297V306.5H372.25V297H369.75Z" fill="#6237DE"/>
<path d="M293.5 235L332.57 235" stroke="black" stroke-width="2.5"/>
<path d="M369.035 235H405.5" stroke="black" stroke-width="2.5"/>
<path d="M293.5 254L405.5 254" stroke="black" stroke-width="2.5"/>
<defs>
<linearGradient id="paint0_linear_6220_39352" x1="374" y1="6" x2="379" y2="36.5" gradientUnits="userSpaceOnUse">
<stop/>
<stop offset="1" stop-color="#02DE8F"/>
</linearGradient>
</defs>
</svg>
