<svg width="41" height="40" viewBox="0 0 41 40" fill="none" xmlns="http://www.w3.org/2000/svg">
<path fill-rule="evenodd" clip-rule="evenodd" d="M20.9961 0C32.0413 0 40.9961 8.9548 40.9961 20C40.9961 31.0452 32.0409 40 20.9961 40C9.95129 40 0.996094 31.0476 0.996094 20C0.996094 8.9524 9.94969 0 20.9961 0Z" fill="#53AE94"/>
<path fill-rule="evenodd" clip-rule="evenodd" d="M23.4674 21.8482V21.8458C23.3286 21.8546 22.6154 21.8974 21.0274 21.8974C19.7578 21.8974 18.8646 21.8614 18.5498 21.845V21.849C13.6642 21.6326 10.0174 20.7818 10.0174 19.7638C10.0174 18.7458 13.6646 17.8962 18.5498 17.6794V21.0014C18.8698 21.0234 19.785 21.0774 21.0482 21.0774C22.5654 21.0774 23.3282 21.0142 23.4682 21.0014V17.6794C28.3442 17.8966 31.9826 18.7482 31.9826 19.7626C31.9826 20.777 28.3426 21.629 23.4682 21.8462L23.4674 21.8482ZM23.4658 17.3346V14.3594H30.2694V9.82617H11.743V14.3594H18.5474V17.3322C13.0174 17.5862 8.85938 18.6814 8.85938 19.9934C8.85938 21.3054 13.0194 22.4006 18.5474 22.6562V32.1862H23.4674V22.6554C28.9874 22.4006 33.137 21.3062 33.137 19.9954C33.137 18.6846 28.9874 17.5902 23.4674 17.3354" fill="white"/>
</svg>
