<svg width="322" height="40" viewBox="0 0 322 40" fill="none" xmlns="http://www.w3.org/2000/svg">
<path fill-rule="evenodd" clip-rule="evenodd" d="M21.5883 14.1515C21.8179 14.1515 22.0476 14.0751 22.2007 13.9223C22.5835 13.6168 22.5835 13.0056 22.2773 12.7L19.6744 9.9499H25.4926C26.105 9.9499 26.5643 10.1027 26.8705 10.4846C27.4064 11.0958 27.483 12.1653 27.483 12.4709V12.5473V18.8115C27.483 19.2698 27.8658 19.7282 28.4016 19.7282C28.861 19.7282 29.3203 19.3462 29.3203 18.8115V12.5473C29.3203 12.528 29.3205 12.5052 29.3207 12.4792C29.3249 11.9896 29.3389 10.3505 28.2485 9.26236C27.5595 8.57482 26.6409 8.19286 25.5691 8.19286H19.7509L22.3538 5.44271C22.66 5.06075 22.66 4.526 22.2773 4.22043C21.8945 3.91486 21.3586 3.91486 21.0524 4.29682L17.0715 8.57482C16.7653 8.8804 16.7653 9.41515 17.0715 9.79711L21.0524 14.0751C21.0804 14.0751 21.1289 14.0854 21.1905 14.0983C21.2971 14.1208 21.4427 14.1515 21.5883 14.1515ZM3.98085 17.1312H6.20094V16.1381H1.37799C0.612438 16.1381 0 15.527 0 14.763V7.5821C0 6.81817 0.612438 6.20703 1.37799 6.20703H12.6315C13.3971 6.20703 14.0095 6.81817 14.0095 7.5821V14.6866C14.0095 15.4506 13.3971 16.0617 12.6315 16.0617H8.03825V17.0548H10.2583C10.7942 17.0548 11.177 17.4368 11.177 17.9715C11.177 18.5063 10.7177 18.8883 10.2583 18.8883H3.98085C3.52152 18.8883 3.06219 18.5827 3.06219 18.0479C3.06219 17.5132 3.52152 17.1312 3.98085 17.1312ZM12.4784 7.96407H1.60765V14.3047H12.4784V7.96407ZM9.18668 25.9925C9.49289 25.687 10.1053 25.687 10.4116 26.0689L14.469 30.1941C14.7752 30.5761 14.7752 31.1109 14.469 31.4164L10.4881 35.6944C10.2584 35.9236 10.0288 36 9.79911 36C9.56945 36 9.33978 35.9236 9.18668 35.7708C8.8039 35.4653 8.8039 34.9305 9.11012 34.5485L11.713 31.7984H5.89482C4.82305 31.7984 3.9044 31.4164 3.2154 30.7289C2.12501 29.6408 2.13903 28.0017 2.14322 27.512C2.14344 27.486 2.14364 27.4633 2.14364 27.444V21.1798C2.14364 20.7214 2.44986 20.2631 2.98574 20.2631C3.52162 20.2631 3.9044 20.7214 3.9044 21.1798V27.3676V27.444C3.9044 27.7496 3.98095 28.8191 4.51684 29.4302C4.82305 29.8122 5.28238 29.965 5.89482 29.965H11.713L9.11012 27.2148C8.8039 26.9092 8.8039 26.2981 9.18668 25.9925ZM29.2438 24.8461C29.2438 26.0684 28.7079 27.2143 27.8658 27.9782C30.3155 29.0477 31.9998 31.4923 31.9998 34.3188C31.9998 34.8536 31.5404 35.2356 31.0811 35.2356H18.9089C18.373 35.2356 17.9902 34.7772 17.9902 34.3188C17.9902 31.4923 19.6744 29.0477 22.0476 27.9782C21.2055 27.2143 20.6697 26.0684 20.6697 24.8461C20.6697 22.4779 22.5835 20.5681 24.9567 20.5681C27.3299 20.5681 29.2438 22.4779 29.2438 24.8461ZM24.9567 22.4015C23.6553 22.4015 22.507 23.471 22.507 24.8461C22.507 26.2212 23.6553 27.2907 25.0333 27.2907C26.3347 27.2907 27.4065 26.1448 27.4065 24.8461C27.4065 23.5474 26.3347 22.4015 24.9567 22.4015ZM25.0333 29.1241C22.4304 29.1241 20.3634 30.9576 19.9041 33.4021H30.1624C29.7031 30.9576 27.6361 29.1241 25.0333 29.1241Z" fill="#FEFEFE"/>
<path fill-rule="evenodd" clip-rule="evenodd" d="M113.604 13.6697C116.017 13.0201 118.337 12.7418 120.749 13.2985C122.42 13.6697 123.626 14.5976 123.904 16.4534C124.183 18.2165 123.533 19.6084 122.049 20.6291C121.77 20.8147 121.492 21.0002 120.935 21.2786C122.155 21.5327 122.818 22.3713 123.473 23.1999C124.014 23.8842 124.55 24.5617 125.389 24.8975C125.389 25.0867 125.4 25.2758 125.41 25.4613C125.431 25.8219 125.45 26.1686 125.389 26.475C122.976 27.3101 121.77 26.8461 120.657 24.7119C120.517 24.4799 120.401 24.248 120.286 24.016C120.17 23.784 120.054 23.552 119.914 23.32C119.079 22.021 118.708 21.8354 117.038 21.8354C116.838 22.3688 116.877 22.9501 116.915 23.5104C116.93 23.7299 116.945 23.9462 116.945 24.1552V26.5678H113.79C113.604 22.3921 113.604 18.1237 113.604 13.6697ZM119.822 19.2372C120.286 18.9588 120.471 18.4949 120.564 17.9381C120.657 17.1958 120.657 16.4534 119.822 16.1751C118.894 15.8039 117.873 15.7111 116.852 16.1751V19.2372H119.822ZM92.9105 26.7534H88.6421L88.6418 26.7528L88.6418 26.7527L88.6417 26.7525C87.25 23.5979 85.8582 20.4433 84.5593 17.1958C84.5129 18.7733 84.4897 20.3507 84.4665 21.9281C84.4433 23.5056 84.4201 25.0831 84.3737 26.6606H81.2188V13.2986H85.4872L85.4875 13.2993L85.4878 13.2999C86.8794 16.5472 88.2711 19.7945 89.7556 23.1345C89.6939 20.9763 89.7142 18.818 89.7348 16.6325V16.6325V16.6325V16.6324V16.6324V16.6323V16.6323V16.6322V16.6322V16.6322C89.7452 15.5291 89.7556 14.419 89.7556 13.2986H93.0033C92.9105 17.7526 92.9105 22.2066 92.9105 26.7534ZM153.269 14.9941C153.125 15.3037 152.984 15.6059 152.855 15.8969C152.669 16.3609 152.576 16.8248 152.576 17.196C152.205 18.2167 151.556 18.6807 150.442 18.4951C150.374 18.4951 150.306 18.5062 150.236 18.5176C150.022 18.5526 149.795 18.5897 149.514 18.3095V13.3915H146.267V26.8463C146.684 26.8116 147.088 26.8159 147.494 26.8202C148.171 26.8275 148.853 26.8348 149.607 26.6608V21.5572C150.308 21.382 150.926 21.5376 151.618 21.7117L151.741 21.7428C151.741 21.8541 151.842 21.9655 151.942 22.0768C152.009 22.1511 152.075 22.2253 152.112 22.2995C152.298 22.7171 152.507 23.1346 152.716 23.5522C152.924 23.9698 153.133 24.3873 153.319 24.8049C154.34 26.9391 155.824 27.4959 158.144 26.568C158.237 26.0112 158.237 25.4545 158.144 24.8977C157.402 24.8977 157.03 24.341 156.659 23.7842C156.103 23.0419 155.546 22.2068 155.082 21.4644C154.618 20.8149 154.061 20.2581 153.133 19.9797C155.207 19.244 155.834 17.6405 156.474 16.0031C156.722 15.369 156.972 14.7297 157.309 14.1339C157.017 14.044 156.735 13.9541 156.463 13.8668L156.462 13.8668C155.608 13.5938 154.835 13.3466 154.061 13.2059C153.819 13.8105 153.538 14.4151 153.269 14.9941ZM76.8591 26.6606H73.4258C73.1194 26.099 72.9816 25.453 72.8424 24.8001L72.8424 24.8C72.7286 24.2664 72.6137 23.7281 72.4051 23.2273H68.0439C67.7306 23.8016 67.5936 24.4347 67.451 25.0935C67.3402 25.6055 67.226 26.1331 67.0231 26.6606C66.3574 26.7817 65.6521 26.7448 64.8816 26.7045C64.4709 26.6831 64.0416 26.6606 63.5898 26.6606C64.7961 22.1138 66.188 17.7526 67.8583 13.2986H72.5907C74.2609 17.567 75.56 22.021 76.8591 26.6606ZM70.2709 15.9896C69.5285 17.4742 69.1574 18.7733 68.879 20.1652H71.57C71.3293 18.962 70.95 17.8974 70.4919 16.6119L70.4919 16.6119L70.4919 16.6118L70.4916 16.6112L70.4915 16.6107C70.4198 16.4095 70.3462 16.2029 70.2709 15.9896ZM141.814 26.6606C140.608 22.021 139.309 17.6598 137.546 13.2986H132.813C131.143 17.6598 129.751 22.1138 128.545 26.7534H131.978C132.257 26.1967 132.396 25.5935 132.535 24.9904C132.674 24.3872 132.813 23.7841 133.092 23.2273C133.729 23.2671 134.348 23.2557 134.966 23.2443C135.788 23.2292 136.605 23.2141 137.453 23.3201C137.66 23.858 137.774 24.3958 137.887 24.9255L137.887 24.9256C138.028 25.5838 138.165 26.2292 138.474 26.8462C138.92 26.809 139.351 26.8016 139.785 26.7942C140.435 26.7831 141.091 26.7718 141.814 26.6606ZM134.738 17.0672C134.866 16.7242 135 16.3675 135.133 15.9896C135.612 16.9464 135.859 17.8261 136.098 18.6784C136.23 19.1487 136.36 19.6105 136.525 20.0724C135.866 20.2702 135.253 20.2337 134.621 20.1961C134.363 20.1807 134.103 20.1652 133.834 20.1652C133.975 19.1068 134.331 18.1557 134.738 17.0672ZM199.715 26.5678C199.096 26.7225 198.477 26.7339 197.859 26.7454C197.364 26.7545 196.869 26.7637 196.374 26.8462C195.999 26.2031 195.84 25.4981 195.684 24.8028C195.57 24.2941 195.457 23.7905 195.261 23.3201H190.899C190.625 23.9778 190.448 24.668 190.273 25.3522C190.151 25.8263 190.031 26.2976 189.879 26.7534C189.152 26.8139 188.465 26.7955 187.715 26.7754C187.315 26.7646 186.897 26.7534 186.445 26.7534C187.559 22.1138 189.043 17.6598 190.714 13.3914H195.446C197.209 17.6598 198.508 22.021 199.715 26.5678ZM194.128 18.8418L194.128 18.8413C193.877 17.9257 193.629 17.0253 193.126 16.0823C192.514 17.231 192.217 18.3164 191.924 19.3908L191.924 19.3909L191.924 19.391L191.923 19.3911L191.923 19.3912L191.923 19.3913L191.923 19.3919C191.861 19.6191 191.799 19.8457 191.734 20.0724C192.623 20.3388 193.426 20.2652 194.388 20.1771L194.518 20.1652C194.369 19.7165 194.248 19.2774 194.128 18.8418ZM172.573 26.7942C173.249 26.783 173.938 26.7717 174.66 26.6606C173.361 22.021 172.062 17.567 170.391 13.3914H165.659C163.989 17.7526 162.597 22.1138 161.391 26.7534C161.842 26.7534 162.26 26.7758 162.66 26.7973C163.411 26.8376 164.098 26.8745 164.824 26.7534C165.012 26.2646 165.124 25.7606 165.233 25.266C165.395 24.54 165.551 23.8344 165.937 23.2273C166.574 23.2671 167.194 23.2557 167.811 23.2443C168.633 23.2292 169.451 23.2141 170.299 23.3201C170.438 23.9232 170.6 24.5032 170.763 25.0831C170.925 25.6631 171.087 26.243 171.227 26.8462C171.673 26.809 172.12 26.8016 172.573 26.7942ZM167.675 20.2552C167.322 20.2398 166.961 20.224 166.587 20.258C166.958 18.7733 167.329 17.4742 167.979 16.0823C168.554 16.9777 168.821 17.9172 169.084 18.84C169.202 19.256 169.319 19.6687 169.464 20.0724C168.875 20.3076 168.287 20.2819 167.675 20.2552ZM53.1964 23.3203C51.0421 20.6689 49.7757 17.8695 48.4721 14.9883C48.3158 14.6427 48.159 14.296 48 13.9483C48.6371 13.7166 49.2741 13.5934 49.9338 13.4658L49.9338 13.4658C50.331 13.389 50.7364 13.3106 51.1549 13.2059C51.489 13.9019 51.7897 14.623 52.0945 15.354C52.8057 17.0597 53.5397 18.8199 54.7738 20.4437C56.0697 18.8069 56.8141 17.0196 57.5598 15.2294C57.8286 14.5839 58.0976 13.9381 58.3927 13.2987C59.0869 13.2987 59.709 13.443 60.3715 13.5966C60.7715 13.6894 61.1862 13.7856 61.6404 13.8555C60.3413 17.196 58.8567 20.3509 56.4441 23.3203V26.6608C55.3306 26.7536 54.3099 26.7536 53.1964 26.7536C53.1487 26.0864 53.1745 25.4438 53.1982 24.8507V24.8507V24.8507V24.8507C53.2208 24.2889 53.2415 23.7716 53.1964 23.3203ZM104.881 16.4535H109.15V13.3914H97.1797C97.1797 13.6851 97.1644 13.9789 97.1491 14.2705L97.1491 14.2706C97.1113 14.992 97.0743 15.6999 97.2725 16.3607C97.9685 16.4535 98.6644 16.4535 99.372 16.4535C100.079 16.4535 100.799 16.4535 101.541 16.5463V26.8462C101.819 26.8462 102.098 26.852 102.376 26.8578C103.211 26.8752 104.046 26.8926 104.881 26.7534V16.4535ZM207.229 13.2986V26.7534H204.074V13.2986H207.229ZM182.27 23.8768H178.836C178.87 24.2506 178.855 24.6119 178.839 24.9653C178.812 25.5771 178.787 26.1652 179.022 26.7534H182.27V23.8768Z" fill="#FDFDFD"/>
</svg>
