<svg width="177" height="40" viewBox="0 0 177 40" fill="none" xmlns="http://www.w3.org/2000/svg">
<path d="M43.3011 11.9704C41.0887 11.9704 39.2912 12.6617 37.8887 14.0247C36.4863 15.3877 35.7949 17.2247 35.7949 19.5753C35.7949 21.9062 36.4863 23.763 37.8887 25.1259C39.2912 26.4889 41.1085 27.1803 43.3208 27.1803C45.1381 27.1803 46.6986 26.6864 47.9826 25.679C49.2665 24.6716 50.0566 23.3284 50.3332 21.6099L47.1332 21.3333C46.7381 23.3679 45.2764 24.4741 43.2221 24.4741C41.9579 24.4741 40.911 24.0395 40.1011 23.1901C39.2912 22.3408 38.8962 21.1358 38.8962 19.5753C38.8962 18.0938 39.2912 16.9087 40.0616 16.0198C40.8517 15.1309 41.8986 14.6766 43.2023 14.6766C45.2566 14.6766 46.7184 15.8222 47.1332 17.8766L50.3134 17.6C50.0566 15.8815 49.2665 14.4988 47.9628 13.4914C46.6789 12.484 45.1184 11.9704 43.3011 11.9704Z" fill="black"/>
<path d="M58.1588 16.6519C56.8354 16.6519 55.8872 17.0667 55.3539 17.9161V16.7506H52.5687V26.963H55.4526V21.7877C55.4526 20.3654 56.4995 19.4371 58.1588 19.4371V16.6519Z" fill="black"/>
<path d="M69.8503 16.7506H66.6503L64.3195 22.8346L61.9688 16.7506H58.7886L62.7787 26.0543L60.1713 32H63.312L69.8503 16.7506Z" fill="black"/>
<path d="M77.144 16.5531C75.7613 16.5531 74.7539 16.9679 74.1218 17.8173V16.7506H71.3958V32H74.2798V26.0938C74.9316 26.8247 75.8995 27.1803 77.144 27.1803C78.6057 27.1803 79.7909 26.6864 80.6995 25.7185C81.6279 24.7506 82.0823 23.4667 82.0823 21.8667C82.0823 20.2667 81.6279 18.9827 80.6995 18.0148C79.7909 17.0469 78.6057 16.5531 77.144 16.5531ZM76.6897 19.0222C78.1712 19.0222 79.1588 20.0692 79.1588 21.8667C79.1588 23.6642 78.1712 24.7111 76.6897 24.7111C75.2477 24.7111 74.2798 23.7037 74.2798 22.1037V21.6296C74.2798 20.0296 75.2477 19.0222 76.6897 19.0222Z" fill="black"/>
<path d="M90.3238 19.2395V16.7506H87.9337L87.9534 13.3729H85.0695L85.0497 16.7506H83.1732V19.2395H85.0299L85.0102 23.7235C84.9904 26.0148 86.4127 27.1605 88.7238 27.1605C89.2374 27.1605 89.7707 27.121 90.3238 27.042V24.4741C89.9485 24.5333 89.6522 24.5729 89.4349 24.5729C88.546 24.5729 87.8941 24.079 87.8941 23.0321L87.9139 19.2395H90.3238Z" fill="black"/>
<path d="M102.675 21.8667C102.675 20.2667 102.162 18.9827 101.135 18.0148C100.127 17.0469 98.8235 16.5531 97.2432 16.5531C95.663 16.5531 94.3593 17.0469 93.3321 18.0148C92.3247 18.9827 91.8111 20.2667 91.8111 21.8667C91.8111 23.4469 92.3247 24.7309 93.3321 25.7185C94.3593 26.6864 95.663 27.1803 97.2432 27.1803C98.8235 27.1803 100.127 26.6864 101.135 25.7185C102.162 24.7309 102.675 23.4469 102.675 21.8667ZM99.0605 19.7926C99.5148 20.2864 99.7519 20.9778 99.7519 21.8667C99.7519 22.7556 99.5148 23.4469 99.0605 23.9408C98.6062 24.4346 97.9938 24.6914 97.2432 24.6914C96.4926 24.6914 95.8803 24.4346 95.4259 23.9408C94.9716 23.4469 94.7346 22.7556 94.7346 21.8667C94.7346 20.9778 94.9716 20.2864 95.4259 19.7926C95.8803 19.279 96.4926 19.0222 97.2432 19.0222C97.9938 19.0222 98.6062 19.279 99.0605 19.7926Z" fill="black"/>
<path d="M111.993 18.9037V21.5901H115.706C115.252 23.5457 113.889 24.4741 111.973 24.4741C109.267 24.4741 107.608 22.7951 107.608 19.5753C107.608 16.3556 109.267 14.6766 111.973 14.6766C113.968 14.6766 115.331 15.763 115.746 17.5803L118.906 17.0469C118.511 15.4469 117.701 14.2025 116.457 13.3136C115.213 12.4247 113.731 11.9704 111.993 11.9704C109.8 11.9704 108.003 12.6617 106.6 14.0247C105.198 15.3877 104.506 17.2247 104.506 19.5753C104.506 21.9062 105.198 23.763 106.6 25.1259C108.003 26.4889 109.82 27.1803 112.013 27.1803C114.166 27.1803 115.864 26.5087 117.129 25.1852C118.412 23.8617 119.045 22.084 119.045 19.8914V18.9037H111.993Z" fill="black"/>
<path d="M130.955 21.6296C130.955 20.0494 130.521 18.805 129.632 17.9161C128.743 17.0074 127.558 16.5531 126.076 16.5531C124.536 16.5531 123.291 17.0272 122.323 17.9951C121.355 18.9432 120.881 20.2272 120.881 21.8667C120.881 23.4864 121.355 24.7704 122.323 25.7383C123.291 26.7062 124.575 27.1803 126.155 27.1803C127.36 27.1803 128.387 26.8642 129.257 26.2519C130.146 25.6395 130.679 24.8296 130.857 23.8617L127.953 23.7235C127.736 24.4741 127.104 24.8494 126.076 24.8494C124.792 24.8494 124.002 24.0593 123.943 22.7753H130.955V21.6296ZM126.057 18.805C127.321 18.805 127.992 19.5753 128.052 20.8593H123.943C124.022 19.5753 124.812 18.805 126.057 18.805Z" fill="black"/>
<path d="M138.712 16.5531C137.408 16.5531 136.499 16.9679 135.966 17.7975V16.7506H133.24V26.963H136.124V21.2938C136.124 20.0494 136.894 19.2395 138.02 19.2395C139.126 19.2395 139.818 19.9901 139.818 21.2741V26.963H142.702V20.721C142.702 18.1136 141.102 16.5531 138.712 16.5531Z" fill="black"/>
<path d="M146.893 11.6741C145.451 11.5951 144.562 13.6494 145.668 14.6371C146.32 15.2889 147.465 15.2889 148.117 14.6371C148.453 14.3013 148.631 13.8864 148.631 13.4124C148.631 12.4445 147.86 11.6741 146.893 11.6741ZM148.335 16.7506H145.451V26.963H148.335V16.7506Z" fill="black"/>
<path d="M160.72 21.6296C160.72 20.0494 160.285 18.805 159.397 17.9161C158.508 17.0074 157.323 16.5531 155.841 16.5531C154.3 16.5531 153.056 17.0272 152.088 17.9951C151.12 18.9432 150.646 20.2272 150.646 21.8667C150.646 23.4864 151.12 24.7704 152.088 25.7383C153.056 26.7062 154.34 27.1803 155.92 27.1803C157.125 27.1803 158.152 26.8642 159.021 26.2519C159.91 25.6395 160.444 24.8296 160.621 23.8617L157.718 23.7235C157.5 24.4741 156.868 24.8494 155.841 24.8494C154.557 24.8494 153.767 24.0593 153.708 22.7753H160.72V21.6296ZM155.821 18.805C157.085 18.805 157.757 19.5753 157.816 20.8593H153.708C153.787 19.5753 154.577 18.805 155.821 18.805Z" fill="black"/>
<path d="M25.3934 12.576C23.7259 11.3645 21.6991 10.7496 19.6395 10.8305C17.5799 10.9115 15.6076 11.6834 14.0402 13.0221C12.4729 14.3607 11.4019 16.188 10.9998 18.2095C10.5977 20.2311 10.8879 22.3292 11.8236 24.1657C12.7594 26.0022 14.2862 27.4702 16.158 28.3331C18.0298 29.196 20.1377 29.4036 22.1419 28.9225C24.1461 28.4413 25.93 27.2994 27.206 25.6807C28.188 24.4351 28.8252 22.9631 29.0668 21.4115H26.5552C26.3412 22.4051 25.9028 23.3433 25.2659 24.1512C24.3334 25.3341 23.0298 26.1686 21.5652 26.5202C20.1006 26.8718 18.5602 26.7201 17.1923 26.0895C15.8245 25.4589 14.7087 24.3861 14.0249 23.0441C13.3411 21.702 13.129 20.1688 13.4229 18.6915C13.7167 17.2142 14.4994 15.8789 15.6447 14.9007C16.7901 13.9224 18.2314 13.3583 19.7365 13.2992C21.2416 13.24 22.7227 13.6893 23.9413 14.5747L22.2817 16.8589C21.5762 16.3464 20.7187 16.0862 19.8473 16.1205C18.976 16.1547 18.1415 16.4813 17.4784 17.0476C16.8153 17.614 16.3622 18.3871 16.1921 19.2423C16.022 20.0976 16.1447 20.9853 16.5406 21.7623C16.9365 22.5392 17.5825 23.1603 18.3744 23.5254C19.1663 23.8905 20.0581 23.9783 20.906 23.7747C21.754 23.5712 22.5087 23.0881 23.0486 22.4032C23.2873 22.1004 23.4779 21.7658 23.6162 21.4115H19.9997V18.588H32C32 18.588 31.9993 19.4867 31.9162 21.4115C31.833 23.3362 30.7987 25.684 29.4233 27.4287C27.7547 29.5454 25.4219 31.0387 22.801 31.6679C20.1801 32.2971 17.4237 32.0257 14.9759 30.8972C12.5282 29.7688 10.5316 27.8491 9.30791 25.4475C8.08424 23.0459 7.70475 20.3023 8.23059 17.6587C8.75643 15.0151 10.157 12.6256 12.2065 10.8751C14.2561 9.12457 16.8354 8.11508 19.5286 8.00926C22.2219 7.90344 24.8724 8.70745 27.053 10.2917L25.3934 12.576Z" fill="url(#paint0_linear_8196_10193)"/>
<defs>
<linearGradient id="paint0_linear_8196_10193" x1="15.2542" y1="9.33932" x2="22.1373" y2="31.9815" gradientUnits="userSpaceOnUse">
<stop stop-color="#6B38FD"/>
<stop offset="1" stop-color="#1302DE"/>
</linearGradient>
</defs>
</svg>
