<svg width="169" height="40" viewBox="0 0 169 40" fill="none" xmlns="http://www.w3.org/2000/svg">
<path d="M35.3011 11.9704C33.0887 11.9704 31.2912 12.6617 29.8887 14.0247C28.4863 15.3877 27.7949 17.2247 27.7949 19.5753C27.7949 21.9062 28.4863 23.763 29.8887 25.1259C31.2912 26.4889 33.1085 27.1803 35.3208 27.1803C37.1381 27.1803 38.6986 26.6864 39.9826 25.679C41.2665 24.6716 42.0566 23.3284 42.3332 21.6099L39.1332 21.3333C38.7381 23.3679 37.2764 24.4741 35.2221 24.4741C33.9579 24.4741 32.911 24.0395 32.1011 23.1901C31.2912 22.3408 30.8962 21.1358 30.8962 19.5753C30.8962 18.0938 31.2912 16.9087 32.0616 16.0198C32.8517 15.1309 33.8986 14.6766 35.2023 14.6766C37.2566 14.6766 38.7184 15.8222 39.1332 17.8766L42.3134 17.6C42.0566 15.8815 41.2665 14.4988 39.9628 13.4914C38.6789 12.484 37.1184 11.9704 35.3011 11.9704Z" fill="black"/>
<path d="M50.1588 16.6519C48.8354 16.6519 47.8872 17.0667 47.3539 17.9161V16.7506H44.5687V26.963H47.4526V21.7877C47.4526 20.3654 48.4995 19.4371 50.1588 19.4371V16.6519Z" fill="black"/>
<path d="M61.8503 16.7506H58.6503L56.3195 22.8346L53.9688 16.7506H50.7886L54.7787 26.0543L52.1713 32H55.312L61.8503 16.7506Z" fill="black"/>
<path d="M69.144 16.5531C67.7613 16.5531 66.7539 16.9679 66.1218 17.8173V16.7506H63.3958V32H66.2798V26.0938C66.9316 26.8247 67.8995 27.1803 69.144 27.1803C70.6057 27.1803 71.7909 26.6864 72.6995 25.7185C73.6279 24.7506 74.0823 23.4667 74.0823 21.8667C74.0823 20.2667 73.6279 18.9827 72.6995 18.0148C71.7909 17.0469 70.6057 16.5531 69.144 16.5531ZM68.6897 19.0222C70.1712 19.0222 71.1588 20.0692 71.1588 21.8667C71.1588 23.6642 70.1712 24.7111 68.6897 24.7111C67.2477 24.7111 66.2798 23.7037 66.2798 22.1037V21.6296C66.2798 20.0296 67.2477 19.0222 68.6897 19.0222Z" fill="black"/>
<path d="M82.3238 19.2395V16.7506H79.9337L79.9534 13.3729H77.0695L77.0497 16.7506H75.1732V19.2395H77.0299L77.0102 23.7235C76.9904 26.0148 78.4127 27.1605 80.7238 27.1605C81.2374 27.1605 81.7707 27.121 82.3238 27.042V24.4741C81.9485 24.5333 81.6522 24.5729 81.4349 24.5729C80.546 24.5729 79.8941 24.079 79.8941 23.0321L79.9139 19.2395H82.3238Z" fill="black"/>
<path d="M94.6753 21.8667C94.6753 20.2667 94.1617 18.9827 93.1346 18.0148C92.1272 17.0469 90.8235 16.5531 89.2432 16.5531C87.663 16.5531 86.3593 17.0469 85.3321 18.0148C84.3247 18.9827 83.8111 20.2667 83.8111 21.8667C83.8111 23.4469 84.3247 24.7309 85.3321 25.7185C86.3593 26.6864 87.663 27.1803 89.2432 27.1803C90.8235 27.1803 92.1272 26.6864 93.1346 25.7185C94.1617 24.7309 94.6753 23.4469 94.6753 21.8667ZM91.0605 19.7926C91.5148 20.2864 91.7519 20.9778 91.7519 21.8667C91.7519 22.7556 91.5148 23.4469 91.0605 23.9408C90.6062 24.4346 89.9938 24.6914 89.2432 24.6914C88.4926 24.6914 87.8803 24.4346 87.4259 23.9408C86.9716 23.4469 86.7346 22.7556 86.7346 21.8667C86.7346 20.9778 86.9716 20.2864 87.4259 19.7926C87.8803 19.279 88.4926 19.0222 89.2432 19.0222C89.9938 19.0222 90.6062 19.279 91.0605 19.7926Z" fill="black"/>
<path d="M103.993 18.9037V21.5901H107.706C107.252 23.5457 105.889 24.4741 103.973 24.4741C101.267 24.4741 99.6076 22.7951 99.6076 19.5753C99.6076 16.3556 101.267 14.6766 103.973 14.6766C105.968 14.6766 107.331 15.763 107.746 17.5803L110.906 17.0469C110.511 15.4469 109.701 14.2025 108.457 13.3136C107.213 12.4247 105.731 11.9704 103.993 11.9704C101.8 11.9704 100.003 12.6617 98.6002 14.0247C97.1977 15.3877 96.5063 17.2247 96.5063 19.5753C96.5063 21.9062 97.1977 23.763 98.6002 25.1259C100.003 26.4889 101.82 27.1803 104.013 27.1803C106.166 27.1803 107.864 26.5087 109.129 25.1852C110.412 23.8617 111.045 22.084 111.045 19.8914V18.9037H103.993Z" fill="black"/>
<path d="M122.955 21.6296C122.955 20.0494 122.521 18.805 121.632 17.9161C120.743 17.0074 119.558 16.5531 118.076 16.5531C116.536 16.5531 115.291 17.0272 114.323 17.9951C113.355 18.9432 112.881 20.2272 112.881 21.8667C112.881 23.4864 113.355 24.7704 114.323 25.7383C115.291 26.7062 116.575 27.1803 118.155 27.1803C119.36 27.1803 120.387 26.8642 121.257 26.2519C122.146 25.6395 122.679 24.8296 122.857 23.8617L119.953 23.7235C119.736 24.4741 119.104 24.8494 118.076 24.8494C116.792 24.8494 116.002 24.0593 115.943 22.7753H122.955V21.6296ZM118.057 18.805C119.321 18.805 119.992 19.5753 120.052 20.8593H115.943C116.022 19.5753 116.812 18.805 118.057 18.805Z" fill="black"/>
<path d="M130.712 16.5531C129.408 16.5531 128.499 16.9679 127.966 17.7975V16.7506H125.24V26.963H128.124V21.2938C128.124 20.0494 128.894 19.2395 130.02 19.2395C131.126 19.2395 131.818 19.9901 131.818 21.2741V26.963H134.702V20.721C134.702 18.1136 133.102 16.5531 130.712 16.5531Z" fill="black"/>
<path d="M138.893 11.6741C137.451 11.5951 136.562 13.6494 137.668 14.6371C138.32 15.2889 139.465 15.2889 140.117 14.6371C140.453 14.3013 140.631 13.8864 140.631 13.4124C140.631 12.4445 139.86 11.6741 138.893 11.6741ZM140.335 16.7506H137.451V26.963H140.335V16.7506Z" fill="black"/>
<path d="M152.72 21.6296C152.72 20.0494 152.285 18.805 151.397 17.9161C150.508 17.0074 149.323 16.5531 147.841 16.5531C146.3 16.5531 145.056 17.0272 144.088 17.9951C143.12 18.9432 142.646 20.2272 142.646 21.8667C142.646 23.4864 143.12 24.7704 144.088 25.7383C145.056 26.7062 146.34 27.1803 147.92 27.1803C149.125 27.1803 150.152 26.8642 151.021 26.2519C151.91 25.6395 152.444 24.8296 152.621 23.8617L149.718 23.7235C149.5 24.4741 148.868 24.8494 147.841 24.8494C146.557 24.8494 145.767 24.0593 145.708 22.7753H152.72V21.6296ZM147.821 18.805C149.085 18.805 149.757 19.5753 149.816 20.8593H145.708C145.787 19.5753 146.577 18.805 147.821 18.805Z" fill="black"/>
<path d="M17.3934 12.576C15.7259 11.3645 13.6991 10.7496 11.6395 10.8305C9.57992 10.9115 7.60756 11.6834 6.04024 13.0221C4.47292 14.3607 3.40191 16.188 2.9998 18.2095C2.59769 20.2311 2.88789 22.3292 3.82364 24.1657C4.75939 26.0022 6.28619 27.4702 8.15802 28.3331C10.0298 29.196 12.1377 29.4036 14.1419 28.9225C16.1461 28.4413 17.93 27.2994 19.206 25.6807C20.188 24.4351 20.8252 22.9631 21.0668 21.4115H18.5552C18.3412 22.4051 17.9028 23.3433 17.2659 24.1512C16.3334 25.3341 15.0298 26.1686 13.5652 26.5202C12.1006 26.8718 10.5602 26.7201 9.19233 26.0895C7.82445 25.4589 6.70871 24.3861 6.0249 23.0441C5.34108 21.702 5.12901 20.1688 5.42286 18.6915C5.71672 17.2142 6.49937 15.8789 7.64472 14.9007C8.79007 13.9224 10.2314 13.3583 11.7365 13.2992C13.2416 13.24 14.7227 13.6893 15.9413 14.5747L14.2817 16.8589C13.5762 16.3464 12.7187 16.0862 11.8473 16.1205C10.976 16.1547 10.1415 16.4813 9.47842 17.0476C8.81532 17.614 8.3622 18.3871 8.19208 19.2423C8.02196 20.0976 8.14473 20.9853 8.54063 21.7623C8.93652 22.5392 9.58247 23.1603 10.3744 23.5254C11.1663 23.8905 12.0581 23.9783 12.906 23.7747C13.754 23.5712 14.5087 23.0881 15.0486 22.4032C15.2873 22.1004 15.4779 21.7658 15.6162 21.4115H11.9997V18.588H24C24 18.588 23.9993 19.4867 23.9162 21.4115C23.833 23.3362 22.7987 25.684 21.4233 27.4287C19.7547 29.5454 17.4219 31.0387 14.801 31.6679C12.1801 32.2971 9.42373 32.0257 6.97595 30.8972C4.52817 29.7688 2.53158 27.8491 1.30791 25.4475C0.0842372 23.0459 -0.295253 20.3023 0.230586 17.6587C0.756426 15.0151 2.15697 12.6256 4.20654 10.8751C6.25612 9.12457 8.83535 8.11508 11.5286 8.00926C14.2219 7.90344 16.8724 8.70745 19.053 10.2917L17.3934 12.576Z" fill="black"/>
</svg>
