<svg width="120" height="33" viewBox="0 0 120 33" fill="none" xmlns="http://www.w3.org/2000/svg">
<path d="M119.16 0.359375H23.1973L0.360352 32.0394L96.5827 32.0394L119.16 0.359375Z" fill="#51D9B8"/>
<path d="M31.3441 23.3193V19.1273C31.3601 17.6713 31.3281 16.5193 31.2161 15.7993L34.1601 23.3193H36.0961L39.0401 15.7833C38.9761 16.3913 38.9281 17.3673 38.9281 19.7193V23.3193H40.9441V11.6233H38.9281L35.1361 20.9353L31.3441 11.6233H29.3921V23.3193H31.3441ZM45.5967 23.5273C46.8447 23.5273 47.7887 22.9673 48.1247 22.1513L48.2687 23.3193H49.9807V18.5193C49.9807 16.4233 48.7647 15.1753 46.5407 15.1753C44.4927 15.1753 43.0847 16.3113 43.1007 18.0073H44.7647C44.7487 17.1913 45.3727 16.6953 46.4447 16.6953C47.4047 16.6953 48.0767 17.1113 48.0767 18.1993V18.3753L45.8207 18.5513C44.0447 18.6953 42.8927 19.5273 42.8927 21.0633C42.8927 22.5353 43.9007 23.5273 45.5967 23.5273ZM46.2367 22.0553C45.3567 22.0553 44.8767 21.6713 44.8767 20.9833C44.8767 20.3433 45.2927 19.9593 46.4447 19.8473L48.0927 19.7033V20.1193C48.0927 21.5913 47.0687 22.0553 46.2367 22.0553ZM51.4213 19.3513C51.4213 21.8313 52.9893 23.5273 55.2133 23.5273C57.2613 23.5273 58.7653 22.2793 59.0053 20.4233H57.1493C56.9253 21.3193 56.2053 21.7833 55.3413 21.7833C54.1253 21.7833 53.3733 20.8713 53.3733 19.3513C53.3733 17.8153 54.1413 16.9033 55.3573 16.9033C56.2053 16.9033 56.9253 17.3513 57.1493 18.2793H58.9893C58.7813 16.4233 57.3573 15.1753 55.3733 15.1753C53.0533 15.1753 51.4213 16.8713 51.4213 19.3513ZM62.5278 23.3193V18.9673C62.5278 17.4153 63.6158 16.9513 64.4798 16.9513C65.1358 16.9513 66.1278 17.2233 66.1278 18.9193V23.3193H68.0638V18.4553C68.0638 16.4873 67.1358 15.1753 65.1038 15.1753C63.9838 15.1753 63.0398 15.6393 62.5278 16.4233V11.4153H60.5758V23.3193H62.5278ZM71.1284 13.7993C71.7684 13.7993 72.2964 13.2873 72.2964 12.6313C72.2964 11.9913 71.7684 11.4793 71.1284 11.4793C70.4724 11.4793 69.9764 11.9913 69.9764 12.6313C69.9764 13.2873 70.4724 13.7993 71.1284 13.7993ZM70.1524 23.3193H72.1044V15.4153H70.1524V23.3193ZM76.2466 23.3193V19.0633C76.2466 17.4153 77.3346 16.9513 78.1826 16.9513C78.8546 16.9513 79.8466 17.2233 79.8466 18.9193V23.3193H81.7826V18.4553C81.7826 16.4873 80.8546 15.1753 78.7906 15.1753C77.7186 15.1753 76.7746 15.6233 76.2626 16.4393L76.1026 15.4153H74.2946V23.3193H76.2466ZM83.3432 19.3673C83.3432 21.8793 84.8792 23.5273 87.1672 23.5273C89.0712 23.5273 90.5592 22.3913 90.8952 20.7113H89.0872C88.8952 21.3993 88.1432 21.8793 87.1992 21.8793C86.0152 21.8793 85.2792 21.1913 85.2312 19.9273H90.8632V19.3353C90.8632 16.8233 89.4712 15.1753 87.1672 15.1753C84.8952 15.1753 83.3432 16.8233 83.3432 19.3673ZM85.2632 18.6793C85.2792 17.4793 86.0312 16.7913 87.1032 16.7913C88.1592 16.7913 88.9112 17.4473 88.9272 18.6793H85.2632Z" fill="black"/>
</svg>
