<svg width="19" height="18" viewBox="0 0 19 18" fill="none" xmlns="http://www.w3.org/2000/svg">
<path d="M15.8383 15.337H13.171V11.16C13.171 10.1639 13.1532 8.88165 11.7838 8.88165C10.3945 8.88165 10.182 9.9669 10.182 11.0874V15.3368H7.5147V6.74698H10.0753V7.92086H10.1111C10.3674 7.48272 10.7377 7.12228 11.1826 6.87793C11.6275 6.63359 12.1303 6.51449 12.6376 6.53332C15.341 6.53332 15.8394 8.31151 15.8394 10.6248L15.8383 15.337ZM4.50511 5.57281C4.19897 5.57287 3.89969 5.48214 3.64511 5.3121C3.39054 5.14207 3.1921 4.90036 3.0749 4.61755C2.95769 4.33473 2.92698 4.02352 2.98665 3.72325C3.04633 3.42298 3.19369 3.14715 3.41013 2.93064C3.62656 2.71413 3.90234 2.56666 4.20258 2.50688C4.50283 2.4471 4.81406 2.4777 5.09692 2.5948C5.37977 2.71191 5.62155 2.91026 5.79168 3.16477C5.9618 3.41929 6.05264 3.71853 6.05269 4.02467C6.05273 4.22794 6.01273 4.42922 5.93498 4.61703C5.85722 4.80484 5.74324 4.9755 5.59953 5.11926C5.45582 5.26302 5.28521 5.37706 5.09743 5.45488C4.90965 5.5327 4.70838 5.57278 4.50511 5.57281ZM5.83875 15.337H3.16868V6.74698H5.83875V15.337ZM17.1681 0.000115541H1.82837C1.4802 -0.00381353 1.14471 0.130645 0.895629 0.373944C0.646547 0.617243 0.504249 0.949478 0.5 1.29764V16.701C0.504104 17.0493 0.646314 17.3818 0.895387 17.6253C1.14446 17.8689 1.48003 18.0036 1.82837 17.9999H17.1681C17.5171 18.0043 17.8536 17.8699 18.1037 17.6264C18.3537 17.3828 18.4969 17.05 18.5017 16.701V1.29653C18.4967 0.947676 18.3535 0.615064 18.1034 0.371771C17.8534 0.128478 17.5169 -0.00448543 17.1681 0.000115541Z" fill="#0A66C2"/>
</svg>
