<svg width="48" height="48" viewBox="0 0 48 48" fill="none" xmlns="http://www.w3.org/2000/svg">
<path d="M44.1429 23.5714C44.1429 28.3307 42.4926 32.9428 39.4734 36.6218C36.4541 40.3008 32.2526 42.8191 27.5847 43.7476C22.9169 44.6761 18.0715 43.9573 13.8741 41.7138C9.67679 39.4703 6.38722 35.8408 4.56591 31.4438C2.7446 27.0467 2.50424 22.1542 3.8858 17.5999C5.26735 13.0455 8.18533 9.11104 12.1426 6.46691C16.0998 3.82278 20.8514 2.63256 25.5878 3.09906C30.3242 3.56555 34.7523 5.65989 38.1176 9.02523L28.6626 18.4803C27.4847 17.3024 25.9349 16.5694 24.2772 16.4061C22.6194 16.2428 20.9563 16.6594 19.5713 17.5848C18.1863 18.5103 17.165 19.8873 16.6815 21.4814C16.1979 23.0754 16.282 24.7878 16.9195 26.3267C17.557 27.8657 18.7083 29.136 20.1774 29.9213C21.6464 30.7065 23.3423 30.9581 24.9761 30.6331C26.6098 30.3081 28.0804 29.4267 29.1371 28.1391C30.1938 26.8514 30.7714 25.2372 30.7714 23.5714H44.1429Z" fill="#6B38FD" fill-opacity="0.15"/>
<mask id="path-2-inside-1_8276_8693" fill="white">
<path d="M24 0C29.277 6.29273e-08 34.4068 1.73918 38.5958 4.94842C42.7847 8.15765 45.7992 12.658 47.1727 17.7531C48.5463 22.8482 48.2023 28.2539 46.194 33.1338C44.1857 38.0137 40.6251 42.0957 36.0631 44.748L27.6189 30.2244C28.9875 29.4287 30.0557 28.2041 30.6582 26.7401C31.2607 25.2762 31.3639 23.6545 30.9518 22.1259C30.5398 20.5974 29.6354 19.2473 28.3787 18.2845C27.1221 17.3218 25.5831 16.8 24 16.8V0Z"/>
</mask>
<path d="M24 0C29.277 6.29273e-08 34.4068 1.73918 38.5958 4.94842C42.7847 8.15765 45.7992 12.658 47.1727 17.7531C48.5463 22.8482 48.2023 28.2539 46.194 33.1338C44.1857 38.0137 40.6251 42.0957 36.0631 44.748L27.6189 30.2244C28.9875 29.4287 30.0557 28.2041 30.6582 26.7401C31.2607 25.2762 31.3639 23.6545 30.9518 22.1259C30.5398 20.5974 29.6354 19.2473 28.3787 18.2845C27.1221 17.3218 25.5831 16.8 24 16.8V0Z" fill="#6237DE" stroke="#6237DE" stroke-width="2" mask="url(#path-2-inside-1_8276_8693)"/>
</svg>
