<svg width="48" height="48" viewBox="0 0 48 48" fill="none" xmlns="http://www.w3.org/2000/svg">
<path d="M44.5706 24.0001C44.5706 28.7594 42.9204 33.3715 39.9011 37.0505C36.8818 40.7295 32.6803 43.2478 28.0124 44.1763C23.3446 45.1048 18.4992 44.386 14.3019 42.1425C10.1045 39.899 6.81495 36.2695 4.99364 31.8725C3.17233 27.4755 2.93198 22.5829 4.31353 18.0286C5.69509 13.4742 8.61307 9.53975 12.5703 6.89562C16.5275 4.25149 21.2791 3.06127 26.0155 3.52777C30.7519 3.99426 35.18 6.0886 38.5454 9.45394L29.0903 18.909C27.9125 17.7311 26.3626 16.9981 24.7049 16.8348C23.0471 16.6715 21.3841 17.0881 19.9991 18.0136C18.614 18.939 17.5927 20.3161 17.1092 21.9101C16.6256 23.5041 16.7098 25.2165 17.3472 26.7555C17.9847 28.2944 19.136 29.5647 20.6051 30.35C22.0742 31.1352 23.7701 31.3868 25.4038 31.0618C27.0376 30.7368 28.5081 29.8554 29.5648 28.5678C30.6216 27.2801 31.1992 25.6659 31.1992 24.0001H44.5706Z" fill="#6B38FD" fill-opacity="0.15"/>
<mask id="path-2-inside-1_8276_8701" fill="white">
<path d="M24 0C27.5321 4.21195e-08 31.0206 0.779607 34.2167 2.28319C37.4127 3.78677 40.2375 5.97725 42.4894 8.69833C44.7414 11.4194 46.3649 14.604 47.2443 18.0249C48.1237 21.4457 48.2371 25.0185 47.5766 28.4883C46.9161 31.958 45.4978 35.2392 43.4231 38.0977C41.3483 40.9562 38.6682 43.3215 35.574 45.0248C32.4798 46.7281 29.0477 47.7275 25.5228 47.9516C21.9978 48.1758 18.4669 47.6191 15.1819 46.3213L21.3546 30.6964C22.3401 31.0857 23.3994 31.2527 24.4568 31.1855C25.5143 31.1183 26.5439 30.8184 27.4722 30.3074C28.4005 29.7964 29.2045 29.0869 29.8269 28.2293C30.4493 27.3718 30.8748 26.3874 31.073 25.3465C31.2711 24.3055 31.2371 23.2337 30.9733 22.2075C30.7095 21.1812 30.2224 20.2258 29.5468 19.4095C28.8712 18.5932 28.0238 17.936 27.065 17.485C26.1062 17.0339 25.0596 16.8 24 16.8V0Z"/>
</mask>
<path d="M24 0C27.5321 4.21195e-08 31.0206 0.779607 34.2167 2.28319C37.4127 3.78677 40.2375 5.97725 42.4894 8.69833C44.7414 11.4194 46.3649 14.604 47.2443 18.0249C48.1237 21.4457 48.2371 25.0185 47.5766 28.4883C46.9161 31.958 45.4978 35.2392 43.4231 38.0977C41.3483 40.9562 38.6682 43.3215 35.574 45.0248C32.4798 46.7281 29.0477 47.7275 25.5228 47.9516C21.9978 48.1758 18.4669 47.6191 15.1819 46.3213L21.3546 30.6964C22.3401 31.0857 23.3994 31.2527 24.4568 31.1855C25.5143 31.1183 26.5439 30.8184 27.4722 30.3074C28.4005 29.7964 29.2045 29.0869 29.8269 28.2293C30.4493 27.3718 30.8748 26.3874 31.073 25.3465C31.2711 24.3055 31.2371 23.2337 30.9733 22.2075C30.7095 21.1812 30.2224 20.2258 29.5468 19.4095C28.8712 18.5932 28.0238 17.936 27.065 17.485C26.1062 17.0339 25.0596 16.8 24 16.8V0Z" fill="#6237DE" stroke="#6237DE" stroke-width="2" mask="url(#path-2-inside-1_8276_8701)"/>
</svg>
