<svg width="20" height="20" viewBox="0 0 20 20" fill="none" xmlns="http://www.w3.org/2000/svg">
<path fill-rule="evenodd" clip-rule="evenodd" d="M12.0002 0H8.00023V2.13205L6.08544 3.21735L4.18769 4.33322L2.33984 3.26637L0.339844 6.73047L2.18794 7.79746L2.17044 9.99833L2.18794 12.1995L0.340078 13.2664L2.34008 16.7305L4.18796 15.6636L6.08544 16.7793L8.00023 17.8646V20H12.0002V17.8648L13.9154 16.7793L15.8127 15.6637L17.6604 16.7305L19.6604 13.2664L17.8129 12.1997L17.8304 9.99833L17.8129 7.79723L19.6606 6.73047L17.6606 3.26637L15.813 4.3331L13.9154 3.21735L12.0002 2.13181V0ZM12 6.5298C10.0868 5.42523 7.64047 6.08074 6.5359 7.99391C5.43133 9.90708 6.08683 12.3534 8 13.458C9.91317 14.5626 12.3595 13.9071 13.4641 11.9939C14.5687 10.0807 13.9132 7.63437 12 6.5298Z" fill="black"/>
</svg>
