<svg width="120" height="32" viewBox="0 0 120 32" fill="none" xmlns="http://www.w3.org/2000/svg">
<path d="M120 0H23.0676L0 32L97.1943 32L120 0Z" fill="#51D9B8"/>
<path d="M41.8336 23H46.5056C48.8416 23 50.3616 21.896 50.3616 19.944C50.3616 18.52 49.5776 17.624 48.4416 17.16C49.5296 16.744 50.2336 15.848 50.2336 14.488C50.2336 12.616 48.8736 11.32 46.4576 11.32H41.8336V23ZM46.3936 13.064C47.6256 13.064 48.2176 13.896 48.2176 14.76C48.2176 15.64 47.6256 16.408 46.3936 16.408H43.8496V13.064H46.3936ZM46.5376 17.944C47.5776 17.944 48.3616 18.568 48.3616 19.608C48.3616 20.632 47.6416 21.256 46.5376 21.256H43.8496V17.944H46.5376ZM54.3053 23.208C55.5533 23.208 56.4973 22.648 56.8333 21.832L56.9773 23H58.6893V18.2C58.6893 16.104 57.4733 14.856 55.2493 14.856C53.2013 14.856 51.7933 15.992 51.8093 17.688H53.4733C53.4573 16.872 54.0813 16.376 55.1533 16.376C56.1133 16.376 56.7853 16.792 56.7853 17.88V18.056L54.5293 18.232C52.7533 18.376 51.6013 19.208 51.6013 20.744C51.6013 22.216 52.6093 23.208 54.3053 23.208ZM54.9453 21.736C54.0653 21.736 53.5853 21.352 53.5853 20.664C53.5853 20.024 54.0013 19.64 55.1533 19.528L56.8013 19.384V19.8C56.8013 21.272 55.7773 21.736 54.9453 21.736ZM60.0339 20.632C60.0979 22.2 61.3139 23.208 63.2019 23.208C65.0579 23.208 66.3219 22.216 66.3219 20.68C66.3219 19.544 65.6179 18.776 64.3219 18.456L62.9299 18.12C62.3379 17.96 61.9379 17.752 61.9379 17.24C61.9379 16.696 62.3699 16.312 63.0739 16.312C63.8099 16.312 64.2899 16.728 64.2899 17.416H66.0659C66.0019 15.848 64.8339 14.856 63.1219 14.856C61.4259 14.856 60.1619 15.848 60.1619 17.352C60.1619 18.376 60.7539 19.224 62.2739 19.624L63.6499 19.976C64.1619 20.12 64.4819 20.36 64.4819 20.808C64.4819 21.432 63.8899 21.72 63.1699 21.72C62.3059 21.72 61.8099 21.32 61.8099 20.632H60.0339ZM68.8683 13.48C69.5083 13.48 70.0363 12.968 70.0363 12.312C70.0363 11.672 69.5083 11.16 68.8683 11.16C68.2123 11.16 67.7163 11.672 67.7163 12.312C67.7163 12.968 68.2123 13.48 68.8683 13.48ZM67.8923 23H69.8443V15.096H67.8923V23ZM71.3799 19.032C71.3799 21.512 72.9479 23.208 75.1719 23.208C77.2199 23.208 78.7239 21.96 78.9639 20.104H77.1079C76.8839 21 76.1639 21.464 75.2999 21.464C74.0839 21.464 73.3319 20.552 73.3319 19.032C73.3319 17.496 74.0999 16.584 75.3159 16.584C76.1639 16.584 76.8839 17.032 77.1079 17.96H78.9479C78.7399 16.104 77.3159 14.856 75.3319 14.856C73.0119 14.856 71.3799 16.552 71.3799 19.032Z" fill="black"/>
</svg>
