<svg width="160" height="32" viewBox="0 0 160 32" fill="none" xmlns="http://www.w3.org/2000/svg">
<path d="M160 0H23.0676L0 32L137.194 32L160 0Z" fill="#51D9B8"/>
<path d="M46.6018 11.304H44.5538V23H46.6018V11.304ZM50.8771 23V18.744C50.8771 17.096 51.9651 16.632 52.8131 16.632C53.4851 16.632 54.4771 16.904 54.4771 18.6V23H56.4131V18.136C56.4131 16.168 55.4851 14.856 53.4211 14.856C52.3491 14.856 51.4051 15.304 50.8931 16.12L50.7331 15.096H48.9251V23H50.8771ZM61.6857 23.208C62.8697 23.208 63.9577 22.68 64.4377 21.752L64.5657 23H66.3097V11.096H64.4057V16.12C63.9097 15.336 62.9017 14.856 61.7977 14.856C59.4137 14.856 57.9737 16.616 57.9737 19.08C57.9737 21.528 59.3977 23.208 61.6857 23.208ZM62.1177 21.416C60.7417 21.416 59.9257 20.424 59.9257 19.016C59.9257 17.608 60.7417 16.6 62.1177 16.6C63.4777 16.6 64.3417 17.592 64.3417 19.016C64.3417 20.44 63.4777 21.416 62.1177 21.416ZM69.5089 13.48C70.1489 13.48 70.6769 12.968 70.6769 12.312C70.6769 11.672 70.1489 11.16 69.5089 11.16C68.8529 11.16 68.3569 11.672 68.3569 12.312C68.3569 12.968 68.8529 13.48 69.5089 13.48ZM68.5329 23H70.4849V15.096H68.5329V23ZM74.8511 23H76.7711L80.0671 15.096H78.0511L76.6111 18.728C76.2751 19.576 75.9871 20.408 75.8751 20.92C75.7791 20.488 75.5071 19.672 75.1711 18.728L73.8111 15.096H71.6991L74.8511 23ZM82.2746 13.48C82.9146 13.48 83.4426 12.968 83.4426 12.312C83.4426 11.672 82.9146 11.16 82.2746 11.16C81.6186 11.16 81.1226 11.672 81.1226 12.312C81.1226 12.968 81.6186 13.48 82.2746 13.48ZM81.2986 23H83.2506V15.096H81.2986V23ZM88.5607 23.208C89.7447 23.208 90.8327 22.68 91.3127 21.752L91.4407 23H93.1847V11.096H91.2807V16.12C90.7847 15.336 89.7767 14.856 88.6727 14.856C86.2887 14.856 84.8487 16.616 84.8487 19.08C84.8487 21.528 86.2727 23.208 88.5607 23.208ZM88.9927 21.416C87.6167 21.416 86.8007 20.424 86.8007 19.016C86.8007 17.608 87.6167 16.6 88.9927 16.6C90.3527 16.6 91.2167 17.592 91.2167 19.016C91.2167 20.44 90.3527 21.416 88.9927 21.416ZM98.3039 23.208C99.3759 23.208 100.4 22.712 100.864 21.976L100.992 23H102.816V15.096H100.864V19.24C100.864 20.664 100.32 21.464 99.0399 21.464C98.0479 21.464 97.3599 20.984 97.3599 19.352V15.096H95.4079V20.04C95.4079 21.928 96.4319 23.208 98.3039 23.208ZM107.243 23.208C108.491 23.208 109.435 22.648 109.771 21.832L109.915 23H111.627V18.2C111.627 16.104 110.411 14.856 108.187 14.856C106.139 14.856 104.731 15.992 104.747 17.688H106.411C106.395 16.872 107.019 16.376 108.091 16.376C109.051 16.376 109.723 16.792 109.723 17.88V18.056L107.467 18.232C105.691 18.376 104.539 19.208 104.539 20.744C104.539 22.216 105.547 23.208 107.243 23.208ZM107.883 21.736C107.003 21.736 106.523 21.352 106.523 20.664C106.523 20.024 106.939 19.64 108.091 19.528L109.739 19.384V19.8C109.739 21.272 108.715 21.736 107.883 21.736ZM115.611 23V11.096H113.659V23H115.611Z" fill="black"/>
</svg>
