<svg width="160" height="32" viewBox="0 0 160 32" fill="none" xmlns="http://www.w3.org/2000/svg">
<path d="M160 0H23.0676L0 32L137.194 32L160 0Z" fill="#51D9B8"/>
<path d="M40.7481 17.968C43.0841 17.968 44.6201 16.384 44.6201 14.128C44.6201 11.84 43.1001 10.304 40.7481 10.304H36.1241V22H38.1721V17.968H40.7481ZM40.3481 12.128C41.7081 12.128 42.4761 12.832 42.4761 14.112C42.4761 15.392 41.7241 16.144 40.3161 16.144H38.1721V12.128H40.3481ZM51.0149 14.064C50.6949 13.984 50.4229 13.952 50.1509 13.952C49.0949 13.952 48.3429 14.48 48.0069 15.264L47.8949 14.112H46.0549V22H48.0069V18.16C48.0069 16.624 48.8869 15.872 50.2949 15.872H51.0149V14.064ZM51.6065 18.032C51.6065 20.496 53.3825 22.192 55.8305 22.192C58.2785 22.192 60.0545 20.496 60.0545 18.032C60.0545 15.568 58.2785 13.872 55.8305 13.872C53.3825 13.872 51.6065 15.568 51.6065 18.032ZM53.5585 18.032C53.5585 16.592 54.4865 15.616 55.8305 15.616C57.1745 15.616 58.1025 16.592 58.1025 18.032C58.1025 19.472 57.1745 20.448 55.8305 20.448C54.4865 20.448 53.5585 19.472 53.5585 18.032ZM60.7865 14.096V15.728H61.9225V22H63.8585V15.728H65.7465V14.096H63.8585V13.136C63.8585 12.352 64.0985 11.84 65.0905 11.84H65.7785V10.176C65.4425 10.112 65.0745 10.096 64.7705 10.096C63.0585 10.096 61.9225 10.992 61.9225 13.136V14.096H60.7865ZM70.294 22.208C72.358 22.208 73.798 21.168 74.134 19.44H72.326C72.102 20.192 71.398 20.608 70.326 20.608C69.03 20.608 68.294 19.904 68.15 18.512L74.102 18.496V17.904C74.102 15.44 72.598 13.856 70.23 13.856C67.91 13.856 66.294 15.568 66.294 18.048C66.294 20.496 67.942 22.208 70.294 22.208ZM70.246 15.456C71.414 15.456 72.166 16.176 72.166 17.264H68.198C68.39 16.08 69.094 15.456 70.246 15.456ZM75.0563 19.6C75.0563 21.152 76.3043 22.208 78.2723 22.208C80.2243 22.208 81.5843 21.216 81.5843 19.616C81.5843 18.4 80.9123 17.792 79.5843 17.488L78.1603 17.152C77.4883 16.992 77.1363 16.704 77.1363 16.256C77.1363 15.664 77.5843 15.312 78.3523 15.312C79.1043 15.312 79.5523 15.744 79.5683 16.416H81.4243C81.4083 14.88 80.2083 13.856 78.4323 13.856C76.6083 13.856 75.2963 14.784 75.2963 16.336C75.2963 17.6 75.9843 18.272 77.4083 18.592L78.8323 18.928C79.5363 19.088 79.7443 19.376 79.7443 19.776C79.7443 20.352 79.2483 20.72 78.3363 20.72C77.4403 20.72 76.9283 20.288 76.9123 19.6H75.0563ZM82.4625 19.6C82.4625 21.152 83.7105 22.208 85.6785 22.208C87.6305 22.208 88.9905 21.216 88.9905 19.616C88.9905 18.4 88.3185 17.792 86.9905 17.488L85.5665 17.152C84.8945 16.992 84.5425 16.704 84.5425 16.256C84.5425 15.664 84.9905 15.312 85.7585 15.312C86.5105 15.312 86.9585 15.744 86.9745 16.416H88.8305C88.8145 14.88 87.6145 13.856 85.8385 13.856C84.0145 13.856 82.7025 14.784 82.7025 16.336C82.7025 17.6 83.3905 18.272 84.8145 18.592L86.2385 18.928C86.9425 19.088 87.1505 19.376 87.1505 19.776C87.1505 20.352 86.6545 20.72 85.7425 20.72C84.8465 20.72 84.3345 20.288 84.3185 19.6H82.4625ZM91.4528 12.512C92.0928 12.512 92.6208 11.984 92.6208 11.328C92.6208 10.672 92.0928 10.16 91.4528 10.16C90.7808 10.16 90.2528 10.672 90.2528 11.328C90.2528 11.984 90.7808 12.512 91.4528 12.512ZM90.4768 22H92.4288V14.096H90.4768V22ZM93.9815 18.032C93.9815 20.496 95.7575 22.192 98.2055 22.192C100.654 22.192 102.43 20.496 102.43 18.032C102.43 15.568 100.654 13.872 98.2055 13.872C95.7575 13.872 93.9815 15.568 93.9815 18.032ZM95.9335 18.032C95.9335 16.592 96.8615 15.616 98.2055 15.616C99.5495 15.616 100.478 16.592 100.478 18.032C100.478 19.472 99.5495 20.448 98.2055 20.448C96.8615 20.448 95.9335 19.472 95.9335 18.032ZM105.929 22V17.744C105.929 16.464 106.665 15.632 107.865 15.632C108.873 15.632 109.529 16.272 109.529 17.6V22H111.481V17.136C111.481 15.088 110.457 13.856 108.473 13.856C107.401 13.856 106.441 14.32 105.945 15.12L105.785 14.096H103.977V22H105.929ZM115.751 22.208C116.983 22.208 118.055 21.648 118.391 20.832L118.535 22H120.247V17.2C120.247 15.008 118.935 13.856 116.807 13.856C114.663 13.856 113.255 14.976 113.255 16.688H114.919C114.919 15.856 115.559 15.376 116.711 15.376C117.703 15.376 118.343 15.808 118.343 16.88V17.056L115.975 17.232C114.103 17.376 113.047 18.288 113.047 19.744C113.047 21.232 114.071 22.208 115.751 22.208ZM116.391 20.736C115.511 20.736 115.031 20.384 115.031 19.664C115.031 19.024 115.495 18.624 116.711 18.512L118.359 18.384V18.8C118.359 20.016 117.591 20.736 116.391 20.736ZM124.132 22V10.096H122.196V22H124.132Z" fill="black"/>
</svg>
