<svg width="160" height="32" viewBox="0 0 160 32" fill="none" xmlns="http://www.w3.org/2000/svg">
<path d="M160 0H23.0676L0 32L137.194 32L160 0Z" fill="#51D9B8"/>
<path d="M50.6616 23V21.08H45.4296V18.008H50.1176V16.2H45.4296V13.24H50.6616V11.304H43.3976V23H50.6616ZM54.6739 23V18.744C54.6739 17.096 55.7619 16.632 56.6099 16.632C57.2819 16.632 58.2739 16.904 58.2739 18.6V23H60.2099V18.136C60.2099 16.168 59.2819 14.856 57.2179 14.856C56.1459 14.856 55.2019 15.304 54.6899 16.12L54.5299 15.096H52.7219V23H54.6739ZM64.8128 23V16.712H66.3168V15.096H64.8128V12.632H62.8768V15.096H61.3568V16.712H62.8768V23H64.8128ZM66.9268 19.048C66.9268 21.56 68.4628 23.208 70.7508 23.208C72.6548 23.208 74.1428 22.072 74.4788 20.392H72.6708C72.4788 21.08 71.7268 21.56 70.7828 21.56C69.5988 21.56 68.8628 20.872 68.8148 19.608H74.4468V19.016C74.4468 16.504 73.0548 14.856 70.7508 14.856C68.4788 14.856 66.9268 16.504 66.9268 19.048ZM68.8468 18.36C68.8628 17.16 69.6148 16.472 70.6868 16.472C71.7428 16.472 72.4948 17.128 72.5108 18.36H68.8468ZM81.0878 15.064C79.8878 14.792 78.5278 15.064 78.0478 16.024L77.9358 15.112H76.1438V23H78.0958V19.16C78.0958 17.624 78.9118 16.76 80.3198 16.76H81.0878V15.064ZM82.5501 26.664H84.4541V21.912C84.9501 22.728 86.0221 23.208 87.2061 23.208C89.5421 23.208 90.9341 21.416 90.9021 18.952C90.8541 16.472 89.4301 14.856 87.1901 14.856C85.9901 14.856 84.9021 15.384 84.4221 16.296L84.3101 15.096H82.5501V26.664ZM84.5341 19.048C84.5341 17.624 85.3981 16.632 86.7581 16.632C88.1181 16.632 88.9341 17.64 88.9341 19.048C88.9341 20.456 88.1181 21.448 86.7581 21.448C85.3981 21.448 84.5341 20.472 84.5341 19.048ZM97.5097 15.064C96.3097 14.792 94.9497 15.064 94.4697 16.024L94.3577 15.112H92.5657V23H94.5177V19.16C94.5177 17.624 95.3337 16.76 96.7417 16.76H97.5097V15.064ZM99.9464 13.48C100.586 13.48 101.114 12.968 101.114 12.312C101.114 11.672 100.586 11.16 99.9464 11.16C99.2904 11.16 98.7944 11.672 98.7944 12.312C98.7944 12.968 99.2904 13.48 99.9464 13.48ZM98.9704 23H100.922V15.096H98.9704V23ZM102.425 20.632C102.489 22.2 103.705 23.208 105.593 23.208C107.449 23.208 108.713 22.216 108.713 20.68C108.713 19.544 108.009 18.776 106.713 18.456L105.321 18.12C104.729 17.96 104.329 17.752 104.329 17.24C104.329 16.696 104.761 16.312 105.465 16.312C106.201 16.312 106.681 16.728 106.681 17.416H108.457C108.393 15.848 107.225 14.856 105.513 14.856C103.817 14.856 102.553 15.848 102.553 17.352C102.553 18.376 103.145 19.224 104.665 19.624L106.041 19.976C106.553 20.12 106.873 20.36 106.873 20.808C106.873 21.432 106.281 21.72 105.561 21.72C104.697 21.72 104.201 21.32 104.201 20.632H102.425ZM109.817 19.048C109.817 21.56 111.353 23.208 113.641 23.208C115.545 23.208 117.033 22.072 117.369 20.392H115.561C115.369 21.08 114.617 21.56 113.673 21.56C112.489 21.56 111.753 20.872 111.705 19.608H117.337V19.016C117.337 16.504 115.945 14.856 113.641 14.856C111.369 14.856 109.817 16.504 109.817 19.048ZM111.737 18.36C111.753 17.16 112.505 16.472 113.577 16.472C114.633 16.472 115.385 17.128 115.401 18.36H111.737Z" fill="black"/>
</svg>
