<svg width="12" height="24" viewBox="0 0 12 24" fill="none" xmlns="http://www.w3.org/2000/svg">
<path fill-rule="evenodd" clip-rule="evenodd" d="M6.00022 12.9034L5.83939 13.0464L2.2727 16.2167C1.7176 16.71 1.4 17.4173 1.4 18.16V22C1.4 22.3314 1.66863 22.6 2 22.6H10C10.3314 22.6 10.6 22.3314 10.6 22V18.1599C10.6 17.4172 10.2824 16.71 9.7274 16.2166L6.16099 13.0464L6.00022 12.9034ZM6.00022 11.0966L6.16099 10.9536L9.7274 7.78338C10.2824 7.28998 10.6 6.58279 10.6 5.84015V2C10.6 1.66863 10.3314 1.4 10 1.4H2C1.66863 1.4 1.4 1.66863 1.4 2V5.84005C1.4 6.58273 1.7176 7.28995 2.2727 7.78335L5.83939 10.9536L6.00022 11.0966ZM8.14474 11.0634L10.6575 8.82973C11.5114 8.07066 12 6.98267 12 5.84015V2C12 0.895431 11.1046 0 10 0H2C0.895431 0 0 0.895429 0 2V5.84005C0 6.98263 0.488618 8.07067 1.34261 8.82974L3.85564 11.0634L4.9093 12L3.85564 12.9366L1.34261 15.1703C0.488617 15.9293 0 17.0174 0 18.16V22C0 23.1046 0.895433 24 2 24H10C11.1046 24 12 23.1046 12 22V18.1599C12 17.0173 11.5114 15.9293 10.6575 15.1703L8.14474 12.9366L7.09112 12L8.14474 11.0634Z" fill="black"/>
<path d="M3 5H9V6.33333L6 9L3 6.33333V5Z" fill="#51D9B8"/>
<path d="M3 18.3333L6 16L9 18.3333V21H3V18.3333Z" fill="#6B38FD"/>
</svg>
