<svg width="168" height="32" viewBox="0 0 168 32" fill="none" xmlns="http://www.w3.org/2000/svg">
<path d="M5.016 3.456V21H1.944V3.456H5.016ZM8.88 14.952H4.272V12.216H8.232C9.288 12.216 10.088 11.952 10.632 11.424C11.192 10.88 11.472 10.128 11.472 9.168C11.472 8.208 11.192 7.472 10.632 6.96C10.088 6.448 9.304 6.192 8.28 6.192H3.984V3.456H8.88C10.064 3.456 11.088 3.696 11.952 4.176C12.816 4.656 13.488 5.328 13.968 6.192C14.448 7.04 14.688 8.04 14.688 9.192C14.688 10.312 14.448 11.312 13.968 12.192C13.488 13.056 12.816 13.736 11.952 14.232C11.088 14.712 10.064 14.952 8.88 14.952ZM24.2801 9.096V11.808H23.2001C22.1281 11.808 21.2881 12.096 20.6801 12.672C20.0721 13.232 19.7681 14.088 19.7681 15.24V21H16.8401V9.168H19.6001L19.8401 11.616H19.5521C19.7121 10.832 20.0881 10.192 20.6801 9.696C21.2721 9.2 22.0401 8.952 22.9841 8.952C23.1921 8.952 23.4001 8.96 23.6081 8.976C23.8161 8.992 24.0401 9.032 24.2801 9.096ZM25.1676 15.048C25.1676 13.816 25.4396 12.736 25.9836 11.808C26.5276 10.864 27.2796 10.128 28.2396 9.6C29.1996 9.072 30.2876 8.808 31.5036 8.808C32.7356 8.808 33.8236 9.072 34.7676 9.6C35.7276 10.128 36.4796 10.864 37.0236 11.808C37.5676 12.736 37.8396 13.816 37.8396 15.048C37.8396 16.28 37.5676 17.368 37.0236 18.312C36.4796 19.24 35.7276 19.968 34.7676 20.496C33.8236 21.024 32.7356 21.288 31.5036 21.288C30.2876 21.288 29.1996 21.024 28.2396 20.496C27.2796 19.968 26.5276 19.24 25.9836 18.312C25.4396 17.368 25.1676 16.28 25.1676 15.048ZM28.0956 15.048C28.0956 15.768 28.2396 16.4 28.5276 16.944C28.8316 17.488 29.2316 17.912 29.7276 18.216C30.2396 18.52 30.8316 18.672 31.5036 18.672C32.1756 18.672 32.7676 18.52 33.2796 18.216C33.7916 17.912 34.1916 17.488 34.4796 16.944C34.7676 16.4 34.9116 15.768 34.9116 15.048C34.9116 14.312 34.7676 13.68 34.4796 13.152C34.1916 12.608 33.7916 12.184 33.2796 11.88C32.7676 11.576 32.1756 11.424 31.5036 11.424C30.8316 11.424 30.2396 11.576 29.7276 11.88C29.2316 12.184 28.8316 12.608 28.5276 13.152C28.2396 13.68 28.0956 14.312 28.0956 15.048ZM45.0324 21.312C43.8804 21.312 42.8884 21.056 42.0564 20.544C41.2404 20.016 40.6004 19.288 40.1364 18.36C39.6884 17.432 39.4644 16.352 39.4644 15.12C39.4644 13.888 39.6884 12.8 40.1364 11.856C40.6004 10.896 41.2644 10.144 42.1284 9.6C42.9924 9.056 44.0164 8.784 45.2004 8.784C46.0324 8.784 46.7924 8.952 47.4804 9.288C48.1684 9.608 48.6964 10.064 49.0644 10.656V3.144H51.9684V21H49.2804L49.0884 19.152C48.7364 19.824 48.1924 20.352 47.4564 20.736C46.7364 21.12 45.9284 21.312 45.0324 21.312ZM45.6804 18.624C46.3684 18.624 46.9604 18.48 47.4564 18.192C47.9524 17.888 48.3364 17.464 48.6084 16.92C48.8964 16.36 49.0404 15.728 49.0404 15.024C49.0404 14.304 48.8964 13.68 48.6084 13.152C48.3364 12.608 47.9524 12.184 47.4564 11.88C46.9604 11.56 46.3684 11.4 45.6804 11.4C45.0084 11.4 44.4244 11.56 43.9284 11.88C43.4324 12.184 43.0484 12.608 42.7764 13.152C42.5204 13.696 42.3924 14.32 42.3924 15.024C42.3924 15.728 42.5204 16.352 42.7764 16.896C43.0484 17.44 43.4324 17.864 43.9284 18.168C44.4244 18.472 45.0084 18.624 45.6804 18.624ZM63.0598 9.144H65.9878V21H63.2758L63.0598 19.416C62.7078 19.976 62.1798 20.432 61.4758 20.784C60.7718 21.136 60.0198 21.312 59.2198 21.312C57.8598 21.312 56.7958 20.88 56.0278 20.016C55.2598 19.152 54.8758 18 54.8758 16.56V9.144H57.8038V15.528C57.8038 16.648 58.0198 17.456 58.4518 17.952C58.8838 18.448 59.5078 18.696 60.3238 18.696C61.2518 18.696 61.9398 18.424 62.3878 17.88C62.8358 17.32 63.0598 16.48 63.0598 15.36V9.144ZM68.0816 15.048C68.0816 13.832 68.3296 12.752 68.8256 11.808C69.3376 10.864 70.0336 10.128 70.9136 9.6C71.8096 9.056 72.8416 8.784 74.0096 8.784C75.6256 8.784 76.9456 9.208 77.9696 10.056C79.0096 10.888 79.6096 12.016 79.7696 13.44H76.8416C76.6656 12.768 76.3376 12.264 75.8576 11.928C75.3936 11.576 74.8096 11.4 74.1056 11.4C73.4976 11.4 72.9536 11.552 72.4736 11.856C72.0096 12.144 71.6496 12.56 71.3936 13.104C71.1376 13.648 71.0096 14.296 71.0096 15.048C71.0096 15.8 71.1296 16.448 71.3696 16.992C71.6096 17.536 71.9536 17.96 72.4016 18.264C72.8656 18.552 73.4096 18.696 74.0336 18.696C74.7696 18.696 75.3776 18.52 75.8576 18.168C76.3536 17.816 76.6816 17.312 76.8416 16.656H79.7936C79.6656 17.584 79.3376 18.4 78.8096 19.104C78.2976 19.792 77.6336 20.336 76.8176 20.736C76.0016 21.12 75.0736 21.312 74.0336 21.312C72.8336 21.312 71.7856 21.056 70.8896 20.544C69.9936 20.016 69.2976 19.288 68.8016 18.36C68.3216 17.416 68.0816 16.312 68.0816 15.048ZM80.7969 9.144H88.2849V11.592H80.7969V9.144ZM86.0049 21H83.0769V5.448H86.0049V21ZM89.2172 17.4H92.0012C92.0172 17.912 92.2092 18.32 92.5772 18.624C92.9452 18.928 93.4572 19.08 94.1132 19.08C94.8172 19.08 95.3452 18.952 95.6972 18.696C96.0652 18.44 96.2492 18.096 96.2492 17.664C96.2492 17.376 96.1532 17.12 95.9612 16.896C95.7692 16.672 95.4092 16.504 94.8812 16.392L92.7452 15.888C91.6732 15.648 90.8732 15.264 90.3452 14.736C89.8332 14.192 89.5772 13.448 89.5772 12.504C89.5772 11.736 89.7772 11.072 90.1772 10.512C90.5932 9.952 91.1532 9.528 91.8572 9.24C92.5612 8.936 93.3692 8.784 94.2812 8.784C95.1612 8.784 95.9372 8.944 96.6092 9.264C97.2812 9.584 97.8012 10.032 98.1692 10.608C98.5532 11.184 98.7532 11.856 98.7692 12.624H95.9852C95.9852 12.112 95.8252 11.712 95.5052 11.424C95.1852 11.12 94.7372 10.968 94.1612 10.968C93.5852 10.968 93.1372 11.096 92.8172 11.352C92.4972 11.608 92.3372 11.952 92.3372 12.384C92.3372 13.04 92.8492 13.488 93.8732 13.728L96.0092 14.232C97.0012 14.456 97.7452 14.816 98.2412 15.312C98.7532 15.808 99.0092 16.512 99.0092 17.424C99.0092 18.224 98.8012 18.92 98.3852 19.512C97.9692 20.088 97.3852 20.536 96.6332 20.856C95.8812 21.16 95.0172 21.312 94.0412 21.312C92.5692 21.312 91.3932 20.952 90.5132 20.232C89.6492 19.512 89.2172 18.568 89.2172 17.4Z" fill="black"/>
<path d="M130 10L135.657 15.6569L130 21.3137L130 15.6569L130 10Z" fill="black"/>
<path d="M145.657 10L151.314 15.6569L145.657 21.3137L145.657 15.6569L145.657 10Z" fill="black"/>
<path d="M161.657 10L167.314 15.6569L161.657 21.3137L161.657 15.6569L161.657 10Z" fill="black"/>
</svg>
