<?xml version="1.0" encoding="utf-8"?>
<!-- Generator: Adobe Illustrator 16.0.0, SVG Export Plug-In . SVG Version: 6.00 Build 0)  -->
<!DOCTYPE svg PUBLIC "-//W3C//DTD SVG 1.1//EN" "http://www.w3.org/Graphics/SVG/1.1/DTD/svg11.dtd">
<svg version="1.1" id="Layer_1" xmlns="http://www.w3.org/2000/svg" xmlns:xlink="http://www.w3.org/1999/xlink" x="0px" y="0px"
	 width="225px" height="225px" viewBox="0 0 225 225" enable-background="new 0 0 225 225" xml:space="preserve">
<g transform="translate(0.000000,225.000000) scale(0.100000,-0.100000)">
	<path fill="#2775CA" d="M1045,2243.999C787.998,2210,608.999,2140,435,2005C7.002,1672.998-118.999,1065.996,141.001,590.996
		C321.001,264.004,637.002,54.004,1020,9.004c302.002-35,649.004,86.992,884.004,310c232.998,221.992,371.992,595,336.992,907.998
		c-57.998,508.999-406.992,893.999-905.996,996.997C1260.996,2238.999,1095,2251.001,1045,2243.999z M913.999,1903.999
		c8.003-21.001,8.003-87.998,0-108.999c-3.999-8.999-40-32.002-81.001-50C592.002,1633.999,431.001,1385,430,1121.001
		c0-118.999,17.998-196.997,71.001-308.999c41.997-91.006,58.999-112.998,136.001-190C705,555,742.998,525.996,805,495
		c111.001-54.004,115-57.998,115-120c0-90-23.999-92.998-165-24.004C587.998,432.998,460,557.002,376.001,720
		c-70,135-88.003,204.004-93.003,360C277.002,1240,290,1316.001,345,1443.999c85,197.002,245,360,433.999,443.003
		C862.998,1922.998,905,1928.999,913.999,1903.999z M1470.996,1887.002c238.008-104.004,431.006-341.001,485-596.001
		c18.008-88.003,18.008-278.999-0.996-361.001c-57.998-250.996-224.004-462.002-450-574.004c-150.996-75-175-71.992-175,19.004
		c0,62.002,4.004,65.996,115,120c117.002,57.002,244.004,185.996,302.998,307.998C1799.004,907.002,1820,995,1820,1110
		c0,117.998-22.002,208.999-75,317.998c-37.998,75-60.996,108.003-130.996,177.002c-70,70-101.006,92.998-179.004,131.001
		c-50.996,25-95.996,51.997-99.004,60c-10,26.997-5.996,100,6.006,111.997C1360.996,1927.002,1389.004,1922.002,1470.996,1887.002z
		 M1187.998,1667.998c7.002-6.997,12.002-38.999,12.002-73.999v-61.001l47.002-13.999c62.002-16.997,135.996-88.999,153.994-148.999
		c19.004-61.001,6.006-75-66.992-75c-58.008,0-59.004,0-77.002,37.998c-27.998,59.004-67.998,79.004-154.004,75
		c-60-2.998-75.996-6.997-97.998-27.998s-25-31.001-22.998-73.999c3.999-65,26.997-81.001,152.998-106.001
		c137.002-27.998,190.996-47.002,230.996-82.998c53.008-46.006,68.008-82.002,68.008-167.002c0.996-65-3.008-82.002-27.002-122.002
		c-32.998-57.998-74.004-90-149.004-118.994l-57.002-21.006l-2.998-67.002L1195,555l-64.004-2.998
		C1055,547.998,1050,552.998,1050,630.996v57.002L997.998,705c-70,22.002-112.998,49.004-143.999,90
		c-30,39.004-56.997,120.996-48.999,147.002c7.002,20.996,61.001,32.998,108.999,23.994c28.999-5.996,37.002-12.998,47.002-43.994
		c31.997-100,156.997-144.004,253.999-89.004c45,26.006,65,57.002,65,105c0,69.004-34.004,90-193.999,122.002
		c-183.003,35.996-253.003,91.001-263.003,207.998c-6.997,70,8.003,122.002,49.004,174.004c30,38.999,116.997,87.998,155,87.998
		c21.997,0,22.998,3.999,22.998,62.998c0,36.001,5,68.003,12.002,75c6.997,7.002,35,12.002,62.998,12.002
		S1180.996,1675,1187.998,1667.998z"/>
</g>
</svg>
