<svg width="30" height="14" viewBox="0 0 30 14" fill="none" xmlns="http://www.w3.org/2000/svg">
<path d="M0.960862 2.37345C0.570338 1.98292 0.570338 1.34976 0.960862 0.959234C1.35139 0.568709 1.98455 0.568709 2.37508 0.959234L0.960862 2.37345ZM9.66797 9.66634L10.3751 10.3734C9.98455 10.764 9.35139 10.764 8.96086 10.3734L9.66797 9.66634ZM17.668 1.66634L16.9609 0.959234C17.3514 0.568709 17.9846 0.568709 18.3751 0.959234L17.668 1.66634ZM28.3346 12.333H29.3346C29.3346 12.8853 28.8869 13.333 28.3346 13.333V12.333ZM23.0013 13.333C22.449 13.333 22.0013 12.8853 22.0013 12.333C22.0013 11.7807 22.449 11.333 23.0013 11.333V13.333ZM27.3346 6.99967C27.3346 6.44739 27.7824 5.99967 28.3346 5.99967C28.8869 5.99967 29.3346 6.44739 29.3346 6.99967H27.3346ZM2.37508 0.959234L10.3751 8.95923L8.96086 10.3734L0.960862 2.37345L2.37508 0.959234ZM8.96086 8.95923L16.9609 0.959234L18.3751 2.37345L10.3751 10.3734L8.96086 8.95923ZM18.3751 0.959234L29.0417 11.6259L27.6275 13.0401L16.9609 2.37345L18.3751 0.959234ZM28.3346 13.333H23.0013V11.333H28.3346V13.333ZM27.3346 12.333V6.99967H29.3346V12.333H27.3346Z" fill="#F65D53"/>
</svg>
