<svg width="32" height="11" viewBox="0 0 32 11" fill="none" xmlns="http://www.w3.org/2000/svg">
<path d="M0.2 8.64219C-0.131371 9.08402 -0.0418278 9.71082 0.4 10.0422C0.841828 10.3736 1.46863 10.284 1.8 9.84219L0.2 8.64219ZM7 1.24219L7.8 0.642187C7.61115 0.390382 7.31476 0.242188 7 0.242188C6.68524 0.242188 6.38885 0.390382 6.2 0.642187L7 1.24219ZM13 9.24219L12.2 9.84219C12.3889 10.094 12.6852 10.2422 13 10.2422C13.3148 10.2422 13.6111 10.094 13.8 9.84219L13 9.24219ZM19 1.24219L19.8 0.642187C19.6111 0.390382 19.3148 0.242188 19 0.242188C18.6852 0.242188 18.3889 0.390382 18.2 0.642187L19 1.24219ZM25 9.24219L24.2 9.84219C24.3889 10.094 24.6852 10.2422 25 10.2422C25.3148 10.2422 25.6111 10.094 25.8 9.84219L25 9.24219ZM31.8 1.84219C32.1314 1.40036 32.0418 0.773558 31.6 0.442187C31.1582 0.110817 30.5314 0.20036 30.2 0.642187L31.8 1.84219ZM1.8 9.84219L7.8 1.84219L6.2 0.642187L0.2 8.64219L1.8 9.84219ZM6.2 1.84219L12.2 9.84219L13.8 8.64219L7.8 0.642187L6.2 1.84219ZM13.8 9.84219L19.8 1.84219L18.2 0.642187L12.2 8.64219L13.8 9.84219ZM18.2 1.84219L24.2 9.84219L25.8 8.64219L19.8 0.642187L18.2 1.84219ZM25.8 9.84219L31.8 1.84219L30.2 0.642187L24.2 8.64219L25.8 9.84219Z" fill="#6237DE"/>
</svg>
