<svg width="30" height="14" viewBox="0 0 30 14" fill="none" xmlns="http://www.w3.org/2000/svg">
<path d="M0.960862 11.6266C0.570338 12.0171 0.570338 12.6502 0.960862 13.0408C1.35139 13.4313 1.98455 13.4313 2.37508 13.0408L0.960862 11.6266ZM9.66797 4.33366L10.3751 3.62655C9.98455 3.23603 9.35139 3.23603 8.96086 3.62655L9.66797 4.33366ZM17.668 12.3337L16.9609 13.0408C17.3514 13.4313 17.9846 13.4313 18.3751 13.0408L17.668 12.3337ZM28.3346 1.66699H29.3346C29.3346 1.11471 28.8869 0.666992 28.3346 0.666992V1.66699ZM23.0013 0.666992C22.449 0.666992 22.0013 1.11471 22.0013 1.66699C22.0013 2.21928 22.449 2.66699 23.0013 2.66699V0.666992ZM27.3346 7.00033C27.3346 7.55261 27.7824 8.00033 28.3346 8.00033C28.8869 8.00033 29.3346 7.55261 29.3346 7.00033H27.3346ZM2.37508 13.0408L10.3751 5.04077L8.96086 3.62655L0.960862 11.6266L2.37508 13.0408ZM8.96086 5.04077L16.9609 13.0408L18.3751 11.6266L10.3751 3.62655L8.96086 5.04077ZM18.3751 13.0408L29.0417 2.3741L27.6275 0.959885L16.9609 11.6266L18.3751 13.0408ZM28.3346 0.666992H23.0013V2.66699H28.3346V0.666992ZM27.3346 1.66699V7.00033H29.3346V1.66699H27.3346Z" fill="#51D9B8"/>
</svg>
